<?xml version="1.0" standalone="no"?>
<!DOCTYPE svg PUBLIC "-//W3C//DTD SVG 20010904//EN"
 "http://www.w3.org/TR/2001/REC-SVG-20010904/DTD/svg10.dtd">
<svg version="1.0" xmlns="http://www.w3.org/2000/svg"
 width="600.000000pt" height="600.000000pt" viewBox="0 0 600.000000 600.000000"
 preserveAspectRatio="xMidYMid meet">
<metadata>
Created by potrace 1.10, written by Peter Selinger 2001-2011
</metadata>
<g transform="translate(0.000000,600.000000) scale(0.100000,-0.100000)"
fill="#000000" stroke="none">
<path d="M2821 4589 c-42 -17 -81 -50 -81 -70 0 -12 -7 -19 -18 -19 -35 0 -54
-60 -53 -166 1 -61 6 -101 13 -105 6 -4 8 -15 4 -24 -6 -16 -8 -17 -25 -1 -9
9 -21 13 -25 9 -4 -5 -24 -13 -44 -18 -24 -7 -37 -17 -37 -28 0 -10 -15 -26
-33 -37 -19 -12 -32 -28 -32 -40 0 -11 -6 -23 -14 -26 -8 -3 -12 -13 -9 -24 3
-10 0 -28 -7 -40 -9 -16 -9 -25 1 -36 6 -8 9 -26 6 -42 -3 -15 1 -45 8 -66 8
-22 12 -43 10 -46 -2 -4 -28 -12 -58 -19 -41 -9 -57 -18 -65 -36 -7 -14 -19
-25 -28 -25 -18 0 -53 -38 -54 -58 0 -7 -5 -23 -12 -35 -16 -28 -20 -127 -7
-143 7 -9 6 -19 -3 -33 -10 -16 -10 -25 -1 -40 15 -25 7 -31 -28 -24 -22 4
-29 2 -29 -11 0 -9 -8 -16 -19 -16 -22 0 -84 -71 -100 -113 -18 -46 -13 -131
11 -192 25 -67 20 -75 -52 -75 -56 0 -129 -45 -174 -108 -29 -41 -31 -50 -31
-130 0 -72 4 -94 23 -125 25 -43 22 -57 -14 -57 -33 0 -64 -17 -64 -36 0 -10
-7 -13 -25 -8 -17 4 -25 2 -25 -6 0 -7 -17 -34 -37 -59 -37 -44 -38 -48 -38
-125 1 -70 3 -81 23 -94 16 -10 22 -24 22 -49 0 -34 -3 -36 -53 -47 -17 -4
-31 -16 -37 -31 -5 -13 -19 -25 -32 -27 -15 -2 -24 -11 -26 -26 -2 -12 -11
-26 -21 -32 -13 -6 -17 -17 -14 -33 3 -14 0 -28 -6 -31 -6 -4 -11 -31 -11 -60
0 -45 3 -54 20 -59 23 -6 27 -27 5 -27 -11 0 -14 -7 -10 -22 l6 -23 -178 0
c-201 0 -208 -2 -282 -78 -35 -37 -43 -51 -39 -72 4 -17 1 -28 -8 -32 -11 -4
-13 -21 -10 -68 7 -93 58 -166 139 -200 32 -13 116 -15 646 -15 377 0 619 3
635 10 77 29 164 158 137 202 -10 16 -9 24 4 44 15 24 14 27 -15 80 -45 77
-109 124 -170 124 -34 0 -50 4 -54 16 -10 25 -7 62 5 70 11 7 7 71 -7 123 -5
17 -4 22 4 17 7 -4 12 -1 12 7 0 8 -6 17 -12 20 -7 3 -22 21 -32 41 l-19 35
24 20 c13 11 36 20 50 21 29 0 85 55 113 109 21 39 21 145 1 202 -9 24 -13 49
-11 56 4 10 117 13 570 13 310 0 571 -3 580 -6 21 -8 20 -27 -3 -72 -26 -50
-25 -139 1 -168 11 -12 18 -28 16 -35 -3 -16 39 -62 65 -72 9 -3 17 -12 17
-20 0 -7 16 -21 35 -30 39 -19 43 -35 18 -73 -19 -29 -24 -152 -10 -216 9 -37
9 -37 -41 -62 -106 -54 -162 -156 -147 -268 6 -44 15 -60 59 -106 28 -30 65
-61 83 -68 25 -11 141 -14 567 -14 590 -1 577 -2 644 62 17 18 32 42 32 54 0
13 7 27 16 32 18 10 30 117 14 127 -6 3 -10 20 -10 36 0 33 -64 110 -113 135
-17 9 -74 18 -145 22 l-117 7 4 96 c3 102 -10 169 -34 169 -8 0 -16 9 -20 19
-3 11 -19 24 -35 29 -15 6 -33 19 -38 29 -7 12 -32 23 -72 32 -34 8 -64 20
-67 28 -3 8 2 30 11 49 11 23 16 59 15 107 -1 98 -9 123 -38 119 -18 -3 -22 1
-19 15 6 33 -105 108 -136 91 -9 -5 -23 -5 -35 2 -11 5 -85 10 -170 10 -83 0
-151 3 -151 7 0 3 6 14 14 22 26 29 42 135 31 207 -5 35 -17 55 -53 93 -26 27
-58 55 -72 62 -20 11 -113 15 -430 19 -304 4 -411 8 -427 18 -27 15 -31 63 -8
82 21 18 18 209 -4 226 -8 6 -11 16 -7 23 6 9 13 8 27 -5 16 -15 41 -16 221
-12 160 3 209 8 233 20 43 23 101 87 120 130 19 46 20 138 1 182 -21 51 -98
126 -128 126 -48 0 -58 9 -58 55 0 24 5 47 11 51 6 3 8 15 6 26 -3 11 -1 31 5
44 9 18 8 30 -1 48 -9 17 -11 39 -4 77 7 47 11 54 33 57 44 6 92 32 86 48 -4
11 0 14 17 12 17 -2 23 3 25 21 2 13 12 26 23 28 13 4 19 14 19 34 0 15 4 31
10 34 6 4 5 13 -2 25 -10 15 -10 22 -1 31 14 14 6 68 -14 87 -7 7 -13 20 -13
28 0 8 -7 14 -15 14 -9 0 -18 7 -21 15 -4 8 -12 15 -19 15 -7 0 -15 9 -18 20
-11 42 -60 50 -309 49 -128 0 -244 -5 -257 -10z m554 -122 c6 -8 9 -56 7 -115
l-3 -102 -300 0 -299 0 0 110 c0 84 3 111 14 117 8 4 140 7 292 6 227 -1 280
-4 289 -16z m-212 -376 c4 -1 7 -53 7 -116 l0 -115 -300 0 -300 0 0 108 c0 62
4 112 11 119 6 6 105 9 292 7 155 -1 285 -3 290 -3z m182 -531 l0 -115 -480 0
c-275 -1 -485 3 -492 8 -14 10 -19 208 -6 220 3 4 225 6 492 5 l486 -3 0 -115z
m-591 -378 c0 -57 -2 -108 -5 -114 -9 -15 -536 -13 -554 2 -11 10 -15 37 -15
116 l0 104 286 -2 287 -3 1 -103z m986 -418 c0 -56 -4 -105 -10 -109 -15 -9
-1772 -7 -1782 3 -5 5 -7 53 -6 108 l3 99 875 5 c481 3 885 3 898 1 21 -3 22
-7 22 -107z m-1375 -420 l0 -109 -280 -3 c-154 -1 -290 0 -302 3 -22 5 -23 10
-23 105 0 75 3 101 14 107 8 4 144 8 303 7 l288 -1 0 -109z m1874 102 c15 -10
12 -192 -3 -205 -8 -7 -100 -10 -272 -8 l-259 2 -3 99 c-1 55 -1 104 1 110 5
12 517 13 536 2z m-2031 -411 c9 -3 12 -31 10 -111 l-3 -106 -293 0 c-162 0
-297 3 -300 7 -4 3 -7 49 -8 101 -1 79 2 97 16 107 13 9 91 11 291 9 151 -1
280 -4 287 -7z m2265 -4 c12 -9 14 -197 3 -208 -5 -5 -616 -6 -621 -1 -9 9 -6
199 3 210 13 16 597 15 615 -1z m-2608 -379 c314 1 576 -1 582 -5 8 -5 11 -41
10 -110 l-2 -102 -667 -3 c-368 -1 -669 1 -669 5 -1 5 -3 51 -4 103 -4 125 -1
129 102 118 43 -5 335 -7 648 -6z m3000 -110 c-1 -53 -3 -100 -4 -104 0 -5
-269 -8 -596 -8 l-595 0 0 99 c0 55 2 105 5 113 4 11 96 12 503 10 273 -1 533
1 577 6 111 11 113 8 110 -116z"/>
</g>
</svg>
