<?xml version="1.0" standalone="no"?>
<!DOCTYPE svg PUBLIC "-//W3C//DTD SVG 20010904//EN"
 "http://www.w3.org/TR/2001/REC-SVG-20010904/DTD/svg10.dtd">
<svg version="1.0" xmlns="http://www.w3.org/2000/svg"
 width="600.000000pt" height="600.000000pt" viewBox="0 0 600.000000 600.000000"
 preserveAspectRatio="xMidYMid meet">
<metadata>
Created by potrace 1.10, written by Peter Selinger 2001-2011
</metadata>
<g transform="translate(0.000000,600.000000) scale(0.100000,-0.100000)"
fill="#000000" stroke="none">
<path d="M2685 5940 c-172 -21 -239 -32 -277 -44 -24 -8 -65 -18 -93 -22 -27
-4 -64 -13 -82 -20 -18 -8 -48 -14 -67 -14 -20 0 -50 -6 -68 -14 -18 -8 -49
-18 -69 -21 -21 -3 -42 -12 -49 -20 -7 -8 -23 -15 -35 -15 -12 0 -28 -6 -34
-14 -7 -8 -27 -18 -44 -22 -18 -3 -48 -14 -67 -24 -19 -10 -51 -24 -70 -32
-77 -33 -136 -62 -150 -73 -14 -12 -41 -27 -140 -82 -60 -32 -123 -74 -170
-113 -25 -20 -56 -43 -70 -50 -28 -15 -177 -138 -199 -163 -7 -10 -19 -17 -27
-17 -7 0 -18 -9 -24 -20 -5 -10 -36 -43 -67 -72 -54 -51 -78 -75 -107 -108
-68 -78 -130 -156 -164 -205 -22 -33 -54 -73 -71 -89 -17 -17 -31 -34 -31 -39
0 -5 -9 -20 -20 -34 -11 -14 -20 -34 -20 -44 0 -11 -5 -19 -11 -19 -5 0 -15
-13 -20 -30 -6 -16 -15 -30 -20 -30 -6 0 -17 -15 -25 -32 -8 -18 -26 -51 -39
-73 -13 -22 -27 -47 -30 -55 -4 -8 -14 -31 -22 -50 -9 -19 -23 -53 -33 -75
-25 -57 -45 -102 -74 -167 -14 -31 -26 -65 -26 -75 -1 -10 -7 -29 -15 -43 -8
-14 -14 -37 -15 -53 0 -15 -5 -35 -10 -45 -6 -9 -16 -46 -24 -82 -8 -36 -19
-83 -25 -105 -42 -170 -45 -201 -48 -635 -3 -440 2 -516 43 -675 8 -33 20 -82
26 -110 6 -27 17 -64 24 -82 8 -17 14 -40 14 -52 0 -11 6 -35 14 -53 8 -18 18
-49 21 -69 3 -21 12 -42 20 -49 8 -7 15 -22 15 -34 0 -11 9 -32 20 -46 11 -14
20 -32 20 -40 0 -8 9 -28 20 -45 11 -16 20 -40 20 -51 0 -12 7 -27 15 -34 8
-7 15 -19 15 -27 0 -19 59 -126 109 -197 22 -33 41 -65 41 -72 0 -7 21 -40 47
-74 27 -33 68 -88 93 -121 111 -149 341 -397 383 -412 9 -4 17 -12 17 -20 0
-7 30 -35 67 -62 38 -27 101 -75 141 -108 40 -32 93 -69 116 -81 24 -13 54
-30 67 -40 89 -62 262 -156 290 -156 8 0 33 -14 57 -30 24 -16 64 -36 90 -45
26 -9 58 -22 72 -29 14 -7 52 -21 85 -31 33 -10 76 -23 95 -31 19 -7 49 -15
65 -18 17 -4 64 -15 105 -25 200 -51 217 -54 346 -49 95 4 129 9 141 21 14 14
10 16 -41 27 -31 6 -56 16 -56 21 0 5 5 9 12 9 6 0 8 3 4 8 -4 4 -33 8 -64 8
-67 2 -180 21 -205 35 -10 5 -39 7 -65 3 -45 -5 -48 -4 -65 25 -21 36 -28 37
-68 14 -30 -18 -39 -14 -52 21 -2 6 -16 4 -35 -3 -17 -7 -40 -10 -49 -6 -17 6
-17 7 0 20 16 11 9 15 -59 36 -43 14 -80 31 -85 42 -12 21 -42 22 -59 2 -16
-19 -29 -19 -37 0 -3 9 2 22 13 30 27 19 10 30 -42 28 -37 -1 -44 1 -44 18 0
16 -7 19 -40 19 -22 0 -40 -4 -40 -10 0 -5 -7 -10 -15 -10 -11 0 -13 8 -8 30
5 26 3 30 -16 30 -12 0 -40 12 -64 27 -23 15 -67 40 -97 55 -30 15 -59 34 -65
41 -5 7 -22 18 -37 24 -16 7 -28 19 -28 28 0 10 -10 15 -29 15 -34 0 -54 20
-45 45 6 15 2 16 -34 10 -40 -6 -57 5 -31 20 15 10 -18 43 -50 50 -29 6 -114
79 -124 107 -3 9 -22 20 -41 24 -31 5 -35 9 -30 28 3 15 -3 29 -20 46 -16 14
-26 34 -26 52 0 30 -10 34 -40 18 -40 -21 -69 21 -35 50 8 7 15 19 15 26 0 17
-32 18 -48 2 -14 -14 -52 16 -52 42 0 21 -20 40 -42 40 -19 0 -24 15 -8 25 15
9 12 45 -4 45 -8 0 -16 -5 -18 -12 -9 -25 -28 5 -28 43 0 26 -5 42 -15 45 -8
4 -15 14 -15 23 0 10 -10 22 -22 28 -13 6 -45 44 -73 84 -27 41 -53 75 -56 77
-4 2 -5 21 -2 42 5 33 3 40 -11 40 -9 0 -16 -7 -16 -15 0 -17 -16 -20 -25 -4
-4 6 1 16 11 24 18 13 18 14 2 20 -10 4 -18 15 -18 24 0 9 -14 36 -30 60 -25
36 -30 54 -30 102 0 48 -3 59 -19 64 -19 6 -44 60 -77 165 -9 30 -21 62 -25
70 -27 46 -69 214 -63 252 4 23 0 49 -13 79 -14 30 -19 58 -15 87 3 32 0 48
-13 62 -13 14 -19 40 -21 87 -1 38 -3 73 -3 80 -1 7 -11 22 -23 33 -22 20 -22
22 -5 34 15 12 17 32 16 177 0 94 4 176 10 192 6 16 11 46 11 67 0 21 5 42 10
45 6 3 10 21 10 39 0 19 9 53 20 77 11 24 20 58 20 76 0 17 7 38 15 47 36 36
53 126 24 126 -20 0 -8 60 16 86 14 15 28 39 31 53 3 14 19 64 35 111 17 47
32 96 34 108 5 31 13 39 21 18 3 -9 13 -16 21 -16 11 0 13 6 8 23 -4 12 -9 37
-12 55 -5 32 -4 33 22 26 27 -7 27 -6 20 34 -6 35 -4 42 15 52 18 10 21 18 16
45 -5 27 -3 33 14 38 11 3 23 13 26 24 4 10 27 53 52 96 34 59 57 85 94 109
50 33 56 45 36 77 -16 26 -3 55 22 48 11 -3 20 -1 20 5 0 5 11 24 24 41 13 18
26 41 27 51 2 10 12 24 22 30 15 9 20 7 29 -8 10 -18 12 -16 22 15 9 26 16 34
36 34 22 0 26 5 30 45 3 29 10 44 18 43 6 -2 18 -4 25 -5 7 -2 15 16 21 49 9
50 10 52 38 46 30 -6 68 18 68 44 0 7 6 13 13 13 20 0 87 63 87 82 0 16 80 78
101 78 5 0 15 11 21 25 6 14 17 25 25 25 7 0 13 9 13 19 0 21 19 31 61 31 17
0 38 9 51 23 21 21 183 117 198 117 4 0 15 8 24 19 9 10 41 26 71 36 29 9 59
23 66 31 6 8 24 14 39 14 15 0 33 7 40 15 7 8 21 15 31 15 11 0 19 4 19 9 0 5
10 11 23 14 12 3 67 21 122 40 55 19 127 40 160 47 33 6 85 19 115 27 30 9 71
17 90 18 19 1 60 3 90 5 l55 3 -37 10 c-21 6 -38 14 -38 19 0 12 58 10 80 -4
15 -10 27 -10 54 0 105 38 550 40 685 3 34 -10 54 -10 93 0 38 10 53 10 68 1
11 -6 38 -15 61 -18 29 -5 43 -13 46 -25 6 -22 15 -23 61 -7 30 11 35 11 47
-6 7 -10 28 -22 47 -26 187 -49 292 -83 313 -102 5 -4 19 -8 31 -8 12 0 27 -7
34 -15 7 -8 23 -15 35 -15 12 0 28 -7 35 -15 7 -8 30 -18 51 -21 29 -5 39 -11
39 -25 0 -21 11 -24 27 -8 8 8 15 5 25 -9 7 -11 45 -37 83 -58 39 -21 86 -50
106 -64 20 -14 55 -34 77 -44 23 -11 42 -25 42 -33 0 -7 8 -13 19 -13 10 0 26
-11 35 -25 9 -14 25 -25 36 -25 10 0 31 -16 46 -35 19 -26 32 -34 45 -30 24 8
37 -20 21 -45 -8 -13 -7 -21 1 -29 15 -15 27 -14 50 6 18 17 19 17 33 -2 8
-10 14 -25 14 -32 0 -12 27 -45 113 -135 19 -20 26 -36 22 -49 -9 -27 24 -38
41 -15 15 21 34 13 34 -15 0 -11 14 -33 31 -49 31 -28 68 -81 89 -129 8 -18
13 -21 24 -12 10 8 21 2 49 -30 40 -44 44 -58 25 -78 -11 -10 -7 -18 18 -39
17 -15 46 -56 64 -92 18 -36 43 -77 56 -91 31 -33 47 -90 39 -137 -4 -26 -1
-43 9 -57 15 -19 15 -18 16 23 0 50 9 53 33 11 28 -50 21 -99 -11 -67 -9 9
-12 6 -12 -14 0 -14 6 -31 14 -37 12 -10 17 -8 26 9 13 25 30 17 30 -14 0 -12
17 -67 39 -122 21 -54 42 -115 46 -134 4 -19 13 -45 21 -57 19 -31 39 -147 37
-220 -1 -47 2 -63 12 -63 16 0 21 -14 30 -76 4 -27 11 -53 15 -59 11 -15 9
-177 -2 -198 -7 -14 -5 -24 6 -36 13 -14 16 -41 16 -124 0 -62 -4 -108 -10
-112 -7 -4 -8 -46 -4 -121 7 -112 6 -115 -17 -140 -22 -23 -24 -34 -24 -121 0
-79 -3 -96 -17 -104 -11 -6 -18 -22 -18 -39 0 -15 -5 -30 -12 -32 -8 -3 -13
-27 -14 -64 -3 -86 -19 -162 -47 -219 -13 -27 -28 -64 -31 -82 -5 -19 -15 -35
-27 -38 -17 -6 -19 -12 -13 -51 5 -35 3 -44 -7 -42 -8 2 -15 -10 -19 -32 -3
-22 -11 -36 -22 -38 -15 -3 -18 4 -18 37 0 22 -4 43 -10 46 -14 8 -13 -68 1
-82 14 -14 1 -83 -16 -83 -13 0 -45 -58 -45 -82 0 -8 -7 -23 -15 -34 -8 -10
-24 -38 -34 -62 -11 -23 -27 -45 -36 -48 -9 -4 -21 -17 -26 -30 -5 -14 -17
-24 -29 -24 -16 0 -20 -7 -20 -33 0 -24 -8 -41 -29 -61 -16 -15 -37 -49 -46
-74 -25 -65 -33 -74 -67 -67 -35 8 -50 -19 -22 -40 15 -11 17 -17 8 -32 -18
-28 -39 -22 -37 10 2 34 -13 32 -40 -5 -18 -24 -18 -30 -7 -58 16 -37 8 -48
-24 -31 -33 18 -48 6 -44 -38 3 -33 0 -36 -24 -39 -18 -2 -28 -11 -32 -29 -7
-25 -19 -27 -69 -7 -10 3 -16 -4 -20 -24 -4 -21 -14 -31 -33 -36 -18 -5 -25
-12 -21 -24 2 -9 6 -23 8 -31 2 -9 -6 -17 -21 -20 -14 -4 -29 -17 -35 -29 -7
-16 -18 -22 -42 -22 -25 0 -32 -5 -35 -22 -2 -15 -13 -24 -34 -30 -19 -5 -34
-16 -37 -28 -3 -14 -14 -20 -32 -20 -17 0 -29 -6 -31 -18 -5 -17 -25 -30 -168
-105 -43 -23 -81 -50 -84 -59 -3 -13 -15 -18 -41 -18 -20 0 -42 -5 -48 -11 -7
-7 -30 -13 -53 -14 -50 -3 -61 -12 -36 -31 18 -13 16 -14 -27 -14 -36 0 -49
-4 -57 -20 -6 -11 -16 -20 -23 -20 -26 0 -177 -53 -177 -62 0 -6 -11 -7 -26
-4 -16 4 -35 1 -48 -7 -19 -13 -64 -26 -146 -44 -14 -2 -39 -11 -55 -18 -24
-11 -151 -23 -265 -25 -3 0 -6 -20 -7 -44 -1 -38 2 -45 20 -50 41 -11 185 -6
233 8 53 15 161 41 239 57 27 6 62 17 77 25 15 8 37 14 50 14 13 0 36 7 52 15
15 8 36 15 46 15 10 0 25 7 34 15 8 8 23 15 33 15 10 0 38 12 63 26 25 14 88
44 139 66 101 43 104 44 227 125 45 29 86 53 91 53 6 0 20 8 31 17 12 10 38
29 57 43 222 154 541 464 659 638 25 37 68 96 96 132 27 35 50 72 50 82 0 10
9 26 20 35 11 10 20 20 20 24 0 3 25 47 55 97 30 50 55 96 55 101 0 5 6 22 14
38 28 57 56 120 56 129 0 5 9 20 20 34 11 14 20 35 20 46 0 12 6 27 14 33 8 6
17 33 21 58 4 26 13 56 21 67 8 11 14 33 14 49 0 15 6 40 14 55 7 15 17 54 21
87 4 33 11 65 17 72 5 6 19 65 31 130 19 106 22 161 24 526 3 331 1 418 -11
465 -8 31 -18 84 -22 117 -3 33 -13 72 -20 86 -7 15 -18 51 -23 80 -18 97 -39
180 -49 192 -5 7 -12 28 -15 47 -3 19 -21 70 -41 113 -20 42 -36 79 -36 82 0
3 -16 37 -35 76 -19 39 -35 78 -35 86 0 8 -9 26 -20 40 -11 14 -20 33 -20 41
0 9 -10 26 -22 40 -23 23 -69 97 -87 138 -34 76 -310 422 -387 485 -22 19 -56
53 -75 76 -18 24 -51 55 -72 70 -21 16 -62 50 -90 77 -29 27 -77 64 -107 84
-30 19 -75 52 -100 73 -43 35 -118 81 -185 113 -16 7 -61 35 -100 60 -38 26
-81 49 -95 53 -14 3 -36 11 -50 18 -68 34 -122 55 -139 55 -10 0 -26 9 -36 20
-10 11 -28 20 -39 20 -12 0 -31 6 -42 14 -11 8 -38 18 -60 22 -21 4 -53 13
-71 21 -18 7 -46 13 -63 13 -17 0 -43 6 -58 14 -15 8 -54 17 -87 21 -33 4 -65
11 -71 16 -10 8 -51 15 -259 44 -116 16 -522 19 -640 5z m-2445 -2101 c0 -5
-7 -9 -15 -9 -15 0 -20 12 -9 23 8 8 24 -1 24 -14z m5560 -1553 c0 -8 -4 -18
-10 -21 -5 -3 -10 3 -10 14 0 12 5 21 10 21 6 0 10 -6 10 -14z m-863 -1462 c5
-15 -28 -27 -40 -15 -5 5 -6 14 -2 21 8 13 37 9 42 -6z"/>
<path d="M4070 5580 c0 -5 7 -10 15 -10 8 0 15 5 15 10 0 6 -7 10 -15 10 -8 0
-15 -4 -15 -10z"/>
<path d="M1353 5288 c2 -7 10 -13 17 -13 7 0 15 6 18 13 2 7 -5 12 -18 12 -13
0 -20 -5 -17 -12z"/>
<path d="M5314 4625 c-7 -18 12 -45 32 -45 21 0 17 38 -6 50 -16 9 -22 8 -26
-5z"/>
<path d="M3900 4579 c-74 -4 -153 -12 -175 -19 -22 -7 -60 -13 -85 -14 -25 -1
-63 -3 -85 -4 l-40 -2 32 -20 c19 -11 40 -17 50 -13 14 5 13 2 -4 -17 -20 -21
-25 -22 -53 -10 -23 9 -34 10 -42 2 -8 -8 -7 -13 5 -18 26 -9 20 -22 -12 -29
-16 -3 -37 -17 -45 -31 -9 -13 -25 -24 -36 -24 -11 0 -24 -9 -30 -20 -6 -11
-19 -20 -28 -20 -21 0 -87 -66 -96 -96 -4 -12 -19 -27 -35 -34 -20 -8 -32 -23
-40 -49 -6 -21 -19 -45 -30 -55 -10 -10 -17 -25 -14 -35 3 -12 -4 -25 -18 -35
-33 -23 -49 -20 -49 9 0 15 -6 25 -14 25 -24 0 -27 -16 -6 -35 16 -14 20 -30
19 -74 -1 -46 -3 -50 -8 -22 -8 43 -33 61 -61 44 -23 -15 -25 -11 -35 46 -4
25 -23 73 -42 108 -28 50 -38 61 -48 53 -10 -9 -16 -6 -26 12 -6 13 -21 33
-32 45 -11 12 -17 29 -14 37 5 12 0 15 -16 13 -16 -1 -23 4 -25 19 -4 31 -86
112 -119 119 -51 11 -78 30 -76 53 2 18 -2 22 -28 22 -17 0 -44 8 -60 17 -23
14 -32 15 -51 4 -29 -15 -83 1 -75 23 4 10 -15 15 -85 20 -189 13 -332 1 -395
-32 -12 -7 -31 -12 -42 -12 -20 0 -69 -28 -123 -69 -14 -12 -40 -21 -56 -21
-24 0 -39 -10 -68 -46 -30 -36 -43 -45 -61 -41 -18 3 -27 -2 -39 -24 -11 -22
-22 -29 -45 -29 -18 0 -28 -4 -24 -10 4 -6 11 -8 16 -5 5 4 12 -1 15 -10 7
-17 -25 -52 -68 -74 -35 -18 -79 -118 -57 -131 7 -5 10 -13 5 -17 -5 -4 -11
-2 -13 5 -3 6 -11 12 -19 12 -16 0 -20 -45 -4 -55 13 -8 13 -25 0 -25 -5 0
-10 7 -10 15 0 11 -11 15 -40 15 -33 0 -40 -3 -40 -19 0 -13 8 -21 23 -23 28
-4 37 -58 13 -78 -9 -7 -16 -26 -16 -42 0 -18 -6 -31 -17 -35 -26 -10 -33 -23
-33 -69 0 -50 -20 -156 -31 -169 -12 -13 -11 -273 1 -375 8 -66 15 -88 30 -99
16 -11 20 -25 20 -72 0 -38 5 -63 15 -73 8 -8 15 -28 15 -45 0 -19 7 -34 19
-40 10 -6 22 -26 25 -45 4 -19 15 -45 25 -57 10 -13 28 -52 41 -86 12 -34 28
-64 35 -67 17 -6 65 -94 65 -117 0 -13 7 -19 23 -19 13 0 28 -5 35 -12 15 -15
16 -80 0 -96 -18 -18 0 -28 25 -13 18 12 22 12 26 0 2 -8 28 -39 56 -69 29
-30 55 -63 58 -72 4 -10 11 -18 17 -18 5 0 10 -11 10 -24 0 -21 5 -24 27 -23
21 2 28 -4 34 -27 5 -16 29 -51 55 -77 40 -41 46 -52 41 -77 -8 -38 -1 -44 32
-27 33 16 69 3 87 -32 20 -41 103 -124 139 -139 23 -9 33 -19 29 -29 -10 -24
6 -38 21 -19 11 16 13 16 29 -8 9 -14 27 -30 40 -36 12 -5 31 -26 40 -46 9
-20 20 -36 25 -36 4 0 21 -13 37 -30 22 -22 38 -30 67 -30 27 0 39 -5 43 -17
16 -51 28 -64 51 -58 19 4 22 2 20 -16 -1 -16 5 -24 25 -30 15 -4 53 -30 85
-58 32 -28 72 -59 89 -69 85 -47 106 -65 100 -85 -4 -18 -1 -19 55 -13 60 7
77 -3 42 -23 -16 -8 -12 -12 22 -27 68 -29 155 -30 226 -4 33 13 63 29 66 36
6 17 117 84 138 84 1 0 5 -13 8 -30 4 -16 11 -30 17 -30 16 0 11 48 -6 58 -24
13 -8 51 24 58 15 4 44 18 64 31 31 21 41 23 53 13 20 -17 45 3 45 36 0 17 6
24 19 24 31 0 51 11 51 29 0 9 14 32 30 51 27 33 30 34 60 23 42 -16 77 -4 37
12 l-28 11 21 27 c15 18 31 27 51 27 25 0 29 3 24 23 -4 17 0 25 22 35 15 6
37 12 50 12 13 0 23 5 23 12 0 6 7 20 17 30 9 10 21 28 27 41 6 12 21 23 33
25 12 2 25 12 28 23 4 10 14 19 23 19 9 0 44 30 77 67 33 37 99 105 147 153
64 63 85 89 77 97 -6 6 -8 16 -5 22 10 16 34 13 44 -6 6 -10 16 -14 27 -10 12
5 15 14 10 36 -4 21 1 43 22 81 29 54 50 71 62 52 5 -8 14 -7 30 5 22 15 22
17 7 28 -21 16 -10 45 17 42 15 -1 22 6 29 30 5 18 24 45 43 60 37 29 50 54
60 117 4 22 10 35 13 29 4 -6 17 -13 30 -17 18 -6 22 -4 22 13 0 12 -6 30 -12
41 -17 27 3 50 26 30 13 -10 17 -9 22 4 4 9 4 29 1 45 -4 20 0 32 14 44 10 9
19 23 19 31 0 7 6 19 14 25 8 7 17 27 20 46 9 47 23 52 35 13 8 -28 9 -19 10
51 1 73 4 88 23 108 21 22 21 24 4 36 -18 13 -17 18 8 105 29 100 32 127 15
138 -7 4 -9 22 -5 48 4 22 9 79 12 126 6 76 5 83 -9 71 -27 -22 -37 -3 -37 72
0 54 -5 80 -20 105 -26 42 -25 58 1 65 35 9 16 64 -41 118 -27 26 -52 58 -55
72 -4 14 -15 33 -26 43 -10 9 -19 24 -19 33 0 22 -35 77 -73 116 -18 18 -50
53 -72 78 -22 25 -48 46 -58 46 -23 1 -34 30 -16 42 9 6 3 7 -18 3 -25 -5 -33
-2 -42 14 -6 11 -8 28 -5 37 6 14 1 15 -30 10 -37 -7 -46 1 -24 23 9 9 0 12
-40 12 -29 0 -52 4 -52 9 0 5 -17 15 -37 21 -21 7 -56 22 -78 35 -36 20 -73
30 -145 39 -14 1 -86 -1 -160 -5z m174 -74 c11 -8 34 -15 51 -15 18 0 58 -13
91 -29 32 -15 75 -34 94 -41 19 -7 44 -20 55 -29 11 -9 38 -25 60 -36 22 -11
60 -42 85 -69 25 -27 62 -67 83 -89 21 -23 50 -60 64 -84 14 -24 29 -43 34
-43 5 0 9 -8 9 -17 0 -10 9 -31 20 -48 11 -16 20 -37 20 -46 0 -9 7 -22 14
-29 8 -6 20 -28 27 -48 7 -20 18 -43 26 -50 7 -7 13 -28 13 -46 0 -19 6 -49
14 -67 14 -35 29 -192 30 -309 1 -119 -16 -294 -31 -308 -7 -7 -13 -28 -13
-46 0 -46 -48 -159 -119 -281 -17 -27 -30 -56 -30 -63 -1 -7 -17 -35 -36 -62
-19 -27 -35 -54 -35 -60 0 -5 -8 -14 -17 -19 -10 -5 -29 -31 -43 -58 -13 -26
-38 -64 -55 -84 -16 -19 -41 -49 -55 -65 -44 -52 -100 -128 -100 -137 0 -4
-16 -15 -35 -23 -19 -8 -35 -20 -35 -27 0 -39 -590 -584 -635 -587 -5 0 -37
-25 -70 -55 -33 -30 -84 -69 -112 -86 -29 -17 -56 -36 -60 -44 -9 -16 -79 -65
-93 -65 -5 0 -24 -13 -42 -28 -31 -26 -52 -41 -115 -83 -53 -35 -142 -29 -203
14 -14 9 -63 42 -110 73 -47 31 -99 69 -115 85 -17 16 -38 29 -47 29 -10 0
-21 6 -25 13 -4 7 -37 35 -71 62 -35 28 -82 65 -105 83 -22 18 -57 42 -78 52
-20 11 -45 30 -55 43 -11 13 -60 59 -111 101 -50 43 -99 88 -108 102 -8 13
-20 24 -26 24 -6 0 -51 43 -102 95 -50 52 -97 95 -104 95 -7 0 -18 10 -24 23
-7 12 -46 59 -88 105 -75 82 -144 169 -178 226 -10 16 -41 57 -68 90 -28 34
-61 85 -74 115 -13 30 -32 67 -42 83 -10 15 -28 41 -39 58 -11 16 -20 36 -20
43 0 8 -7 20 -15 27 -8 7 -15 20 -15 30 0 10 -7 31 -15 46 -8 16 -15 42 -15
57 0 15 -7 42 -17 60 -9 18 -19 59 -24 92 -4 33 -14 80 -23 104 -22 58 -15
309 9 327 11 8 15 29 15 73 0 42 6 73 20 98 11 21 20 50 20 65 0 14 6 39 14
55 8 15 26 54 40 86 15 31 31 57 36 57 5 0 12 11 16 25 3 13 12 29 20 36 8 6
14 20 14 30 0 25 205 230 255 254 22 11 52 28 67 38 70 46 148 81 203 90 140
24 415 7 455 -27 8 -8 49 -30 90 -49 70 -33 86 -43 142 -89 12 -10 24 -18 28
-18 3 0 43 -42 89 -92 45 -51 91 -103 102 -114 10 -12 19 -31 19 -42 0 -12 4
-23 9 -26 10 -7 51 -87 51 -101 0 -4 9 -26 19 -49 48 -104 61 -150 61 -218 0
-38 -5 -79 -11 -90 -8 -16 -8 -24 4 -35 18 -18 39 -9 30 14 -4 9 1 19 10 25
21 11 37 70 37 138 0 66 46 208 91 280 49 79 71 112 118 173 29 40 58 74 65
76 6 2 27 20 46 40 45 46 91 81 106 81 7 0 19 6 26 13 32 29 77 55 138 77 89
32 137 41 265 49 61 4 112 8 115 9 3 1 14 -5 24 -13z"/>
<path d="M3500 4090 c0 -5 12 -10 26 -10 14 0 23 4 19 10 -3 6 -15 10 -26 10
-10 0 -19 -4 -19 -10z"/>
<path d="M3331 3853 c0 -25 1 -26 9 -8 12 27 12 35 0 35 -5 0 -10 -12 -9 -27z"/>
<path d="M4012 3663 c-12 -2 -30 -17 -39 -31 -9 -15 -37 -48 -62 -74 -25 -26
-54 -55 -63 -65 -9 -10 -81 -82 -160 -160 -79 -78 -150 -150 -159 -160 -9 -10
-25 -25 -35 -34 -10 -9 -65 -63 -121 -120 -56 -57 -120 -117 -142 -133 -23
-17 -41 -33 -41 -36 0 -3 -32 -39 -71 -79 -67 -70 -72 -73 -95 -60 -13 7 -49
40 -80 73 -30 34 -65 72 -78 86 -12 14 -51 51 -85 83 -53 49 -65 56 -82 46
-11 -5 -23 -17 -26 -26 -3 -8 -53 -60 -111 -116 -180 -175 -184 -180 -156
-222 18 -27 90 -88 117 -98 9 -3 17 -11 17 -18 0 -10 36 -61 61 -84 5 -5 18
-18 27 -27 9 -10 21 -18 27 -18 6 0 36 -28 66 -62 30 -34 72 -78 93 -97 22
-20 51 -49 65 -66 47 -55 146 -145 159 -145 13 0 352 338 352 351 0 5 9 13 21
20 24 12 459 448 459 460 0 3 16 18 34 33 19 14 70 61 114 104 43 42 138 134
210 204 80 77 132 135 132 146 0 13 -24 37 -65 67 -36 27 -65 52 -65 56 0 4
-33 41 -73 81 -40 40 -80 85 -90 101 -10 15 -21 26 -25 26 -4 -1 -17 -4 -30
-6z m19 -106 c-13 -13 -26 -3 -16 12 3 6 11 8 17 5 6 -4 6 -10 -1 -17z m-11
-38 c0 -8 12 -10 34 -6 31 5 39 1 75 -38 21 -23 47 -57 55 -74 9 -17 23 -31
31 -31 8 0 15 -4 15 -10 0 -5 -9 -10 -21 -10 -29 0 -21 -32 11 -41 23 -7 24
-7 3 -8 -14 -1 -28 -12 -37 -30 -9 -16 -24 -31 -36 -34 -13 -3 -20 -13 -20
-31 0 -15 -8 -31 -20 -38 -11 -7 -20 -21 -20 -30 0 -12 -8 -18 -24 -18 -18 0
-40 -18 -78 -61 -29 -33 -70 -69 -91 -80 -21 -11 -41 -27 -44 -36 -6 -15 -67
-78 -144 -150 -19 -17 -54 -53 -80 -80 -25 -26 -69 -70 -98 -97 -29 -27 -57
-60 -60 -74 -4 -15 -17 -29 -28 -32 -21 -5 -44 -24 -106 -89 -58 -61 -115
-116 -151 -146 -19 -16 -40 -42 -47 -58 -8 -20 -17 -26 -30 -22 -13 4 -28 -4
-50 -29 -34 -40 -64 -49 -54 -16 9 28 -17 69 -69 113 -45 37 -66 46 -66 26 0
-5 -5 -7 -10 -4 -6 3 -7 18 -4 33 4 19 3 23 -4 13 -12 -17 -40 -8 -49 15 -3 9
0 20 8 26 10 7 6 8 -14 4 -33 -8 -50 0 -40 17 4 7 8 26 9 44 1 26 -3 32 -26
37 -15 3 -41 16 -58 30 -34 29 -52 33 -52 11 0 -8 -5 -15 -11 -15 -8 0 -10 16
-5 50 4 32 3 50 -4 50 -5 0 -10 -9 -10 -20 0 -11 -3 -20 -8 -20 -10 0 -32 73
-32 106 l0 25 -29 -20 c-35 -25 -41 -26 -41 -6 0 20 94 115 114 115 8 0 22 13
30 29 16 30 71 81 87 81 5 0 24 -16 41 -36 18 -20 49 -47 70 -61 22 -13 43
-35 48 -49 5 -13 21 -29 34 -34 13 -5 27 -14 31 -19 3 -6 14 -11 23 -11 10 0
34 -12 55 -26 31 -20 41 -23 53 -14 8 7 14 19 14 26 0 8 10 14 24 14 17 0 39
17 72 57 61 70 106 113 119 113 6 0 16 -5 23 -12 9 -9 12 -5 12 19 0 34 28 67
98 115 23 16 42 34 42 39 0 18 101 109 120 109 11 0 19 10 23 29 4 18 33 56
78 100 55 55 78 71 100 71 31 0 36 9 18 27 -9 9 0 23 34 57 48 49 89 62 80 26
-7 -26 10 -26 47 2 37 27 38 38 5 38 -29 0 -30 3 -9 35 17 26 44 34 44 14z"/>
<path d="M3360 2590 c0 -32 14 -40 24 -14 10 27 7 44 -9 44 -10 0 -15 -10 -15
-30z"/>
<path d="M1440 4520 c0 -19 3 -21 12 -12 9 9 9 15 0 24 -9 9 -12 7 -12 -12z"/>
<path d="M3417 4514 c-11 -11 3 -24 18 -18 8 4 12 10 9 15 -6 11 -18 12 -27 3z"/>
<path d="M4455 4510 c-3 -5 3 -10 14 -10 12 0 21 5 21 10 0 6 -6 10 -14 10 -8
0 -18 -4 -21 -10z"/>
<path d="M3400 4450 c0 -5 9 -10 21 -10 11 0 17 5 14 10 -3 6 -13 10 -21 10
-8 0 -14 -4 -14 -10z"/>
<path d="M4980 3376 c0 -10 9 -16 21 -16 24 0 21 23 -4 28 -10 2 -17 -3 -17
-12z"/>
<path d="M146 3242 c-4 -13 -5 -26 -2 -29 10 -11 18 4 14 29 l-4 23 -8 -23z"/>
<path d="M4448 2249 c-22 -12 -24 -49 -3 -49 14 0 35 29 35 49 0 14 -10 13
-32 0z"/>
<path d="M1290 1943 c-30 -8 -68 -18 -85 -22 -17 -4 -34 -16 -40 -29 -5 -13
-20 -25 -33 -29 -13 -3 -28 -19 -37 -39 -14 -33 -37 -44 -50 -24 -13 21 -25 8
-25 -28 0 -49 -22 -81 -43 -64 -12 11 -16 7 -20 -20 -14 -81 -19 -226 -8 -232
6 -4 11 -29 11 -55 0 -41 3 -50 21 -54 17 -5 19 -10 13 -42 -7 -38 14 -75 43
-75 7 0 13 -5 13 -11 0 -5 4 -8 9 -5 15 10 41 -5 41 -24 0 -22 68 -70 99 -70
31 0 62 -17 88 -48 20 -23 29 -26 80 -25 32 0 64 -4 71 -10 9 -7 17 -6 29 5
14 14 13 17 -6 23 -11 3 -25 4 -30 1 -11 -7 -41 3 -41 14 0 4 28 10 63 13 81
8 174 42 210 79 16 15 33 28 38 28 14 0 96 132 103 167 4 17 16 42 27 54 25
29 21 64 -6 64 -15 0 -19 6 -17 25 16 157 15 160 -4 160 -15 0 -23 12 -33 45
-10 34 -26 57 -61 86 -44 37 -47 43 -40 70 11 37 -4 46 -25 17 -16 -23 -16
-23 -30 -4 -8 11 -15 23 -15 27 0 4 -12 9 -27 12 -16 3 -59 12 -98 21 -85 19
-114 19 -185 -1z m190 -101 c25 -8 52 -21 61 -29 8 -7 19 -13 23 -13 24 0 99
-82 131 -143 35 -66 36 -73 32 -146 -6 -96 -13 -125 -48 -175 -43 -64 -99
-113 -164 -143 -159 -74 -343 -2 -436 172 -28 53 -31 68 -31 145 0 74 3 92 28
140 43 82 73 118 129 152 90 56 189 70 275 40z m-480 -182 c0 -11 -4 -20 -10
-20 -5 0 -10 9 -10 20 0 11 5 20 10 20 6 0 10 -9 10 -20z"/>
<path d="M1846 1724 c-11 -29 -6 -44 14 -44 22 0 23 3 14 38 -7 26 -19 29 -28
6z"/>
<path d="M2175 1600 c-4 -6 6 -10 22 -10 22 0 25 2 13 10 -19 12 -27 12 -35 0z"/>
<path d="M1857 1563 c-11 -10 -8 -43 3 -43 6 0 10 11 10 25 0 26 -2 29 -13 18z"/>
<path d="M2320 1480 c0 -5 14 -10 31 -10 17 0 28 4 24 10 -3 6 -17 10 -31 10
-13 0 -24 -4 -24 -10z"/>
<path d="M1562 1078 c-19 -19 -14 -30 10 -26 13 2 24 11 26 21 4 20 -18 23
-36 5z"/>
<path d="M1195 1061 c-3 -5 -1 -12 5 -16 12 -7 30 2 30 16 0 12 -27 12 -35 0z"/>
<path d="M1630 991 c0 -5 7 -14 15 -21 13 -10 15 -9 15 9 0 12 -6 21 -15 21
-8 0 -15 -4 -15 -9z"/>
<path d="M5450 965 c0 -8 7 -15 15 -15 8 0 15 7 15 15 0 8 -7 15 -15 15 -8 0
-15 -7 -15 -15z"/>
<path d="M2390 180 c0 -5 6 -10 14 -10 8 0 18 5 21 10 3 6 -3 10 -14 10 -12 0
-21 -4 -21 -10z"/>
<path d="M3278 125 c-12 -19 -20 -83 -11 -88 5 -3 15 -2 22 2 9 6 11 19 4 52
-5 24 -11 39 -15 34z"/>
<path d="M3206 71 c-4 -6 -3 -19 3 -28 9 -17 10 -17 17 0 8 21 -10 45 -20 28z"/>
</g>
</svg>
