<?xml version="1.0" standalone="no"?>
<!DOCTYPE svg PUBLIC "-//W3C//DTD SVG 20010904//EN"
 "http://www.w3.org/TR/2001/REC-SVG-20010904/DTD/svg10.dtd">
<svg version="1.0" xmlns="http://www.w3.org/2000/svg"
 width="600.000000pt" height="600.000000pt" viewBox="0 0 600.000000 600.000000"
 preserveAspectRatio="xMidYMid meet">
<metadata>
Created by potrace 1.10, written by Peter Selinger 2001-2011
</metadata>
<g transform="translate(0.000000,600.000000) scale(0.100000,-0.100000)"
fill="#000000" stroke="none">
<path d="M4710 3600 c-30 -4 -65 -5 -78 -3 -14 3 -31 -2 -42 -12 -15 -13 -30
-16 -62 -12 -24 3 -37 4 -30 1 6 -3 12 -12 12 -20 0 -17 -60 -20 -77 -3 -6 6
-21 8 -34 4 l-22 -7 22 -17 c26 -20 19 -31 -20 -31 -15 0 -30 -4 -34 -9 -10
-17 -121 -98 -143 -105 -22 -7 -52 24 -52 54 0 20 -61 80 -81 80 -9 0 -24 9
-34 20 -10 11 -26 20 -35 20 -10 0 -20 7 -24 15 -8 22 -37 18 -43 -5 -3 -11
-11 -20 -18 -20 -6 0 -20 9 -30 20 -18 20 -46 26 -59 13 -8 -8 -133 -12 -357
-11 -97 0 -117 -3 -122 -16 -10 -25 -27 -19 -27 9 0 20 -5 25 -25 25 -29 0
-33 -17 -7 -36 15 -12 14 -13 -15 -14 -21 0 -37 7 -46 20 -13 19 -14 18 -30
-15 -11 -24 -31 -41 -60 -55 -62 -29 -89 -97 -50 -125 15 -12 16 -18 5 -47 -6
-19 -12 -44 -12 -56 0 -12 -6 -22 -12 -22 -28 1 -57 38 -73 92 -13 44 -64 135
-110 196 -1 1 -22 4 -46 5 -24 2 -57 12 -73 22 -28 19 -28 19 -46 -5 -9 -12
-22 -20 -28 -16 -7 4 -22 1 -34 -6 -13 -7 -27 -11 -32 -10 -32 10 -109 -120
-100 -167 4 -20 1 -30 -10 -34 -9 -4 -16 -16 -16 -27 0 -21 -20 -29 -20 -7 -1
18 -30 -24 -30 -44 0 -9 7 -22 16 -29 18 -15 15 -61 -4 -68 -7 -2 -16 5 -19
17 -9 35 -23 24 -23 -19 0 -22 5 -40 10 -40 7 0 8 -14 4 -37 -9 -50 -32 -103
-44 -103 -5 0 -14 -19 -20 -42 -6 -24 -27 -92 -47 -153 -19 -60 -37 -119 -38
-131 -2 -11 -8 -29 -13 -40 -6 -10 -25 -57 -42 -104 -28 -75 -29 -86 -16 -96
9 -6 16 -18 16 -27 0 -8 18 -29 39 -46 30 -24 49 -31 82 -31 54 0 40 -17 -18
-23 -54 -4 -68 -17 -20 -17 20 0 39 -5 42 -10 4 -6 21 -8 40 -4 27 5 35 2 44
-15 13 -23 41 -29 41 -8 0 7 -5 18 -11 24 -18 18 -1 33 39 33 20 0 55 3 77 7
l40 7 -34 6 c-47 7 -50 26 -6 40 28 9 34 16 30 30 -4 14 0 19 17 22 19 2 23 8
20 36 -1 22 2 32 12 32 7 0 20 10 29 23 14 21 16 21 23 3 5 -13 2 -21 -9 -28
-21 -11 -23 -58 -2 -58 8 0 15 9 15 19 0 25 13 33 38 24 24 -9 152 -114 152
-124 0 -4 -9 -11 -20 -14 -37 -12 -9 -27 41 -23 41 4 50 2 54 -13 7 -22 15
-23 50 -7 21 9 32 8 59 -5 25 -11 36 -13 45 -4 15 15 14 27 -3 27 -8 0 -18 5
-22 12 -5 8 5 9 36 5 38 -5 45 -2 77 29 37 38 53 78 53 134 -1 29 -2 32 -11
18 -20 -35 -29 -17 -29 57 0 48 -4 75 -11 75 -7 0 -9 10 -5 25 3 13 0 39 -8
57 -21 47 -46 133 -46 156 0 10 -7 41 -16 68 -9 27 -18 55 -20 63 -3 10 -7 11
-19 1 -12 -10 -16 -9 -21 3 -3 9 -3 20 0 25 3 6 1 24 -5 42 -9 26 -9 34 2 41
11 6 11 11 1 21 -14 14 -16 114 -2 123 15 9 84 -29 88 -49 4 -16 0 -18 -33
-12 -28 6 -36 4 -33 -6 3 -7 20 -13 39 -13 19 0 39 -4 45 -8 7 -4 28 0 48 8
46 20 47 19 40 -9 -5 -19 0 -27 25 -39 17 -9 31 -11 31 -6 0 5 -4 9 -10 9 -5
0 -10 14 -10 31 0 38 18 35 43 -9 16 -28 18 -63 20 -369 3 -329 3 -339 25
-373 12 -19 22 -37 22 -40 0 -3 14 -11 30 -17 24 -9 30 -17 30 -40 0 -26 5
-30 45 -39 25 -6 48 -7 51 -2 7 11 52 10 59 -2 12 -19 33 -10 77 34 24 24 61
49 80 56 20 8 41 23 48 34 7 14 11 136 13 367 2 325 3 348 21 368 11 12 27 21
36 21 10 0 31 7 46 15 27 14 30 13 38 -6 7 -15 16 -19 32 -15 32 9 47 -16 40
-66 -18 -129 -19 -159 -2 -177 15 -16 15 -19 1 -31 -20 -16 -19 -27 5 -57 11
-14 20 -34 20 -43 0 -10 7 -20 15 -24 20 -7 19 -46 -2 -61 -15 -11 -15 -13 5
-24 12 -6 22 -20 22 -31 0 -12 10 -21 30 -25 31 -7 50 -30 50 -60 0 -13 -6
-15 -30 -10 -37 8 -38 -4 -3 -29 19 -14 30 -16 42 -9 23 14 39 6 56 -28 12
-22 23 -29 45 -29 17 0 30 -5 30 -10 0 -14 131 -74 210 -96 80 -22 206 -26
221 -7 9 10 31 12 86 7 69 -5 77 -4 108 20 19 14 40 26 48 26 23 0 107 40 107
51 0 5 -7 12 -15 15 -22 9 -18 24 5 24 11 0 20 -4 20 -10 0 -5 7 -10 15 -10 8
0 15 7 15 15 0 20 20 19 36 -2 17 -25 29 -10 12 16 -11 18 -10 23 10 37 12 8
29 31 37 50 8 19 21 34 30 34 9 0 18 8 22 18 3 9 15 27 26 39 13 15 18 30 13
46 -7 29 26 77 53 77 13 0 20 10 25 38 10 60 7 82 -9 82 -10 0 -15 -10 -15
-29 0 -34 -15 -49 -24 -25 -10 27 -7 59 9 80 8 10 15 27 15 37 0 10 11 38 25
61 l25 42 -21 22 c-11 12 -30 29 -43 37 -14 10 -26 29 -29 50 -3 19 -15 47
-28 64 -14 19 -20 38 -16 51 8 30 -2 50 -29 60 -12 5 -24 19 -26 32 -2 17 -11
24 -30 26 -30 4 -35 11 -17 29 16 16 2 33 -26 33 -14 0 -29 9 -35 21 -7 11
-26 27 -43 35 -18 9 -43 22 -57 29 -14 8 -40 15 -58 15 -25 0 -35 5 -42 25
-12 30 -45 33 -60 5 -10 -19 -13 -19 -40 -5 -16 8 -38 15 -48 15 -11 0 -25 7
-32 15 -7 8 -15 14 -19 14 -3 -1 -31 -5 -61 -9z m175 -125 c72 -16 131 -37
147 -53 7 -7 17 -12 24 -12 6 0 42 -29 80 -64 51 -46 78 -82 102 -132 19 -38
41 -83 49 -101 23 -48 23 -296 0 -338 -9 -16 -17 -35 -17 -40 0 -17 -36 -82
-67 -123 -75 -99 -166 -162 -287 -200 -64 -20 -271 -22 -336 -3 -109 32 -192
76 -250 131 -33 30 -110 135 -110 149 0 5 -6 22 -14 38 -28 55 -48 168 -43
239 8 121 31 185 114 314 69 108 197 179 363 202 111 15 149 14 245 -7z
m-2034 -26 c10 -13 19 -40 19 -60 0 -19 5 -40 11 -46 6 -6 15 -29 19 -50 10
-45 27 -97 46 -136 8 -16 14 -39 14 -52 0 -14 6 -39 14 -57 7 -18 21 -60 31
-93 9 -33 23 -75 31 -93 8 -18 14 -43 14 -55 0 -13 7 -32 15 -43 8 -10 15 -30
15 -44 0 -14 7 -36 15 -50 8 -14 14 -34 15 -45 0 -11 7 -33 15 -49 8 -15 15
-38 15 -50 0 -12 9 -38 20 -59 11 -20 20 -43 20 -51 0 -8 7 -19 17 -24 9 -6
14 -16 10 -26 -5 -13 -22 -15 -119 -10 -154 7 -158 8 -158 44 0 16 -8 54 -17
85 l-17 56 -93 -2 c-51 -2 -96 0 -99 4 -4 3 5 42 20 85 14 44 26 87 26 96 0
12 10 16 39 16 49 0 58 12 38 53 -19 39 -45 131 -49 172 -2 25 -8 30 -28 30
-20 0 -26 -5 -28 -30 -4 -39 -42 -167 -53 -179 -5 -6 -9 -20 -9 -32 0 -12 -6
-35 -14 -51 -18 -36 -66 -179 -73 -218 -3 -16 -12 -39 -19 -50 -8 -11 -14 -29
-14 -42 0 -12 -4 -24 -9 -27 -5 -3 -57 -7 -117 -10 -122 -4 -147 4 -116 38 20
22 80 177 89 231 3 17 12 39 19 50 8 11 14 29 14 41 0 12 7 35 15 50 8 16 15
38 15 50 0 11 7 29 15 40 8 10 15 29 15 41 0 12 6 37 14 55 21 51 37 99 46
138 10 45 28 97 46 133 8 16 14 38 14 50 1 12 7 33 15 47 8 14 14 38 15 53 0
15 9 44 19 65 l19 37 82 -1 c75 -1 85 -4 101 -25z m1214 -92 c0 -65 -4 -112
-11 -118 -6 -5 -69 -4 -150 1 -123 9 -140 8 -151 -6 -7 -9 -10 -28 -7 -43 2
-14 6 -195 8 -401 3 -206 6 -386 8 -400 l3 -25 -130 -6 c-71 -3 -135 -4 -142
-2 -8 3 -10 20 -5 56 4 29 7 228 7 442 l0 390 -95 -4 c-52 -2 -116 -7 -142
-11 -29 -4 -51 -3 -58 4 -13 13 -14 233 0 238 5 2 202 1 437 -2 l428 -5 0
-108z m95 -56 c0 -11 -4 -23 -10 -26 -6 -4 -10 5 -10 19 0 14 5 26 10 26 6 0
10 -9 10 -19z m-86 -152 c-12 -14 -21 -16 -28 -9 -8 8 -4 17 14 30 30 22 40 7
14 -21z m-484 -870 c0 -5 -9 -9 -20 -9 -22 0 -27 16 -7 23 15 5 27 -1 27 -14z"/>
<path d="M4617 3238 c-136 -47 -223 -209 -191 -355 23 -109 81 -189 169 -233
58 -29 227 -29 285 1 128 67 212 253 165 366 -8 19 -15 44 -15 54 0 9 -7 24
-15 33 -8 8 -15 18 -15 23 -1 16 -66 72 -110 93 -25 12 -53 26 -62 31 -30 16
-149 9 -211 -13z m165 -97 c-2 -8 7 -24 19 -37 24 -25 39 -31 39 -14 0 6 -7
10 -16 10 -21 0 -14 34 8 38 9 2 19 -5 23 -17 3 -12 15 -21 26 -21 11 0 23 -8
26 -17 4 -10 16 -31 29 -48 18 -25 21 -39 17 -88 -4 -43 -11 -62 -24 -70 -23
-14 -25 -55 -4 -71 10 -8 12 -15 5 -26 -8 -13 -11 -11 -16 8 -7 26 -52 31 -59
7 -17 -52 -15 -52 -39 -22 -12 15 -31 27 -41 27 -19 -1 -19 -1 -2 -11 9 -5 17
-22 17 -36 0 -24 -2 -25 -32 -17 -18 4 -54 8 -80 8 -29 1 -48 6 -48 13 0 19
-66 53 -79 40 -13 -13 -13 -5 -2 45 6 27 5 42 -5 55 -18 24 -17 44 1 79 8 16
15 39 15 52 0 14 18 40 46 67 37 35 52 43 73 39 14 -2 37 2 51 10 30 17 56 15
52 -3z"/>
<path d="M4860 3011 c0 -17 24 -51 36 -51 14 0 1 51 -16 60 -17 9 -20 8 -20
-9z"/>
<path d="M4822 2845 c-10 -21 -9 -27 3 -32 20 -7 24 -3 27 27 4 32 -16 36 -30
5z"/>
<path d="M1422 3554 c-29 -24 -61 -44 -71 -44 -10 0 -26 -11 -35 -25 -22 -34
-46 -33 -46 3 0 30 9 47 27 53 8 2 9 9 4 18 -7 10 -13 11 -30 2 -26 -14 -30
-81 -6 -101 8 -7 15 -23 15 -37 0 -21 -4 -24 -36 -21 -23 2 -39 -2 -41 -9 -3
-8 4 -13 16 -13 12 0 21 -6 21 -15 0 -8 -4 -15 -10 -15 -5 0 -10 -18 -10 -41
0 -39 -1 -41 -25 -35 -28 7 -32 -5 -15 -50 6 -15 8 -34 5 -42 -9 -25 -54 34
-61 81 -4 23 -11 47 -16 54 -6 7 -12 38 -14 70 -3 40 -10 63 -24 78 l-21 20
-5 -22 c-4 -13 -10 -20 -15 -17 -12 7 -11 54 1 54 12 0 13 10 2 28 -7 9 -15
10 -35 3 -19 -8 -28 -6 -38 5 -8 10 -22 12 -44 8 -27 -5 -36 -2 -48 17 -13 17
-27 23 -66 25 -36 2 -51 -2 -55 -12 -7 -17 -88 -54 -119 -54 -21 0 -22 -3 -18
-81 3 -79 3 -81 -18 -74 -22 7 -30 -9 -10 -21 17 -10 47 -88 74 -192 14 -53
34 -109 45 -125 16 -20 19 -36 15 -61 -7 -37 10 -59 20 -26 4 11 11 18 16 15
17 -11 9 -42 -17 -70 -14 -15 -23 -34 -20 -42 7 -17 26 -8 26 13 0 8 7 14 15
14 8 0 15 5 15 10 0 6 5 10 12 10 9 0 9 -3 0 -12 -7 -7 -12 -27 -12 -45 0 -18
-3 -33 -7 -33 -10 0 -45 -61 -39 -68 8 -7 33 21 40 46 4 12 11 22 16 22 17 0
31 -41 25 -71 -5 -20 -2 -36 7 -47 8 -9 25 -42 38 -72 13 -30 39 -76 57 -101
18 -26 33 -54 33 -62 0 -9 8 -20 18 -26 11 -6 17 -22 17 -47 0 -34 3 -38 33
-46 22 -6 32 -15 32 -27 0 -29 11 -51 25 -51 7 0 20 -11 29 -25 20 -31 44 -32
48 -3 2 18 9 22 28 20 32 -3 37 -3 88 4 56 8 54 23 -3 21 -24 -1 -50 4 -57 11
-9 9 -4 12 29 12 46 0 133 50 133 75 0 20 22 65 31 65 17 0 20 -61 5 -91 -15
-29 -14 -30 2 -18 9 7 19 14 21 16 9 5 10 122 1 128 -30 18 9 110 47 110 13 0
19 9 21 30 2 17 6 37 9 45 8 19 26 -72 24 -123 -1 -44 20 -58 48 -33 10 9 21
13 24 9 11 -10 8 -51 -3 -58 -19 -12 -10 -48 25 -90 28 -35 39 -41 60 -37 23
4 25 2 20 -19 -3 -14 0 -32 8 -42 13 -18 14 -18 44 7 38 32 45 33 38 3 -4 -15
-1 -28 8 -36 12 -9 21 -7 45 14 16 14 33 25 38 25 4 0 27 10 52 21 52 25 112
85 112 111 0 10 6 18 13 18 8 0 24 12 38 26 18 19 24 37 25 72 1 67 14 114 33
119 11 3 21 23 28 56 17 82 28 119 48 160 11 23 15 46 11 63 -7 27 10 84 24
84 4 0 10 -14 14 -31 11 -55 26 -20 23 57 -2 63 1 77 16 85 12 7 17 22 17 51
0 38 2 40 25 36 33 -7 40 6 21 34 -20 29 -21 77 -1 84 11 5 14 19 12 58 -2 28
0 59 5 69 7 14 3 19 -19 28 -30 11 -72 56 -73 76 0 14 -39 37 -48 29 -3 -3 0
-6 6 -6 15 0 15 -27 0 -36 -6 -4 -22 7 -38 26 -24 29 -29 31 -50 20 -18 -10
-27 -9 -47 1 -24 13 -27 11 -52 -19 -33 -39 -37 -39 -45 -7 -4 15 -11 23 -17
19 -6 -3 -8 -17 -5 -30 7 -25 -15 -70 -27 -57 -4 3 -7 19 -7 35 0 18 -5 28
-15 28 -11 0 -15 -11 -15 -40 0 -29 -4 -40 -15 -40 -21 0 -19 -26 3 -35 15 -6
15 -8 -5 -25 -13 -10 -23 -23 -23 -29 0 -6 -6 -20 -12 -31 -10 -16 -10 -24 0
-40 12 -20 16 -50 7 -50 -3 0 -19 14 -36 31 -17 17 -33 29 -36 26 -3 -3 2 -27
11 -53 18 -53 20 -92 7 -113 -7 -11 -12 -4 -20 26 -6 23 -18 44 -26 47 -8 3
-15 16 -15 28 0 30 -26 68 -46 68 -12 0 -14 7 -9 29 8 38 -30 119 -59 123 -24
3 -35 46 -15 59 8 4 10 12 5 16 -5 4 -11 2 -13 -4 -5 -15 -51 -17 -73 -3 -8 5
-15 19 -15 32 0 30 -29 30 -33 1 -4 -28 -32 -31 -32 -4 0 33 -13 30 -68 -15z
m-587 -84 l110 0 18 -63 c10 -34 23 -75 28 -92 6 -16 14 -44 18 -60 4 -17 13
-40 19 -52 7 -12 12 -30 12 -40 0 -10 7 -31 15 -47 8 -15 15 -37 15 -48 0 -10
6 -31 14 -46 7 -15 19 -50 26 -78 12 -46 11 -57 -9 -115 -12 -35 -26 -81 -30
-101 -5 -21 -13 -43 -18 -50 -6 -7 -13 -33 -17 -56 -8 -53 -31 -112 -44 -112
-12 0 -42 89 -42 122 0 13 -6 32 -14 43 -7 11 -16 34 -19 50 -6 35 -33 112
-47 137 -6 10 -10 27 -10 39 0 11 -6 33 -14 47 -16 33 -35 85 -46 131 -5 18
-13 38 -19 44 -6 6 -11 22 -11 37 0 14 -7 38 -15 54 -8 15 -15 36 -15 45 0 10
-7 26 -15 37 -8 10 -15 28 -15 39 0 11 -9 34 -20 50 -20 30 -26 75 -13 89 4 4
17 5 28 2 11 -3 70 -6 130 -6z m760 -30 c8 -16 15 -42 15 -57 1 -15 7 -39 15
-53 8 -14 14 -33 15 -43 0 -11 6 -33 13 -50 24 -55 39 -101 47 -140 4 -21 13
-44 19 -50 6 -6 11 -23 11 -37 0 -14 7 -36 16 -48 25 -36 15 -107 -33 -219 -7
-17 -13 -39 -13 -48 0 -9 -5 -26 -11 -37 -6 -11 -14 -41 -18 -67 -5 -40 -9
-46 -32 -49 -25 -3 -27 0 -32 45 -4 26 -16 82 -28 123 -11 41 -23 91 -26 110
-3 19 -10 41 -17 49 -6 8 -13 39 -16 70 -5 51 -7 56 -29 56 -21 0 -26 -7 -37
-55 -20 -89 -41 -158 -70 -228 -8 -18 -14 -40 -14 -50 0 -9 -7 -26 -15 -36 -8
-11 -15 -32 -15 -46 0 -14 -4 -30 -8 -35 -13 -15 -52 -138 -52 -163 0 -14 -6
-22 -17 -22 -10 0 -62 -2 -115 -4 -53 -1 -103 1 -110 5 -13 8 -12 12 49 131 7
14 13 35 13 45 0 11 7 28 15 39 8 10 15 30 15 44 0 14 7 36 15 50 8 14 14 35
15 47 0 12 6 34 14 50 7 15 20 51 28 78 39 133 52 173 63 205 7 19 21 62 30
95 10 33 24 72 31 87 8 14 14 37 14 50 1 12 7 34 15 48 8 14 14 35 15 48 0 12
9 39 19 60 l19 37 86 -3 c84 -3 87 -4 101 -32z m713 11 c2 -13 -5 -45 -16 -70
-31 -71 -69 -178 -81 -226 -4 -17 -13 -39 -18 -50 -6 -11 -19 -47 -28 -80 -10
-33 -24 -72 -31 -87 -8 -14 -14 -33 -14 -42 0 -9 -4 -24 -9 -34 -9 -17 -34
-89 -51 -147 -14 -49 -32 -98 -46 -127 -8 -14 -14 -37 -14 -50 0 -12 -7 -32
-15 -42 -8 -11 -15 -31 -15 -45 0 -14 -8 -41 -18 -60 l-17 -34 -127 0 c-70 -1
-130 1 -133 5 -3 3 1 18 9 34 29 58 59 136 76 199 5 17 14 46 21 65 6 19 17
51 24 70 7 19 18 51 25 70 6 19 16 51 20 70 8 33 15 55 41 133 6 17 14 46 16
64 3 18 11 38 19 44 8 6 14 23 14 38 1 14 7 37 15 51 8 14 15 36 15 50 0 14 7
34 15 44 8 11 15 29 15 40 1 12 9 46 20 76 l19 55 113 6 c155 7 152 8 156 -20z
m-1030 -113 c-3 -7 -11 -13 -18 -13 -7 0 -15 6 -17 13 -3 7 4 12 17 12 13 0
20 -5 18 -12z m352 -933 c0 -8 -4 -15 -10 -15 -5 0 -10 7 -10 15 0 8 5 15 10
15 6 0 10 -7 10 -15z m-492 -132 c2 -8 -5 -13 -17 -13 -21 0 -35 13 -24 24 10
10 36 3 41 -11z"/>
<path d="M652 3579 c2 -6 8 -10 13 -10 5 0 11 4 13 10 2 6 -4 11 -13 11 -9 0
-15 -5 -13 -11z"/>
<path d="M1165 3580 c-8 -12 20 -24 35 -15 6 3 8 11 5 16 -8 12 -32 12 -40 -1z"/>
<path d="M1370 3575 c0 -8 7 -15 15 -15 8 0 15 7 15 15 0 8 -7 15 -15 15 -8 0
-15 -7 -15 -15z"/>
<path d="M2326 3581 c-3 -5 1 -12 9 -15 9 -3 20 -17 25 -31 12 -32 30 -33 30
-1 0 14 -10 30 -25 40 -28 19 -32 19 -39 7z"/>
<path d="M2650 3581 c0 -11 26 -22 34 -14 12 12 5 23 -14 23 -11 0 -20 -4 -20
-9z"/>
<path d="M2807 3584 c-8 -8 1 -24 14 -24 5 0 9 7 9 15 0 15 -12 20 -23 9z"/>
<path d="M3115 3551 c-3 -5 -2 -12 3 -15 13 -8 53 5 46 15 -7 12 -41 12 -49 0z"/>
<path d="M1130 3487 c0 -7 7 -22 15 -33 12 -16 14 -17 15 -2 0 23 -11 48 -21
48 -5 0 -9 -6 -9 -13z"/>
<path d="M550 3462 c0 -5 7 -17 15 -28 13 -16 16 -17 25 -4 17 25 11 40 -15
40 -14 0 -25 -4 -25 -8z"/>
<path d="M500 3371 c0 -12 6 -21 16 -21 9 0 14 7 12 17 -5 25 -28 28 -28 4z"/>
<path d="M1137 3354 c-11 -11 -8 -44 3 -44 15 0 24 30 13 41 -5 5 -12 6 -16 3z"/>
<path d="M2462 3336 c1 -10 8 -17 13 -17 15 1 12 24 -3 29 -9 3 -13 -2 -10
-12z"/>
<path d="M3020 3334 c0 -9 5 -14 12 -12 18 6 21 28 4 28 -9 0 -16 -7 -16 -16z"/>
<path d="M5416 3191 c-3 -5 1 -14 9 -21 12 -10 15 -10 15 3 0 19 -16 31 -24
18z"/>
<path d="M2334 3084 c3 -9 6 -21 6 -27 0 -16 20 14 20 31 0 6 -7 12 -16 12
-11 0 -14 -5 -10 -16z"/>
<path d="M4070 2694 c0 -31 23 -28 28 4 2 15 -2 22 -12 22 -11 0 -16 -9 -16
-26z"/>
<path d="M4110 2405 c0 -9 5 -15 11 -13 6 2 11 8 11 13 0 5 -5 11 -11 13 -6 2
-11 -4 -11 -13z"/>
<path d="M2124 2395 c-7 -18 3 -35 22 -35 15 0 17 9 8 34 -8 20 -23 21 -30 1z"/>
<path d="M2053 2379 c-17 -6 -23 -16 -23 -40 0 -37 19 -35 38 5 17 35 12 46
-15 35z"/>
<path d="M3347 2383 c-12 -11 -8 -23 8 -23 8 0 15 7 15 15 0 16 -12 20 -23 8z"/>
<path d="M2130 2315 c0 -8 5 -15 10 -15 6 0 10 7 10 15 0 8 -4 15 -10 15 -5 0
-10 -7 -10 -15z"/>
<path d="M950 2290 c0 -5 7 -10 15 -10 8 0 15 5 15 10 0 6 -7 10 -15 10 -8 0
-15 -4 -15 -10z"/>
<path d="M1981 2291 c-8 -5 -11 -16 -7 -26 6 -15 9 -16 28 -3 12 8 24 20 26
26 4 14 -27 16 -47 3z"/>
<path d="M3408 2278 c9 -9 15 -9 24 0 9 9 7 12 -12 12 -19 0 -21 -3 -12 -12z"/>
<path d="M1910 2250 c0 -11 4 -20 9 -20 13 0 32 26 24 33 -13 14 -33 6 -33
-13z"/>
<path d="M2080 2246 c0 -8 7 -16 15 -20 10 -4 15 1 15 14 0 11 -7 20 -15 20
-8 0 -15 -6 -15 -14z"/>
<path d="M3757 2234 c-9 -10 2 -24 19 -24 8 0 14 7 14 15 0 15 -21 21 -33 9z"/>
<path d="M1887 2213 c-12 -11 -8 -23 8 -23 8 0 15 7 15 15 0 16 -12 20 -23 8z"/>
<path d="M1995 2200 c-3 -5 3 -10 14 -10 12 0 21 5 21 10 0 6 -6 10 -14 10 -8
0 -18 -4 -21 -10z"/>
<path d="M2395 2169 c-10 -15 3 -25 16 -12 7 7 7 13 1 17 -6 3 -14 1 -17 -5z"/>
</g>
</svg>
