<?xml version="1.0" standalone="no"?>
<!DOCTYPE svg PUBLIC "-//W3C//DTD SVG 20010904//EN"
 "http://www.w3.org/TR/2001/REC-SVG-20010904/DTD/svg10.dtd">
<svg version="1.0" xmlns="http://www.w3.org/2000/svg"
 width="600.000000pt" height="600.000000pt" viewBox="0 0 600.000000 600.000000"
 preserveAspectRatio="xMidYMid meet">
<metadata>
Created by potrace 1.10, written by Peter Selinger 2001-2011
</metadata>
<g transform="translate(0.000000,600.000000) scale(0.100000,-0.100000)"
fill="#000000" stroke="none">
<path d="M1242 4423 c-28 -4 -31 -7 -21 -19 17 -20 12 -23 -73 -37 -72 -13
-138 -47 -138 -71 0 -6 -15 -27 -33 -47 -21 -23 -42 -62 -56 -107 -12 -40 -27
-74 -32 -78 -6 -4 -6 -11 2 -20 9 -11 7 -21 -9 -48 -12 -21 -17 -37 -11 -43
16 -16 -2 -44 -33 -50 -18 -3 -34 -15 -41 -30 -7 -16 -16 -22 -28 -18 -12 4
-20 -3 -27 -25 -6 -16 -17 -30 -25 -30 -11 0 -35 -28 -97 -114 -8 -12 -27 -34
-42 -50 -16 -16 -28 -32 -28 -37 0 -4 -9 -10 -19 -14 -12 -4 -18 -12 -15 -20
3 -8 -8 -31 -25 -52 -17 -21 -31 -42 -31 -48 0 -5 -17 -37 -37 -70 -21 -35
-40 -81 -45 -110 -4 -27 -10 -67 -14 -88 -5 -28 -2 -43 11 -56 12 -14 13 -21
5 -26 -17 -11 -4 -62 24 -96 13 -15 32 -50 41 -76 10 -26 32 -61 50 -78 39
-37 59 -71 45 -80 -15 -9 -12 -36 7 -57 12 -14 14 -21 5 -30 -8 -8 -13 -7 -18
5 -9 25 -33 21 -44 -8 -5 -14 -15 -25 -21 -25 -16 0 -100 -90 -94 -100 3 -5 1
-19 -5 -30 -8 -15 -7 -27 5 -49 19 -39 20 -38 -12 -46 l-28 -7 22 -16 c17 -13
23 -35 32 -103 16 -125 35 -172 95 -235 53 -55 53 -55 122 -58 38 -2 74 0 81
6 15 12 49 -5 58 -29 7 -22 73 -65 86 -57 5 3 24 -3 42 -13 20 -12 49 -19 77
-18 25 1 47 -1 50 -4 11 -13 108 -54 155 -67 86 -23 126 -19 178 21 26 20 50
47 53 60 3 14 11 22 19 19 19 -8 29 15 14 33 -11 13 -10 18 10 34 13 11 29 19
37 19 15 0 44 -38 44 -60 0 -8 7 -28 15 -44 9 -16 17 -42 19 -58 3 -31 45
-107 59 -108 5 0 32 -20 60 -45 32 -28 65 -47 87 -51 19 -3 57 -12 84 -20 27
-8 72 -14 100 -14 38 0 69 -8 121 -34 39 -19 90 -40 114 -47 24 -7 48 -21 55
-31 6 -10 21 -18 32 -18 17 0 21 5 17 20 -6 23 16 27 47 8 16 -10 24 -10 41 0
11 7 29 10 39 7 10 -3 21 -1 24 4 4 6 33 13 65 17 51 5 66 12 110 51 28 24 51
53 51 63 0 9 7 23 15 30 11 9 13 16 5 24 -13 13 -13 43 0 51 10 6 50 -13 62
-30 5 -5 5 5 2 23 -9 44 13 43 53 -3 17 -19 40 -35 51 -35 11 0 25 -6 31 -14
19 -23 134 -56 192 -56 50 0 79 6 159 36 27 9 34 17 33 34 -2 13 1 19 8 14 6
-3 25 7 42 24 18 17 41 32 52 34 11 2 21 8 21 13 8 58 36 69 85 34 23 -16 27
-24 19 -34 -9 -10 -4 -15 19 -20 37 -8 47 -21 31 -40 -10 -12 -9 -15 8 -15 12
0 24 4 27 10 4 6 14 5 27 -3 16 -9 22 -9 25 1 6 16 60 16 66 0 3 -10 9 -8 24
5 11 9 31 17 45 17 14 0 31 7 38 15 7 8 19 15 26 15 8 0 14 6 14 13 0 7 13 26
30 42 l30 28 52 -28 c64 -35 131 -37 241 -5 43 11 94 20 115 18 85 -6 235 29
246 58 7 19 32 18 40 -2 3 -8 11 -12 17 -8 9 5 7 11 -6 20 -26 19 -10 30 19
15 13 -8 29 -10 35 -7 7 5 9 1 4 -11 -5 -15 -3 -16 8 -5 16 15 51 16 67 0 8
-8 19 -5 45 15 31 24 35 24 50 9 21 -20 35 -7 19 18 -16 26 -2 26 48 0 47 -24
54 -25 47 -5 -9 21 9 28 32 13 18 -11 24 -9 49 15 22 22 31 24 41 14 10 -10
16 -8 31 10 14 18 24 22 50 17 17 -4 34 -13 37 -20 7 -18 27 -18 42 0 25 30
127 36 147 8 11 -14 14 -14 37 1 15 9 40 17 56 17 67 0 201 87 201 130 0 25
10 30 31 17 32 -20 32 1 0 33 -17 17 -31 37 -31 44 0 7 -7 27 -16 45 -28 56
-21 159 16 231 8 17 -29 99 -46 100 -6 0 -20 10 -32 23 -11 12 -38 31 -59 42
-21 11 -43 27 -50 35 -16 21 -30 3 -15 -20 16 -26 2 -25 -44 2 -30 17 -40 19
-55 10 -27 -17 -70 -5 -96 27 -18 22 -24 24 -41 14 -16 -9 -26 -9 -46 0 -28
13 -36 47 -11 47 11 0 12 5 5 26 -16 40 -13 56 9 49 14 -4 23 0 30 14 18 33
13 51 -14 51 -31 0 -33 27 -5 60 27 31 25 50 -5 50 -24 0 -25 3 -25 58 0 64
-27 120 -62 130 -18 4 -20 10 -13 56 10 64 8 97 -5 110 -8 8 -14 6 -20 -3 -7
-12 -11 -12 -24 2 -18 17 -21 37 -7 37 5 0 12 -6 14 -12 3 -7 6 1 6 19 1 35
-21 63 -48 63 -10 0 -24 15 -34 34 -36 76 -163 131 -274 120 -35 -3 -82 -8
-105 -10 -24 -1 -77 -10 -118 -18 -41 -8 -86 -15 -100 -16 -14 0 -38 -7 -54
-15 -38 -20 -59 -19 -108 6 -53 27 -135 34 -166 13 -20 -13 -23 -13 -28 0 -3
8 -26 25 -50 36 -24 12 -44 29 -44 37 0 12 -9 15 -44 11 -34 -4 -52 0 -82 18
-44 27 -44 27 -62 16 -16 -11 -5 -42 14 -42 8 0 28 -16 45 -35 17 -19 36 -35
41 -35 6 0 27 -13 48 -30 21 -16 42 -30 48 -30 5 0 15 -7 22 -15 15 -18 86
-20 160 -4 58 12 95 6 104 -16 4 -12 -4 -20 -29 -31 -37 -15 -85 -79 -85 -114
0 -11 11 -38 25 -61 14 -22 23 -44 20 -49 -10 -16 -63 -11 -102 10 -36 19
-123 106 -123 124 0 12 -32 35 -47 36 -9 0 -13 -18 -13 -60 0 -54 -2 -60 -20
-60 -11 0 -23 6 -26 14 -3 8 -13 17 -22 20 -9 3 -29 14 -44 23 -103 69 -147
100 -172 125 -41 39 -49 36 -42 -17 7 -40 5 -45 -12 -45 -11 0 -25 7 -32 15
-7 8 -40 32 -74 52 -33 20 -67 43 -74 50 -7 7 -19 13 -27 13 -7 0 -15 4 -17 8
-4 11 -123 82 -137 82 -6 0 -11 4 -11 8 0 5 -22 19 -50 32 -27 13 -50 27 -50
31 0 4 -12 12 -27 18 -16 5 -73 37 -128 70 -55 34 -110 65 -122 71 -13 5 -23
16 -23 25 0 21 76 21 84 0 3 -8 13 -15 23 -15 10 -1 36 -9 58 -20 22 -11 46
-19 53 -20 7 0 20 -4 30 -9 17 -10 74 -35 147 -66 80 -34 197 -95 247 -128 39
-27 51 -14 44 44 -6 44 -5 49 12 49 18 0 63 -29 87 -56 6 -6 26 -21 45 -34 19
-13 60 -45 91 -72 31 -26 60 -48 64 -48 8 0 -1 128 -11 154 -3 9 -15 16 -25
16 -10 0 -19 4 -19 9 0 5 -12 16 -26 26 -23 15 -30 15 -51 4 -22 -12 -27 -11
-38 4 -7 9 -17 17 -23 17 -5 0 -13 7 -16 16 -5 12 -19 15 -69 13 -35 -1 -69 1
-75 5 -7 4 -19 0 -28 -8 -22 -23 -32 -20 -75 19 -21 19 -51 37 -66 40 -56 12
-92 34 -99 60 -6 25 -28 34 -39 15 -9 -14 -65 -13 -65 1 0 7 8 18 18 25 15 12
11 13 -29 14 -30 0 -51 -5 -59 -15 -17 -20 -60 -12 -112 21 -46 29 -48 29 -48
4 0 -28 -18 -25 -48 7 -22 24 -26 25 -37 10 -17 -23 -26 -21 -55 10 -14 14
-40 32 -57 40 -18 7 -67 33 -109 58 -41 25 -79 45 -84 45 -4 0 -10 7 -14 15
-3 8 -14 15 -25 15 -10 0 -21 8 -24 19 -4 18 -57 36 -57 20 0 -5 -4 -9 -10 -9
-5 0 -7 6 -4 14 4 11 0 13 -17 9 -19 -5 -21 -3 -16 16 4 17 2 21 -12 16 -9 -3
-44 8 -76 25 -32 16 -67 30 -77 30 -10 0 -51 9 -90 20 -40 11 -95 20 -123 20
-27 0 -69 5 -92 10 -50 12 -299 16 -330 6 -12 -4 -37 0 -58 9 -37 15 -56 16
-123 8z m443 -98 c72 -9 155 -21 185 -27 30 -5 78 -14 105 -18 48 -7 97 -21
140 -41 11 -5 31 -13 45 -19 14 -6 39 -19 55 -30 17 -11 37 -23 45 -27 8 -3
31 -18 50 -32 41 -30 67 -47 95 -61 11 -6 34 -19 50 -29 17 -11 66 -38 110
-61 44 -23 107 -57 140 -76 33 -18 67 -37 75 -41 8 -4 34 -20 56 -35 23 -15
44 -28 47 -28 4 0 25 -13 49 -29 24 -16 53 -32 66 -35 12 -4 22 -11 22 -16 0
-4 11 -11 25 -14 14 -4 25 -11 25 -16 0 -6 6 -10 14 -10 8 0 21 -6 28 -14 8
-8 23 -15 33 -17 10 -2 20 -10 23 -16 6 -19 -37 -16 -44 2 -4 8 -14 15 -24 15
-10 0 -25 7 -34 15 -8 8 -20 15 -26 15 -7 0 -24 6 -38 14 -15 8 -63 31 -107
51 -44 21 -116 54 -160 75 -44 21 -102 48 -130 59 -27 12 -62 28 -77 36 -14 8
-35 15 -45 15 -10 0 -23 4 -28 9 -10 10 -77 36 -130 51 -37 10 -90 29 -132 47
-17 7 -42 13 -55 13 -12 1 -34 7 -48 15 -14 8 -41 14 -61 15 -20 0 -50 7 -65
15 -16 8 -45 15 -65 15 -19 0 -40 5 -45 10 -16 16 -239 33 -344 25 -84 -6
-103 -11 -164 -43 -116 -63 -156 -131 -156 -268 l0 -92 -37 -29 c-49 -37 -79
-50 -139 -58 -96 -13 -207 -66 -219 -105 -3 -11 -11 -20 -16 -20 -5 0 -9 -8
-9 -18 0 -10 -7 -27 -15 -38 -10 -14 -14 -48 -15 -128 0 -103 2 -111 31 -167
36 -67 64 -81 104 -55 13 9 34 16 45 16 12 0 31 5 43 12 12 6 65 12 120 12 91
1 100 3 118 25 10 13 19 39 19 58 0 19 5 53 11 77 17 69 -5 108 -75 135 -100
37 -133 25 -151 -57 -10 -48 6 -62 57 -50 84 18 107 -8 70 -81 -21 -43 -44
-50 -148 -42 -68 5 -87 11 -117 34 l-37 28 0 93 c0 109 10 127 89 168 51 27
170 61 254 73 26 4 50 11 53 16 3 5 17 6 32 3 89 -19 118 -32 157 -71 l43 -42
0 -196 0 -195 -46 -40 c-54 -48 -122 -80 -169 -80 -33 0 -67 -11 -141 -49 -18
-9 -71 -55 -118 -103 -55 -56 -95 -89 -114 -93 -16 -4 -32 -11 -35 -16 -4 -5
-39 -9 -79 -9 -68 0 -74 2 -103 33 -16 17 -39 48 -49 67 -10 19 -31 51 -46 71
-16 20 -28 39 -28 42 0 3 -13 26 -30 50 -16 25 -30 53 -30 64 0 10 -7 29 -16
42 -32 45 -2 179 63 281 145 227 229 324 336 389 70 43 110 116 123 231 10 87
37 151 84 200 52 53 115 86 185 96 28 4 59 10 70 15 34 13 234 10 370 -6z m89
-246 c34 -6 79 -15 101 -21 22 -5 64 -13 93 -18 29 -5 58 -13 65 -18 7 -5 34
-12 61 -16 27 -3 54 -10 60 -15 6 -5 30 -12 53 -16 24 -4 45 -11 49 -16 3 -5
15 -9 27 -9 12 0 35 -7 51 -15 15 -8 36 -15 45 -15 10 0 26 -7 37 -15 10 -8
27 -15 37 -15 11 0 31 -6 45 -13 15 -8 42 -21 60 -30 19 -9 42 -17 52 -17 9 0
23 -7 30 -15 7 -8 23 -15 35 -15 12 0 28 -7 35 -15 7 -8 19 -15 27 -15 8 0 27
-6 41 -14 89 -45 159 -76 173 -76 9 0 22 -7 29 -15 7 -8 21 -15 31 -15 9 0 24
-7 33 -15 8 -8 23 -15 34 -15 11 0 25 -7 32 -15 7 -8 23 -15 35 -15 12 0 28
-7 35 -15 14 -17 60 -21 60 -5 0 6 8 10 18 10 16 -1 16 -2 -2 -15 -22 -17 -13
-35 18 -35 13 0 29 -7 36 -15 7 -8 21 -15 31 -15 10 0 20 -4 23 -9 3 -5 25
-19 48 -31 77 -40 153 -82 166 -93 7 -6 32 -20 55 -31 23 -12 60 -33 82 -47
45 -29 120 -74 150 -89 11 -6 34 -19 50 -30 17 -11 41 -25 55 -31 92 -39 75
-110 -22 -90 -53 12 -130 39 -142 52 -6 5 -19 9 -30 9 -12 0 -41 6 -66 14 -25
8 -68 21 -96 30 -29 9 -64 16 -79 16 -15 0 -39 6 -53 14 -15 7 -47 19 -72 25
-25 6 -70 19 -100 27 -30 9 -73 20 -95 23 -22 4 -50 13 -62 19 -12 7 -32 12
-45 12 -21 0 -67 12 -153 42 -16 5 -51 14 -78 18 -26 5 -62 13 -80 19 -58 18
-192 44 -272 54 -19 2 -20 -3 -17 -183 2 -102 8 -237 13 -300 5 -63 14 -257
19 -430 5 -173 14 -362 19 -420 5 -58 11 -175 13 -260 l3 -155 -55 -6 c-30 -4
-68 -12 -83 -18 -16 -6 -44 -11 -62 -11 -19 0 -45 -5 -58 -11 -20 -9 -36 -7
-83 11 -33 12 -68 24 -79 27 -11 3 -33 11 -50 18 -16 7 -39 15 -50 17 -17 3
-20 11 -19 48 1 25 2 360 3 745 2 385 6 733 10 773 4 40 4 78 0 84 -11 18 -37
1 -52 -34 -36 -84 -100 -117 -180 -93 -43 13 -53 13 -90 -1 -75 -29 -109 -28
-140 1 -16 15 -33 37 -38 48 -5 12 -18 36 -28 52 -35 55 -19 142 35 184 22 17
41 21 106 21 74 0 81 -2 103 -27 13 -16 25 -38 25 -49 0 -31 -37 -74 -65 -74
-33 0 -38 14 -15 35 25 23 26 51 1 65 -29 15 -39 13 -66 -15 -30 -29 -33 -75
-7 -98 10 -9 35 -23 56 -32 61 -26 158 -4 206 45 29 30 58 44 115 56 30 7 41
14 43 31 5 34 -10 39 -218 67 -129 18 -173 27 -199 41 -17 8 -41 15 -54 15
-13 0 -32 7 -43 15 -10 8 -29 15 -41 15 -12 0 -24 4 -28 9 -3 6 -26 20 -51 33
-115 57 -182 171 -154 262 23 71 112 145 178 147 15 0 36 4 47 9 29 12 209 12
279 -1z m1448 -481 c-9 -9 -15 -9 -24 0 -9 9 -7 12 12 12 19 0 21 -3 12 -12z
m1624 -24 c25 -17 48 -38 84 -81 5 -7 10 -18 10 -26 0 -7 7 -22 15 -33 8 -10
15 -31 15 -45 0 -15 7 -32 15 -39 8 -7 15 -25 15 -39 0 -15 7 -36 15 -47 8
-10 15 -28 15 -40 0 -11 7 -29 15 -40 8 -10 15 -30 15 -44 1 -14 7 -43 15 -65
8 -22 17 -76 21 -121 6 -80 6 -81 -23 -114 l-30 -34 -89 4 c-188 7 -219 6
-219 -10 0 -8 11 -17 25 -20 l25 -6 6 -299 c3 -165 9 -325 14 -356 4 -38 3
-59 -4 -63 -17 -11 -142 -35 -154 -30 -9 3 -13 97 -15 337 -1 182 -4 342 -7
355 -6 26 -36 30 -56 6 -10 -12 -10 -24 -1 -60 19 -69 14 -124 -13 -169 -37
-60 -39 -65 -23 -78 41 -33 48 -59 48 -174 0 -179 -30 -236 -131 -247 -33 -3
-68 -10 -77 -15 -9 -5 -39 -10 -67 -12 l-50 -4 -11 210 c-7 116 -15 304 -19
420 -7 207 -13 240 -45 250 -22 7 -77 93 -89 140 -6 22 -11 60 -11 85 0 54 -4
59 -55 90 -22 13 -42 27 -45 31 -3 4 -17 12 -30 18 -14 6 -47 24 -75 41 -27
16 -62 35 -77 41 -16 6 -28 15 -28 19 0 4 -11 11 -25 14 -14 4 -25 11 -25 16
0 14 43 13 58 -2 6 -6 30 -15 54 -19 63 -12 160 -38 180 -49 10 -6 35 -10 56
-10 21 0 47 -7 58 -15 10 -8 25 -15 32 -15 15 0 83 -60 141 -124 108 -118 156
-146 251 -146 66 0 113 18 187 73 75 55 87 79 86 162 -2 114 -41 180 -120 205
-74 23 -144 -6 -156 -65 -15 -81 27 -125 82 -86 32 23 39 49 20 68 -6 6 -8 16
-5 22 12 19 50 11 86 -18 33 -28 35 -32 35 -94 0 -62 -1 -66 -41 -106 -23 -22
-45 -41 -50 -41 -4 0 -16 -7 -26 -17 -13 -11 -36 -16 -78 -16 -42 0 -65 5 -78
16 -10 10 -24 17 -31 17 -7 0 -30 14 -51 30 -21 17 -41 30 -45 30 -11 0 -145
133 -145 144 0 5 -7 17 -15 26 -8 9 -18 37 -21 63 -6 39 -3 53 17 82 36 53
165 105 262 105 31 0 68 5 84 11 83 32 251 33 299 3z m-1141 -204 c4 -6 -5
-10 -20 -10 -15 0 -24 4 -20 10 3 6 12 10 20 10 8 0 17 -4 20 -10z m-1017 -34
c26 -13 74 -27 152 -45 19 -5 54 -13 78 -20 l42 -12 1 -342 c0 -313 9 -575 25
-717 6 -59 47 -132 76 -138 24 -5 68 50 88 109 31 98 40 241 40 636 0 264 3
384 11 389 6 3 27 0 47 -8 71 -29 140 -48 170 -48 16 0 34 -6 39 -12 6 -8 11
-188 12 -439 2 -368 0 -432 -13 -464 -9 -21 -16 -48 -16 -60 0 -13 -7 -36 -15
-52 -7 -15 -24 -50 -37 -76 -42 -88 -50 -100 -117 -167 -39 -40 -86 -76 -115
-89 -56 -24 -131 -27 -178 -7 -18 8 -40 17 -48 21 -51 20 -180 136 -180 161 0
7 -7 14 -15 18 -8 3 -15 14 -15 24 0 10 -7 27 -15 38 -8 10 -15 28 -15 39 0
11 -6 38 -14 59 -10 28 -14 99 -15 235 -1 108 -6 259 -12 336 -12 167 -28 627
-22 638 6 11 32 8 61 -7z m-888 -156 c6 -11 15 -80 20 -153 6 -72 14 -150 20
-172 5 -22 10 -65 10 -95 0 -30 7 -90 15 -133 8 -43 15 -106 15 -140 1 -34 7
-91 15 -127 8 -36 15 -94 15 -130 0 -36 7 -96 15 -135 8 -38 15 -95 15 -125 0
-30 7 -86 15 -125 8 -38 15 -85 15 -104 0 -28 -3 -32 -17 -26 -10 4 -27 9 -38
12 -11 3 -33 11 -50 18 -49 21 -97 36 -140 45 -52 11 -85 49 -85 98 0 20 -6
57 -14 82 -8 25 -23 82 -33 127 l-18 83 -42 0 c-23 0 -63 7 -88 16 -26 8 -53
14 -62 12 -17 -3 -43 -69 -43 -111 0 -16 -5 -38 -12 -50 -7 -12 -15 -44 -18
-71 -6 -57 -28 -78 -59 -59 -32 20 -133 53 -163 53 -35 0 -51 26 -34 60 7 14
20 40 29 58 9 19 17 40 17 49 0 8 6 29 13 46 16 39 26 67 77 222 22 66 44 128
50 137 5 10 10 26 10 35 0 10 7 31 15 47 8 15 15 35 15 43 0 8 6 29 13 46 26
61 38 96 71 216 17 60 40 91 66 91 10 0 23 7 30 15 7 8 20 15 30 15 10 0 23 7
30 15 7 8 17 15 23 15 14 0 216 101 223 111 9 15 23 10 34 -11z m1776 -85 c10
-8 28 -14 39 -15 11 0 40 -6 65 -14 25 -8 68 -21 96 -30 29 -9 60 -16 70 -16
39 0 146 -44 183 -76 81 -70 124 -220 106 -374 -7 -57 -11 -65 -60 -114 l-52
-53 18 -34 c10 -19 21 -41 24 -49 6 -14 12 -29 51 -118 8 -20 22 -50 30 -65 8
-16 14 -33 14 -38 0 -4 12 -33 26 -63 38 -81 33 -90 -56 -97 -41 -3 -85 -10
-97 -17 -12 -7 -28 -12 -35 -12 -14 0 -48 73 -48 104 0 10 -6 30 -14 44 -19
37 -37 91 -44 127 -2 17 -11 39 -18 50 -8 11 -14 32 -14 47 0 52 -68 91 -88
51 -10 -20 2 -222 18 -319 5 -33 10 -77 10 -97 0 -36 -1 -37 -36 -37 -20 0
-62 -6 -93 -14 -31 -8 -74 -17 -97 -21 l-41 -6 -1 628 c0 345 2 631 4 635 7
12 18 10 40 -7z m-2266 -151 c0 -9 -6 -28 -14 -42 -20 -39 -62 -155 -76 -210
-4 -18 -12 -38 -18 -45 -5 -7 -12 -25 -15 -42 -4 -26 -17 -67 -67 -210 -6 -16
-20 -59 -31 -95 -12 -36 -27 -81 -34 -100 -23 -62 -45 -138 -45 -159 0 -11 -5
-23 -11 -27 -11 -6 -77 9 -109 26 -9 4 -30 11 -49 15 -18 4 -34 12 -35 18 -26
102 -36 152 -36 181 0 47 -21 47 -43 1 -33 -70 -46 -100 -49 -120 -3 -18 -10
-20 -58 -17 -96 6 -99 11 -119 187 -5 44 -14 92 -19 106 -6 15 -12 57 -14 94
-3 67 -3 67 30 85 19 10 41 25 50 33 9 8 27 16 38 19 20 5 22 1 28 -88 4 -51
4 -108 1 -126 -7 -37 10 -93 25 -83 5 3 12 21 16 40 3 20 10 38 15 41 5 3 9
20 9 39 0 35 41 87 84 106 12 5 29 15 39 21 27 19 36 -4 38 -92 2 -95 10 -134
30 -138 12 -2 18 12 27 60 20 113 40 193 71 283 6 17 13 42 15 56 7 35 43 79
66 79 9 0 23 7 30 15 7 8 17 15 23 15 12 0 69 28 132 65 48 27 75 31 75 9z
m3651 -210 c41 -13 49 -20 73 -72 51 -106 83 -183 88 -207 2 -11 11 -21 21
-23 20 -4 22 21 7 146 -13 115 -4 130 60 97 l30 -16 0 -202 c0 -111 5 -229 10
-262 12 -70 1 -85 -59 -85 -35 1 -37 2 -78 88 -23 48 -45 99 -48 115 -7 28
-32 37 -40 14 -3 -6 -1 -59 4 -117 5 -58 5 -110 0 -115 -8 -11 -157 -41 -163
-34 -2 2 -6 161 -10 352 l-7 349 33 -7 c18 -3 54 -13 79 -21z m383 -89 c11 -8
30 -15 42 -15 12 0 38 -7 57 -15 20 -8 54 -15 76 -15 47 0 61 -18 61 -75 0
-45 -17 -53 -73 -31 -24 9 -53 16 -65 16 -19 0 -22 -5 -22 -45 l0 -44 63 -3
62 -3 0 -40 0 -40 -62 -3 -63 -3 0 -39 c0 -21 4 -41 9 -45 5 -3 28 2 49 10 22
9 57 15 78 13 36 -3 39 -5 45 -41 7 -42 0 -51 -51 -61 -47 -10 -168 -27 -204
-29 l-29 -2 -2 120 c-1 66 -6 184 -10 263 -8 152 -5 161 39 127z m-2624 -821
c0 -16 -16 -19 -25 -4 -8 13 4 32 16 25 5 -4 9 -13 9 -21z"/>
<path d="M2095 3459 c-19 -7 -36 -22 -44 -40 -16 -37 -12 -43 25 -28 42 16
190 16 257 0 70 -17 92 -5 48 26 -44 34 -231 60 -286 42z"/>
<path d="M4292 2930 c6 -18 60 -32 72 -20 14 14 4 20 -39 27 -29 5 -37 3 -33
-7z"/>
<path d="M4397 2913 c-16 -16 -5 -33 21 -33 34 0 43 7 35 26 -5 14 -44 19 -56
7z"/>
<path d="M4493 2883 c-19 -7 -16 -27 7 -48 11 -10 20 -23 20 -30 0 -20 45 -55
71 -55 13 0 30 9 37 20 7 11 22 20 35 20 22 0 54 36 42 48 -3 3 -19 -2 -34
-11 -43 -25 -65 -21 -116 23 -25 22 -47 40 -48 39 -1 0 -8 -3 -14 -6z"/>
<path d="M4347 2663 c-2 -5 -1 -46 2 -93 l6 -85 36 -3 c30 -3 41 2 58 24 36
45 20 137 -26 155 -29 11 -70 12 -76 2z"/>
<path d="M4371 2346 c-7 -9 -11 -42 -9 -88 l3 -73 31 -3 c47 -5 96 47 92 96
-5 57 -87 104 -117 68z"/>
<path d="M1451 2688 c-19 -145 -27 -191 -39 -220 -6 -15 -13 -51 -14 -80 l-3
-53 78 -3 77 -3 0 28 c0 16 -5 44 -11 63 -6 19 -15 85 -19 145 -9 131 -27 215
-44 215 -9 0 -17 -30 -25 -92z"/>
<path d="M3759 2803 c-1 -5 -2 -57 -3 -118 -1 -60 -4 -117 -6 -125 -4 -12 9
-16 74 -18 77 -3 80 -2 102 25 41 49 25 183 -21 183 -7 0 -18 7 -25 15 -7 8
-22 15 -34 15 -12 0 -31 7 -42 15 -21 16 -43 19 -45 8z"/>
<path d="M3832 3756 c1 -10 8 -17 13 -17 15 1 12 24 -3 29 -9 3 -13 -2 -10
-12z"/>
<path d="M5307 2774 c-10 -11 3 -24 24 -24 10 0 19 7 19 15 0 15 -31 21 -43 9z"/>
<path d="M5665 2349 c-10 -15 3 -25 16 -12 7 7 7 13 1 17 -6 3 -14 1 -17 -5z"/>
<path d="M3405 1840 c-3 -5 3 -10 14 -10 12 0 21 5 21 10 0 6 -6 10 -14 10 -8
0 -18 -4 -21 -10z"/>
</g>
</svg>
