 <svg  version="1.0" xmlns="http://www.w3.org/2000/svg"  width="900.000000pt" height="291.000000pt" viewBox="0 0 900.000000 291.000000"  preserveAspectRatio="xMidYMid meet">  <g transform="translate(0.000000,291.000000) scale(0.100000,-0.100000)" fill="#000000" stroke="none"> <path d="M3780 2765 c-129 -8 -287 -19 -350 -25 -63 -7 -162 -15 -220 -19 -58 -4 -111 -11 -118 -15 -8 -4 -55 -12 -105 -17 -51 -5 -150 -18 -222 -29 -71 -12 -160 -25 -196 -29 -36 -4 -72 -12 -80 -17 -8 -4 -36 -11 -64 -15 -27 -4 -95 -17 -150 -29 -55 -12 -120 -25 -145 -29 -25 -4 -52 -11 -60 -16 -8 -5 -32 -12 -55 -16 -22 -4 -76 -17 -120 -29 -44 -12 -96 -25 -115 -30 -19 -4 -51 -14 -70 -20 -65 -23 -115 -38 -147 -45 -18 -4 -35 -11 -38 -16 -4 -5 -18 -9 -33 -9 -15 0 -36 -7 -46 -15 -11 -8 -28 -15 -39 -15 -10 0 -31 -6 -45 -14 -15 -8 -49 -22 -77 -31 -27 -9 -65 -23 -82 -31 -60 -26 -98 -42 -151 -63 -63 -26 -380 -187 -402 -204 -8 -7 -31 -21 -50 -31 -125 -69 -320 -212 -320 -236 0 -16 35 -11 61 8 13 10 31 22 39 25 8 4 33 18 55 31 44 27 254 132 325 163 47 21 107 45 175 70 22 8 54 20 70 27 17 7 77 27 135 46 58 18 120 39 138 46 18 8 42 14 53 14 11 0 29 5 40 11 25 13 157 48 184 49 11 0 33 7 49 15 15 8 41 15 57 15 15 0 43 6 61 14 18 8 78 22 133 31 55 10 121 23 147 31 26 8 62 14 82 14 19 0 47 5 63 11 15 6 53 15 83 19 30 5 123 18 205 30 83 12 186 25 230 29 44 4 112 13 150 19 389 63 1564 78 2060 27 77 -8 165 -15 195 -15 30 0 73 -5 95 -11 22 -6 81 -14 130 -19 50 -4 124 -13 165 -19 41 -6 125 -18 185 -27 61 -8 133 -22 160 -29 28 -8 70 -17 95 -19 59 -6 197 -33 234 -46 16 -6 40 -10 53 -10 14 0 39 -6 56 -14 18 -8 48 -17 67 -19 19 -3 55 -11 80 -17 25 -7 72 -19 105 -27 33 -8 75 -21 93 -29 18 -8 43 -14 57 -14 13 0 36 -6 52 -14 15 -8 57 -22 93 -32 36 -9 75 -23 87 -31 12 -7 33 -13 47 -13 14 0 27 -4 30 -9 3 -4 38 -19 78 -31 40 -13 82 -29 93 -37 11 -7 25 -13 32 -13 13 0 198 -80 233 -101 8 -5 22 -12 30 -15 65 -27 209 -104 285 -153 22 -14 56 -34 75 -44 19 -11 51 -31 70 -46 19 -14 42 -30 51 -36 75 -46 285 -245 352 -333 74 -97 167 -275 167 -321 0 -10 7 -35 15 -54 21 -50 21 -254 0 -304 -8 -19 -15 -44 -15 -55 0 -11 -6 -32 -13 -46 -8 -15 -29 -58 -47 -97 -41 -86 -71 -126 -177 -237 -46 -48 -83 -92 -83 -98 0 -28 47 -5 119 59 13 11 27 21 30 21 3 0 17 10 31 23 14 12 48 40 75 62 82 64 238 225 297 305 48 65 97 156 144 265 7 17 15 48 19 70 4 22 10 60 15 85 9 52 1 208 -12 216 -4 3 -8 22 -8 42 0 20 -7 46 -15 56 -8 11 -15 27 -15 35 0 18 -54 129 -85 176 -42 64 -136 173 -206 240 -109 104 -322 262 -424 314 -11 6 -47 27 -80 46 -33 19 -67 38 -75 41 -24 10 -94 44 -110 54 -8 5 -42 21 -75 35 -33 15 -78 35 -101 46 -22 10 -45 19 -51 19 -6 0 -24 6 -40 14 -54 27 -104 46 -121 46 -9 0 -26 7 -36 15 -11 8 -28 15 -37 15 -10 0 -30 6 -46 14 -27 13 -54 22 -188 61 -33 9 -73 23 -90 30 -16 8 -43 16 -60 18 -16 3 -64 15 -105 27 -41 12 -93 24 -115 27 -22 3 -46 10 -53 16 -8 6 -35 14 -60 18 -26 5 -78 14 -117 22 -38 8 -99 20 -135 26 -36 7 -83 18 -105 24 -22 6 -65 14 -95 18 -30 4 -116 17 -190 28 -74 12 -176 26 -226 31 -50 5 -103 14 -118 20 -15 5 -62 10 -104 10 -42 0 -93 4 -112 10 -129 36 -1223 59 -1640 35z m958 -90 c263 -4 480 -13 496 -23 5 -3 25 -6 45 -8 20 -2 72 -8 116 -13 44 -6 130 -13 190 -16 61 -3 135 -10 165 -16 161 -30 225 -40 395 -61 50 -6 104 -18 120 -27 17 -9 46 -17 65 -18 101 -7 191 -21 212 -35 13 -8 39 -18 58 -21 125 -21 189 -35 217 -50 18 -9 44 -17 58 -17 33 0 116 -20 132 -32 6 -5 40 -13 74 -19 35 -6 71 -17 81 -26 23 -20 86 -42 125 -43 18 0 36 -6 40 -13 4 -7 31 -21 58 -31 52 -19 74 -28 160 -64 28 -11 67 -26 87 -32 21 -6 40 -16 43 -21 8 -12 85 -49 104 -49 8 0 24 -8 35 -18 12 -10 41 -25 66 -32 25 -8 49 -20 53 -28 5 -7 28 -22 50 -33 101 -46 317 -200 331 -234 3 -8 11 -15 19 -15 17 0 192 -173 237 -235 77 -105 98 -149 138 -280 29 -96 38 -202 19 -221 -4 -4 -7 -26 -7 -49 0 -24 -6 -48 -14 -54 -8 -6 -17 -36 -20 -65 -5 -34 -14 -60 -26 -71 -11 -10 -24 -33 -31 -52 -10 -31 -14 -34 -47 -31 l-37 3 -1 60 c-1 33 -4 71 -7 85 -3 14 -13 77 -23 140 -10 69 -23 118 -31 123 -7 4 -13 12 -13 18 0 9 -28 68 -74 155 -29 55 -96 140 -127 162 -10 7 -19 17 -19 22 0 13 -168 174 -191 182 -10 4 -19 12 -19 18 0 5 -17 21 -37 35 -21 14 -52 35 -69 47 -59 43 -146 103 -162 113 -68 41 -93 55 -105 55 -7 0 -28 11 -47 25 -19 14 -41 25 -50 25 -8 0 -32 11 -53 25 -42 29 -300 135 -328 135 -11 0 -19 4 -19 9 0 9 -78 51 -96 51 -5 0 -42 14 -83 30 -41 17 -82 32 -90 34 -18 3 -17 3 -111 34 -36 12 -77 22 -91 22 -14 0 -34 7 -45 15 -10 8 -31 15 -45 15 -15 0 -32 6 -38 14 -7 8 -35 16 -64 19 -79 8 -139 21 -176 40 -19 9 -48 17 -65 17 -17 0 -43 6 -57 14 -15 7 -32 10 -39 6 -7 -4 -24 -4 -39 0 -14 5 -56 18 -92 29 -37 12 -83 21 -102 21 -20 0 -46 4 -59 9 -13 5 -68 17 -123 26 -55 9 -120 21 -145 27 -50 11 -185 24 -399 38 -96 6 -147 13 -152 21 -4 7 -27 14 -51 15 -24 1 -117 7 -208 13 -155 10 -549 20 -846 21 -122 0 -133 2 -157 23 -29 25 -35 47 -13 47 7 0 28 3 45 6 24 5 31 3 31 -10 0 -9 7 -16 15 -16 8 0 15 7 15 15 0 8 7 15 15 15 14 0 20 -17 16 -47 -1 -8 10 -13 28 -13 24 0 28 3 24 19 -8 31 21 37 167 40 74 1 171 6 215 10 44 5 91 6 105 4 14 -3 139 -7 278 -8z m-996 -33 c9 -34 -2 -42 -64 -42 -51 0 -59 2 -56 18 2 9 14 19 27 20 13 2 30 10 37 17 17 17 51 9 56 -13z m-152 -27 c0 -8 -4 -15 -9 -15 -13 0 -22 16 -14 24 11 11 23 6 23 -9z"/> <path d="M8306 2432 c-59 -34 -70 -52 -74 -122 -3 -56 -1 -69 19 -94 41 -52 121 -71 179 -41 104 54 106 195 4 252 -47 26 -88 27 -128 5z m79 -23 c4 -5 17 -14 30 -19 23 -9 55 -60 55 -87 0 -50 -53 -93 -114 -93 -43 0 -47 5 -29 41 15 31 34 29 63 -5 7 -9 16 -16 21 -16 14 0 11 38 -3 43 -10 3 -10 9 0 26 17 29 15 61 -3 61 -9 0 -18 7 -21 15 -4 8 -15 15 -25 15 -10 0 -19 7 -19 15 0 17 35 20 45 4z m-85 -104 c0 -51 -3 -65 -15 -65 -12 0 -15 13 -15 58 0 32 3 62 7 65 17 17 23 2 23 -58z m80 31 c0 -19 -16 -36 -35 -36 -6 0 -14 44 -9 52 3 4 14 8 25 8 13 0 19 -7 19 -24z"/> <path d="M822 1641 c-143 -23 -280 -113 -331 -218 -13 -26 -29 -60 -37 -75 -20 -37 -19 -217 1 -244 8 -10 15 -26 15 -35 0 -32 87 -115 152 -146 68 -33 177 -63 230 -63 18 0 55 -7 82 -15 27 -8 70 -15 95 -15 103 0 257 -49 306 -98 92 -93 59 -238 -72 -319 -129 -80 -350 -64 -498 34 -70 46 -77 52 -116 104 -35 47 -45 73 -71 184 l-14 60 -62 3 -62 3 2 -273 3 -273 53 -3 c59 -3 62 1 83 100 12 54 28 61 62 25 50 -52 154 -117 188 -117 9 0 29 -6 45 -14 16 -8 74 -16 129 -19 147 -8 273 8 335 44 8 5 26 14 39 19 34 15 129 98 146 129 65 117 85 210 65 311 -7 36 -21 82 -31 102 -24 47 -76 107 -103 119 -12 5 -28 13 -36 18 -37 21 -93 41 -118 41 -16 0 -33 5 -39 11 -11 11 -52 18 -258 44 -66 9 -133 20 -149 25 -16 6 -38 10 -49 10 -27 0 -120 45 -138 66 -17 20 -39 82 -39 109 0 45 30 101 73 140 60 52 96 69 189 90 80 18 87 17 233 -13 136 -29 254 -155 277 -297 4 -28 15 -55 25 -62 22 -17 88 -17 99 0 5 6 7 122 4 257 l-5 245 -39 3 c-52 4 -86 -27 -86 -79 0 -54 -27 -60 -82 -17 -56 43 -75 53 -145 78 -66 23 -261 35 -351 21z m638 -876 c0 -8 -7 -15 -15 -15 -8 0 -15 7 -15 15 0 8 7 15 15 15 8 0 15 -7 15 -15z"/> <path d="M5421 1616 c-52 -19 -90 -72 -91 -127 0 -39 5 -51 36 -81 68 -69 160 -60 217 22 44 63 2 159 -84 189 -37 13 -34 13 -78 -3z"/> <path d="M4434 1605 c-3 -7 -4 -30 -2 -51 l3 -39 70 0 c54 0 120 -14 136 -29 1 0 5 -82 9 -181 4 -99 11 -190 15 -202 6 -20 4 -23 -17 -23 -18 0 -33 12 -53 40 -28 40 -104 100 -128 100 -7 0 -30 7 -52 15 -71 25 -164 14 -265 -33 -80 -37 -170 -132 -211 -222 -40 -87 -43 -108 -47 -258 -2 -125 0 -156 13 -174 8 -12 15 -32 15 -45 0 -12 5 -25 10 -28 6 -4 16 -21 24 -38 14 -36 102 -133 138 -153 90 -50 112 -56 218 -57 101 0 107 1 165 33 71 39 82 50 119 113 22 37 34 47 50 45 23 -3 23 -5 6 -91 -6 -33 -10 -61 -7 -63 7 -7 363 -8 375 0 13 8 16 53 6 80 -5 12 -21 16 -65 16 -99 0 -123 22 -123 115 0 22 1 285 3 584 1 299 0 546 -3 549 -3 3 -94 6 -201 8 -155 2 -197 0 -201 -11z m62 -535 c51 -28 89 -71 129 -140 18 -31 20 -53 20 -190 0 -132 -3 -160 -19 -189 -54 -100 -121 -161 -191 -176 -87 -18 -173 -5 -224 34 -37 28 -81 91 -81 118 0 10 -7 27 -15 37 -12 15 -15 52 -15 157 0 76 4 140 9 143 5 3 12 18 15 33 28 120 130 201 256 202 54 1 73 -4 116 -29z"/> <path d="M1977 1543 c-4 -3 -7 -27 -7 -53 0 -134 -97 -270 -194 -270 -59 0 -66 -7 -66 -65 0 -64 7 -67 95 -57 99 12 90 45 87 -331 -4 -375 1 -422 51 -474 17 -18 35 -33 41 -33 5 0 18 -8 28 -17 15 -13 39 -16 122 -16 88 0 108 3 137 21 87 53 116 121 120 284 2 62 -1 111 -6 116 -6 5 -33 7 -61 4 l-50 -4 -1 -107 c0 -130 -6 -149 -49 -167 -48 -20 -68 -18 -103 12 l-31 26 0 345 0 345 138 -3 c75 -2 142 -1 148 3 11 8 10 90 -1 109 -4 5 -34 7 -68 4 -34 -2 -97 -7 -141 -10 l-78 -6 2 163 c1 90 2 169 1 176 -1 13 -102 18 -114 5z m63 -380 c0 -38 -15 -73 -31 -73 -6 0 -26 12 -45 26 -46 35 -45 64 3 91 35 20 39 21 55 6 11 -9 18 -30 18 -50z"/> <path d="M6290 1238 c-19 -5 -52 -13 -73 -17 -21 -5 -44 -14 -50 -20 -6 -6 -17 -11 -24 -11 -45 0 -213 -173 -213 -219 0 -9 -5 -22 -12 -29 -28 -28 -47 -246 -28 -332 12 -56 35 -123 51 -150 5 -8 13 -24 18 -36 13 -29 105 -122 133 -134 13 -5 30 -14 38 -19 91 -53 334 -64 425 -19 81 39 96 50 137 98 45 52 108 162 108 189 0 9 7 29 15 45 29 56 22 66 -45 66 -49 0 -62 -3 -66 -17 -3 -10 -10 -26 -15 -35 -5 -10 -9 -28 -9 -42 0 -13 -7 -29 -15 -36 -8 -7 -15 -18 -15 -25 0 -18 -100 -115 -120 -115 -9 0 -25 -7 -36 -15 -22 -16 -143 -21 -172 -6 -9 5 -37 19 -62 31 -46 22 -120 95 -120 118 0 7 -6 23 -14 35 -44 72 -43 303 2 397 81 169 233 230 416 165 38 -13 73 -28 79 -34 16 -16 -3 -51 -31 -57 -15 -3 -33 -7 -40 -10 -20 -6 -33 -54 -26 -101 13 -88 115 -131 196 -83 60 35 78 70 78 148 0 50 -4 73 -15 82 -8 7 -15 18 -15 25 0 23 -72 84 -134 113 -116 55 -254 75 -346 50z"/> <path d="M7280 1233 c-71 -17 -76 -18 -105 -36 -57 -35 -81 -55 -106 -91 -25 -34 -29 -48 -29 -106 0 -63 2 -69 35 -103 30 -31 43 -37 76 -37 45 0 73 12 107 46 19 19 23 31 20 75 -3 48 -6 54 -35 68 -48 24 -48 38 0 63 36 18 59 22 158 22 110 1 118 0 157 -27 94 -62 111 -206 30 -256 -28 -17 -116 -40 -218 -56 -180 -29 -252 -55 -310 -115 -49 -51 -70 -106 -70 -188 0 -112 47 -192 141 -241 60 -32 224 -35 290 -6 50 22 117 70 139 100 33 45 69 80 76 73 4 -4 8 -24 10 -43 6 -83 91 -145 196 -145 92 0 159 36 196 105 27 52 51 303 30 316 -20 13 -86 10 -95 -3 -4 -7 -6 -59 -4 -114 3 -107 -4 -135 -43 -166 -30 -25 -44 -22 -77 13 l-29 31 0 324 c0 304 -1 327 -20 363 -30 60 -108 111 -190 125 -19 3 -55 10 -80 15 -65 14 -175 12 -250 -6z m360 -527 c0 -106 -25 -195 -69 -241 -51 -54 -82 -74 -149 -91 -45 -12 -65 -12 -108 -3 -90 20 -125 74 -110 173 11 70 68 109 221 151 33 9 73 23 88 31 16 8 34 14 42 14 7 0 18 7 25 15 7 8 23 15 36 15 23 0 24 -3 24 -64z"/> <path d="M2529 1203 c-6 -6 -9 -31 -7 -55 l3 -43 81 -3 c124 -4 116 21 117 -369 l2 -328 25 -44 c27 -47 74 -88 134 -116 60 -27 254 -25 317 4 51 23 149 106 149 125 0 13 49 40 57 32 3 -3 -2 -33 -11 -68 -9 -34 -12 -65 -8 -69 4 -4 90 -9 192 -11 l185 -3 0 50 0 50 -65 5 c-78 6 -105 20 -115 57 -4 16 -5 201 -3 412 l3 383 -195 1 -195 0 -3 -56 -3 -57 80 0 c74 0 81 -2 100 -26 20 -25 21 -39 21 -258 0 -127 -3 -249 -7 -270 -5 -31 -20 -53 -67 -100 -51 -50 -73 -64 -124 -80 -94 -28 -185 -5 -237 59 l-30 37 -2 370 c-1 203 -4 372 -6 375 -3 2 -89 5 -192 6 -133 1 -190 -1 -196 -10z"/> <path d="M5169 1203 c-6 -6 -9 -31 -7 -55 l3 -43 90 -5 c83 -5 90 -7 102 -30 9 -19 13 -106 13 -335 0 -170 -3 -320 -6 -331 -8 -31 -48 -45 -119 -43 -34 1 -67 -1 -73 -5 -15 -9 -16 -96 -2 -96 13 -1 577 -1 591 0 6 0 9 19 7 48 l-3 47 -75 5 c-41 3 -85 11 -97 18 l-23 13 -2 410 -3 411 -193 1 c-138 1 -197 -1 -203 -10z"/> </g> </svg> 