<?xml version="1.0" standalone="no"?>
<!DOCTYPE svg PUBLIC "-//W3C//DTD SVG 20010904//EN"
 "http://www.w3.org/TR/2001/REC-SVG-20010904/DTD/svg10.dtd">
<svg version="1.0" xmlns="http://www.w3.org/2000/svg"
 width="300.000000pt" height="213.000000pt" viewBox="0 0 300.000000 213.000000"
 preserveAspectRatio="xMidYMid meet">
<metadata>
Created by potrace 1.10, written by Peter Selinger 2001-2011
</metadata>
<g transform="translate(0.000000,213.000000) scale(0.100000,-0.100000)"
fill="#000000" stroke="none">
<path d="M1371 1774 c-25 -20 -31 -34 -31 -64 0 -31 7 -44 35 -69 20 -17 40
-31 46 -31 6 0 9 -10 7 -22 -3 -23 -5 -23 -115 -19 -143 4 -186 -10 -220 -77
-7 -13 -13 -33 -13 -43 0 -14 -14 -26 -46 -39 -66 -29 -83 -54 -84 -122 0 -53
2 -59 34 -84 19 -15 49 -32 67 -38 30 -10 34 -14 31 -43 -4 -41 18 -83 62
-116 28 -22 45 -27 90 -27 55 0 56 -1 73 -37 27 -55 74 -83 142 -83 48 0 62 5
93 30 21 17 39 43 43 60 7 32 14 34 78 31 70 -5 126 48 134 125 4 37 10 54 20
54 7 0 30 9 51 19 105 54 93 201 -19 231 -30 8 -40 17 -45 38 -16 72 -27 87
-86 115 -32 15 -48 16 -137 7 -56 -6 -106 -8 -111 -5 -12 8 -13 45 -2 45 5 0
25 17 45 37 47 46 47 75 3 119 -44 44 -99 47 -145 8z m109 -76 c0 -27 -33 -40
-58 -22 -28 20 -28 49 0 69 21 14 24 14 40 -7 10 -13 18 -31 18 -40z m-116
-271 c30 -28 36 -40 36 -74 0 -53 -23 -93 -67 -115 -42 -22 -57 -22 -91 -1
-38 25 -47 35 -66 72 -16 30 -16 35 -1 74 19 51 55 75 111 76 34 1 48 -5 78
-32z m305 8 c35 -30 55 -82 45 -119 -7 -31 -79 -96 -105 -96 -10 0 -33 7 -51
16 -80 38 -98 127 -38 189 44 45 102 49 149 10z m-584 -139 c0 -47 -4 -70 -13
-74 -20 -7 -59 36 -64 70 -6 38 25 80 55 76 19 -3 21 -10 22 -72z m775 54 c26
-26 25 -70 -1 -104 -34 -44 -52 -31 -56 42 -1 35 0 68 3 73 9 15 33 10 54 -11z
m-480 -169 c0 -15 56 -32 83 -26 14 4 31 13 38 21 6 8 22 14 35 14 34 0 32
-42 -3 -74 -66 -62 -203 -31 -203 46 0 23 4 28 25 28 14 0 25 -4 25 -9z m-125
-51 c0 -32 -3 -35 -32 -38 -24 -2 -33 1 -38 17 -3 12 -3 30 0 42 5 16 14 19
38 17 29 -3 32 -6 32 -38z m452 24 c10 -27 -14 -64 -42 -64 -32 0 -55 41 -35
65 16 20 69 20 77 -1z m-167 -187 c0 -42 -128 -63 -168 -28 -40 34 -28 41 73
41 71 0 95 -3 95 -13z"/>
<path d="M1280 1381 c0 -5 -9 -13 -20 -16 -26 -8 -26 -40 1 -59 19 -13 24 -13
45 1 24 15 30 37 18 67 -7 17 -44 22 -44 7z"/>
<path d="M1572 1378 c-7 -7 -12 -24 -12 -38 0 -32 17 -50 46 -50 18 0 23 7 29
40 4 21 4 44 0 50 -9 14 -48 13 -63 -2z"/>
<path d="M898 743 c-3 -4 -4 -62 -3 -128 1 -84 5 -120 13 -119 7 1 36 2 66 3
46 1 56 4 61 22 9 26 5 30 -44 36 l-41 6 0 88 c0 49 -4 89 -9 89 -5 0 -16 3
-24 6 -8 3 -17 2 -19 -3z"/>
<path d="M2303 716 c-34 -31 -37 -37 -28 -62 6 -17 26 -36 55 -51 59 -31 64
-47 14 -41 -22 3 -50 1 -63 -4 l-25 -9 27 -26 c21 -21 36 -27 75 -27 41 -1 53
3 71 24 11 14 20 40 21 58 0 29 -5 34 -50 54 -60 26 -68 51 -14 46 26 -2 40 2
48 14 14 24 -7 44 -56 52 -33 6 -42 3 -75 -28z"/>
<path d="M454 714 c-4 -14 -4 -47 0 -73 3 -27 2 -60 -4 -75 -10 -28 3 -71 24
-79 25 -10 47 20 44 60 -3 38 -3 38 35 41 35 3 38 6 35 30 -2 17 -8 26 -17 24
-26 -6 -61 8 -61 23 0 11 11 15 38 15 46 0 78 20 69 44 -5 13 -21 16 -81 16
-73 0 -76 -1 -82 -26z"/>
<path d="M657 700 c-54 -62 -50 -125 12 -177 19 -17 39 -22 78 -23 48 0 53 3
82 39 43 53 43 114 2 161 -24 28 -37 34 -83 38 -53 4 -54 3 -91 -38z m125 -37
c38 -34 11 -103 -41 -103 -30 0 -61 31 -61 60 0 49 65 77 102 43z"/>
<path d="M1073 708 c-38 -42 -45 -62 -37 -112 8 -54 64 -96 127 -96 50 0 76
22 102 84 21 50 14 77 -32 121 -31 30 -43 35 -83 35 -39 0 -51 -5 -77 -32z
m131 -52 c32 -29 32 -36 3 -69 -15 -18 -33 -27 -53 -27 -39 0 -54 16 -54 58 0
61 58 82 104 38z"/>
<path d="M1307 733 c-3 -5 -1 -33 3 -63 4 -30 4 -79 0 -107 -3 -29 -2 -57 3
-62 5 -5 37 -7 70 -4 47 4 66 11 79 27 19 23 24 66 8 66 -6 0 -10 23 -9 55 3
77 -15 95 -92 95 -32 0 -60 -3 -62 -7z m101 -66 c4 -20 -25 -34 -40 -19 -15
15 -1 44 19 40 10 -2 19 -11 21 -21z m6 -73 c25 -9 19 -33 -10 -40 -29 -8 -49
7 -41 30 7 17 25 20 51 10z"/>
<path d="M1562 724 c-12 -8 -32 -33 -43 -56 -19 -38 -20 -42 -4 -81 25 -61 57
-87 111 -87 47 0 104 31 104 57 0 7 5 22 12 33 17 27 -5 86 -45 123 -36 32
-98 37 -135 11z m105 -66 c27 -25 29 -40 7 -73 -23 -35 -75 -35 -98 0 -21 32
-20 44 6 72 27 29 55 29 85 1z"/>
<path d="M1754 725 c-8 -20 12 -43 39 -47 21 -3 22 -7 19 -91 -3 -93 5 -110
45 -88 17 9 19 19 15 94 -4 84 -4 84 22 91 14 3 26 11 26 17 0 8 5 7 15 -1 12
-10 15 -33 14 -103 -1 -92 6 -110 41 -104 12 2 15 24 15 123 l0 121 -123 2
c-101 1 -124 -2 -128 -14z"/>
<path d="M2097 722 c-15 -10 -34 -35 -43 -59 -19 -50 -9 -88 35 -136 23 -25
31 -28 80 -25 41 2 57 8 67 24 12 17 12 23 0 40 -12 15 -17 17 -27 7 -19 -19
-73 -16 -92 5 -21 23 -22 51 -1 81 17 23 52 26 96 7 25 -11 34 30 12 55 -21
24 -87 24 -127 1z"/>
</g>
</svg>
