<?xml version="1.0" standalone="no"?>
<!DOCTYPE svg PUBLIC "-//W3C//DTD SVG 20010904//EN"
 "http://www.w3.org/TR/2001/REC-SVG-20010904/DTD/svg10.dtd">
<svg version="1.0" xmlns="http://www.w3.org/2000/svg"
 width="900.000000pt" height="900.000000pt" viewBox="0 0 900.000000 900.000000"
 preserveAspectRatio="xMidYMid meet">
<metadata>
Created by potrace 1.10, written by Peter Selinger 2001-2011
</metadata>
<g transform="translate(0.000000,900.000000) scale(0.100000,-0.100000)"
fill="#000000" stroke="none">
<path d="M2537 4813 c-3 -5 -7 -113 -8 -240 -3 -248 2 -274 42 -252 19 9 19
19 13 202 l-6 192 26 -30 c14 -16 26 -41 26 -55 0 -14 7 -36 15 -50 8 -14 14
-35 15 -47 0 -12 6 -34 14 -50 18 -38 37 -92 43 -126 11 -58 93 -38 93 23 0
14 7 35 15 46 8 10 15 27 15 37 0 11 6 33 13 50 16 37 45 133 49 161 2 11 9
21 16 24 9 3 12 -39 12 -187 l0 -191 29 0 c20 0 31 6 33 17 2 9 2 121 0 250
l-3 234 -41 -3 c-39 -3 -43 -6 -51 -38 -5 -19 -13 -39 -18 -44 -5 -6 -9 -19
-9 -31 0 -12 -7 -30 -15 -41 -8 -10 -15 -27 -15 -37 0 -11 -6 -33 -13 -50 -8
-18 -22 -59 -32 -92 -10 -33 -22 -64 -26 -69 -8 -9 -49 77 -49 104 0 10 -7 31
-15 46 -8 16 -15 38 -15 49 0 11 -7 29 -15 39 -8 11 -15 32 -15 46 0 14 -5 31
-11 37 -6 6 -14 26 -18 45 -6 30 -10 33 -48 36 -23 2 -43 -1 -46 -5z"/>
<path d="M3417 4813 c-2 -4 -2 -115 1 -245 4 -198 7 -238 20 -243 8 -3 21 0
28 6 15 13 64 4 64 -11 0 -17 78 -11 109 8 50 30 71 65 77 130 10 92 -2 146
-40 187 -30 31 -39 35 -84 35 -28 0 -63 -5 -79 -11 -15 -6 -30 -9 -33 -7 -3 2
-5 37 -5 78 0 74 0 75 -27 78 -14 2 -28 0 -31 -5z m205 -195 c13 -13 29 -36
36 -51 37 -86 -13 -197 -88 -197 -64 0 -100 47 -100 130 0 108 87 176 152 118z"/>
<path d="M3767 4799 c-8 -30 10 -51 42 -47 22 2 26 8 26 33 0 26 -4 30 -31 33
-25 2 -33 -1 -37 -19z"/>
<path d="M3908 4808 c-9 -26 1 -471 11 -481 5 -5 17 -7 25 -4 13 5 15 40 16
252 l0 245 -24 0 c-13 0 -26 -6 -28 -12z"/>
<path d="M4463 4800 c-50 -26 -59 -37 -71 -78 -9 -30 -9 -47 0 -73 14 -40 63
-88 98 -95 14 -2 39 -9 55 -15 17 -6 44 -14 60 -16 63 -11 86 -67 43 -104 -17
-13 -39 -18 -84 -19 -54 0 -62 3 -80 28 -11 15 -23 35 -27 45 -5 14 -16 18
-44 15 -32 -3 -38 -7 -41 -28 -5 -39 48 -105 105 -130 54 -24 122 -23 183 1
124 50 135 198 19 258 -22 12 -47 21 -56 21 -35 0 -124 35 -145 57 -20 22 -21
24 -4 42 39 43 147 38 168 -7 10 -21 21 -28 52 -30 51 -4 63 8 45 50 -15 38
-34 56 -78 81 -43 23 -153 21 -198 -3z"/>
<path d="M6343 4784 c-8 -22 6 -64 21 -64 8 0 16 10 19 22 l6 22 25 -23 c33
-31 77 -26 90 12 13 36 -5 57 -33 40 -10 -7 -22 -9 -26 -5 -13 14 -96 10 -102
-4z"/>
<path d="M5842 4761 c-23 -21 -32 -39 -32 -60 0 -21 -5 -31 -15 -31 -23 0 -19
-47 5 -60 19 -10 21 -20 19 -113 -1 -110 3 -130 34 -164 38 -43 127 -24 127
26 0 23 -18 38 -50 43 -25 3 -25 5 -28 106 -3 97 -2 102 18 102 11 0 29 5 39
12 17 10 23 8 40 -13 11 -13 20 -32 21 -41 0 -17 19 -67 46 -121 8 -16 14 -37
14 -47 0 -9 7 -23 15 -30 8 -7 15 -27 15 -44 0 -44 -35 -76 -83 -76 -34 0 -37
-2 -37 -29 0 -23 5 -30 26 -35 38 -10 114 4 133 24 25 26 51 79 51 104 0 12 7
31 15 42 8 10 15 31 15 45 0 15 7 32 15 39 8 7 15 20 15 29 0 9 7 29 15 45 8
15 15 36 15 45 0 9 9 30 20 46 37 56 22 79 -44 68 -31 -5 -36 -10 -36 -32 -1
-14 -7 -37 -15 -51 -8 -14 -14 -37 -15 -51 0 -24 -35 -109 -45 -109 -8 0 -45
93 -45 115 0 13 -7 36 -15 51 -8 16 -15 39 -15 51 0 21 -5 22 -87 25 l-88 3 3
58 c3 50 1 57 -15 57 -10 0 -33 -13 -51 -29z"/>
<path d="M3131 4673 c-18 -7 -42 -32 -63 -65 -14 -20 -18 -48 -18 -109 0 -73
3 -86 26 -116 54 -71 135 -93 205 -55 48 25 65 50 84 116 16 57 16 63 -1 119
-13 40 -30 69 -52 88 -29 26 -39 29 -100 28 -37 0 -73 -3 -81 -6z m136 -60
c52 -34 68 -131 32 -189 -26 -43 -47 -54 -98 -54 -30 0 -47 7 -66 25 -23 23
-25 34 -25 105 l0 80 41 30 c44 31 70 32 116 3z"/>
<path d="M3784 4672 c-7 -4 -10 -67 -10 -177 l1 -170 28 -3 c19 -2 27 1 27 12
3 115 0 328 -5 336 -7 12 -25 13 -41 2z"/>
<path d="M4095 4670 c-76 -30 -112 -187 -62 -275 58 -103 201 -114 272 -21 33
43 32 56 -4 56 -21 0 -36 -8 -51 -30 -19 -26 -27 -30 -71 -30 -44 0 -54 4 -80
32 -17 20 -29 43 -29 60 l0 28 136 0 136 0 -5 33 c-9 60 -33 107 -67 132 -28
20 -45 25 -94 24 -34 0 -70 -4 -81 -9z m143 -61 c18 -17 32 -42 32 -54 0 -23
-4 -24 -90 -27 -50 -2 -95 -1 -100 0 -21 7 -8 46 26 78 47 45 88 46 132 3z"/>
<path d="M4853 4673 l-33 -4 0 -122 c0 -145 14 -193 67 -220 19 -9 45 -17 58
-17 25 0 85 30 85 43 0 14 28 7 34 -9 4 -11 16 -14 42 -12 l36 3 2 167 1 166
-30 4 c-62 7 -62 8 -57 -115 l4 -112 -32 -32 c-36 -37 -59 -41 -96 -16 -26 16
-26 17 -23 137 3 113 -2 148 -19 144 -4 0 -22 -3 -39 -5z"/>
<path d="M5333 4665 c-14 -10 -24 -12 -28 -5 -3 5 -25 10 -48 10 l-42 0 0
-162 c0 -90 4 -169 8 -175 10 -16 63 -17 73 -1 4 6 6 58 5 114 -2 93 0 106 20
134 18 24 30 30 61 30 32 0 39 4 44 26 11 43 -48 61 -93 29z"/>
<path d="M5535 4673 c-35 -9 -82 -73 -96 -130 -10 -44 -10 -63 1 -105 27 -107
138 -158 235 -108 41 21 81 72 70 90 -11 18 -71 11 -91 -11 -10 -11 -27 -25
-37 -30 -37 -21 -110 53 -93 96 4 11 19 15 58 13 29 -1 79 -2 111 0 l57 2 0
42 c0 31 -8 55 -32 89 -28 41 -37 48 -76 53 -49 7 -76 6 -107 -1z m100 -63
c23 -9 26 -15 23 -47 l-3 -38 -59 -3 c-32 -2 -63 1 -68 6 -16 16 12 80 36 85
37 7 44 7 71 -3z"/>
</g>
</svg>
