<?xml version="1.0" standalone="no"?>
<!DOCTYPE svg PUBLIC "-//W3C//DTD SVG 20010904//EN"
 "http://www.w3.org/TR/2001/REC-SVG-20010904/DTD/svg10.dtd">
<svg version="1.0" xmlns="http://www.w3.org/2000/svg"
 width="300.000000pt" height="55.000000pt" viewBox="0 0 300.000000 55.000000"
 preserveAspectRatio="xMidYMid meet">
<metadata>
Created by potrace 1.10, written by Peter Selinger 2001-2011
</metadata>
<g transform="translate(0.000000,55.000000) scale(0.050000,-0.050000)"
fill="#000000" stroke="none">
<path d="M1397 961 c-2 -6 -4 -171 -5 -366 l-2 -355 45 0 c25 0 45 9 45 21 0
14 12 14 39 0 79 -43 189 -25 252 40 191 199 -30 600 -247 448 l-44 -31 0 127
c0 113 -4 126 -40 126 -22 0 -41 -4 -43 -10z m314 -302 c93 -103 19 -359 -103
-359 -117 0 -177 255 -85 354 55 57 139 59 188 5z"/>
<path d="M1908 951 c-20 -51 8 -94 57 -87 64 9 64 103 0 112 -27 4 -50 -6 -57
-25z"/>
<path d="M2928 951 c-246 -107 -150 -327 182 -416 110 -29 140 -82 80 -143
-74 -73 -231 -24 -274 87 -18 48 -139 -5 -127 -56 49 -209 462 -260 549 -69
71 155 -2 270 -207 327 -206 57 -257 141 -104 170 80 15 145 -14 163 -71 20
-62 150 -57 150 6 0 148 -235 243 -412 165z"/>
<path d="M80 600 l0 -360 53 0 53 0 -12 292 c-6 161 -5 286 2 279 8 -8 55
-137 106 -287 131 -393 153 -392 288 10 l100 296 6 -295 c5 -293 5 -295 51
-295 l46 0 2 360 2 360 -79 0 c-49 0 -78 -9 -78 -25 0 -14 -43 -149 -96 -300
l-96 -275 -99 299 -99 300 -75 1 -75 0 0 -360z"/>
<path d="M2100 600 l0 -360 47 0 46 0 3 360 3 360 -50 0 -49 0 0 -360z"/>
<path d="M4954 897 c-40 -30 -52 -52 -43 -81 9 -28 2 -42 -29 -50 -54 -14 -56
-86 -2 -100 36 -10 40 -27 40 -194 0 -215 11 -232 144 -232 93 0 96 2 96 60 0
51 -8 60 -50 60 -46 0 -50 8 -50 88 0 48 -6 115 -12 150 -12 56 -8 62 38 62
33 0 54 13 58 35 4 19 50 -76 103 -211 109 -276 104 -344 -25 -344 -49 0 -55
-6 -47 -50 12 -63 154 -73 222 -15 40 35 288 660 272 687 -5 7 -38 12 -73 10
-64 -3 -66 -6 -124 -193 l-59 -189 -60 184 -61 184 -121 6 -120 6 6 85 c7 98
-16 107 -103 42z"/>
<path d="M5660 920 c0 -11 9 -20 20 -20 11 0 20 -18 20 -40 0 -22 9 -40 20
-40 11 0 20 18 20 40 0 22 9 40 20 40 11 0 20 -18 20 -39 0 -33 13 -39 70 -37
63 2 70 8 70 59 0 58 -47 81 -67 32 -8 -20 -10 -20 -11 0 -2 30 -182 35 -182
5z"/>
<path d="M948 742 c-132 -80 -150 -339 -31 -445 215 -192 493 64 383 352 -44
116 -232 166 -352 93z m227 -82 c129 -120 34 -388 -123 -349 -75 19 -115 89
-115 200 0 161 135 245 238 149z"/>
<path d="M2368 742 c-132 -80 -150 -339 -31 -445 114 -102 315 -72 380 55 45
89 -38 93 -119 6 -84 -90 -192 -61 -235 63 l-21 59 199 0 199 0 0 52 c0 194
-207 311 -372 210z m232 -82 c77 -77 54 -100 -100 -100 -111 0 -140 6 -140 30
0 50 76 110 140 110 33 0 78 -18 100 -40z"/>
<path d="M3453 765 c-29 -47 19 -470 56 -497 60 -44 190 -36 245 15 l46 44 0
-45 c0 -38 9 -44 61 -38 l61 6 4 256 c4 250 3 256 -41 267 -94 24 -105 2 -105
-202 0 -208 -24 -249 -131 -222 -46 11 -48 20 -53 216 l-6 204 -64 5 c-35 3
-68 -1 -73 -9z"/>
<path d="M4194 746 c-21 -22 -34 -25 -34 -10 0 14 -28 24 -70 24 l-70 0 0
-260 0 -260 70 0 70 0 0 155 c1 188 29 255 108 255 57 0 107 69 81 112 -19 30
-118 20 -155 -16z"/>
<path d="M4432 716 c-116 -116 -121 -310 -12 -419 108 -108 400 -49 400 81 0
33 -132 26 -160 -8 -37 -44 -113 -37 -149 14 -56 81 -42 89 136 80 193 -10
203 -3 172 123 -48 191 -256 260 -387 129z m229 -77 c61 -61 39 -88 -78 -95
-116 -7 -136 23 -63 96 51 51 89 51 141 -1z"/>
<path d="M1920 500 c0 -247 2 -260 40 -260 38 0 40 13 40 260 0 247 -2 260
-40 260 -38 0 -40 -13 -40 -260z"/>
</g>
</svg>
