<?xml version="1.0" standalone="no"?>
<!DOCTYPE svg PUBLIC "-//W3C//DTD SVG 20010904//EN"
 "http://www.w3.org/TR/2001/REC-SVG-20010904/DTD/svg10.dtd">
<svg version="1.0" xmlns="http://www.w3.org/2000/svg"
 width="300.000000pt" height="274.000000pt" viewBox="0 0 300.000000 274.000000"
 preserveAspectRatio="xMidYMid meet">
<metadata>
Created by potrace 1.10, written by Peter Selinger 2001-2011
</metadata>
<g transform="translate(0.000000,274.000000) scale(0.100000,-0.100000)"
fill="#000000" stroke="none">
<path d="M1245 2715 c-195 -36 -416 -130 -578 -245 -110 -79 -264 -238 -342
-354 l-60 -90 -105 -26 c-58 -15 -117 -30 -133 -34 l-28 -7 1 -250 1 -251 35
7 c20 3 41 8 48 11 10 4 14 -29 19 -148 3 -84 13 -187 22 -228 50 -229 164
-456 310 -617 31 -34 55 -66 55 -70 -1 -4 3 -9 8 -11 6 -2 8 5 6 15 -6 24 34
51 47 31 6 -9 1 -20 -16 -34 -18 -14 -24 -26 -19 -38 4 -10 2 -21 -5 -26 -16
-9 13 -70 33 -70 20 0 40 -27 26 -35 -19 -12 31 -57 56 -51 22 6 50 -15 37
-27 -3 -4 9 -13 28 -21 21 -9 38 -11 44 -5 14 14 45 11 51 -6 7 -17 74 -21 74
-5 0 6 -8 10 -18 10 -21 0 -42 18 -42 37 0 18 39 16 47 -2 14 -39 242 -122
411 -150 82 -14 142 -16 290 -13 168 5 198 8 302 36 116 31 206 64 293 108 26
14 52 22 58 18 5 -3 16 0 24 6 15 12 55 5 55 -11 0 -5 16 -9 35 -9 19 0 35 5
35 11 0 6 -6 9 -14 6 -15 -6 -46 22 -46 41 0 18 25 14 44 -7 21 -23 80 -34
110 -20 12 6 26 20 31 32 6 13 19 22 31 22 27 0 66 34 60 52 -8 19 4 43 20 43
18 0 47 57 34 65 -15 9 -12 45 5 51 20 8 21 74 0 74 -9 0 -12 -6 -8 -16 6 -16
-19 -44 -39 -44 -16 0 -7 36 13 48 14 9 18 19 13 34 -3 11 -1 24 5 27 8 5 8
16 0 39 -12 36 -32 44 -24 9 3 -12 -1 -31 -9 -42 -13 -17 -17 -18 -25 -5 -7
10 -6 21 4 36 12 18 12 24 -1 42 -10 14 -11 23 -3 27 7 5 3 15 -10 29 -12 12
-18 26 -14 30 5 4 -4 2 -19 -5 -22 -9 -30 -9 -43 1 -8 7 -13 16 -10 20 4 7
-37 30 -55 30 -6 0 -1 -9 10 -20 11 -11 20 -27 20 -36 0 -25 -33 -12 -48 19
-8 16 -21 27 -33 27 -10 0 -19 5 -19 10 0 6 -16 10 -35 10 -19 0 -35 -4 -35
-8 0 -5 9 -8 21 -8 12 1 28 -9 36 -21 15 -22 14 -23 -7 -23 -13 0 -28 7 -35
16 -12 17 -77 26 -108 15 -10 -4 -24 -18 -30 -31 -7 -15 -21 -25 -33 -25 -28
0 -56 -25 -51 -45 6 -22 -13 -47 -35 -47 -10 0 -18 2 -18 5 0 3 8 12 18 21 19
18 31 68 13 57 -6 -4 -11 1 -12 11 0 14 -2 15 -6 3 -4 -8 -13 -21 -20 -29 -12
-11 -12 -16 -2 -22 10 -6 10 -11 1 -21 -9 -11 -9 -17 0 -26 9 -9 9 -18 0 -37
-8 -16 -8 -25 -1 -25 6 0 7 -4 4 -10 -3 -5 -23 -10 -44 -10 -20 0 -60 -6 -87
-14 -80 -23 -314 -31 -669 -23 -69 2 -92 11 -75 32 10 12 8 70 -3 82 -5 4 -5
-1 -2 -12 4 -12 3 -15 -2 -9 -4 7 -17 14 -28 16 -15 3 -20 11 -18 31 2 28 -36
65 -56 53 -16 -10 -41 5 -41 25 0 10 -4 19 -9 19 -5 0 -22 5 -38 12 -15 6 -31
11 -35 10 -10 -3 -10 10 1 27 10 15 31 7 31 -13 0 -24 39 -26 54 -4 17 24 40
14 33 -13 -4 -14 0 -19 14 -19 10 0 19 -4 19 -10 0 -5 -13 -7 -30 -3 -20 3
-30 1 -30 -6 0 -8 8 -10 19 -6 11 3 22 1 26 -5 8 -12 52 9 79 39 21 23 16 27
-14 11 -16 -9 -27 -4 -60 26 -35 32 -40 42 -41 83 0 25 -4 55 -9 66 -5 13 -7
-3 -5 -45 1 -36 1 -48 -2 -27 -2 20 -8 37 -13 37 -5 0 -7 -8 -3 -17 3 -10 3
-15 -2 -11 -4 4 -14 3 -22 -3 -19 -17 -15 2 7 31 11 14 20 37 20 53 0 27 0 27
-71 27 l-70 0 70 -86 c75 -92 75 -92 62 -112 -6 -10 -12 -7 -25 13 -14 21 -20
24 -32 14 -9 -7 -14 -8 -14 -1 0 6 4 14 10 17 5 3 -16 40 -47 81 -30 41 -56
73 -57 72 -1 -2 0 -49 2 -104 l3 -102 32 2 c18 0 37 8 44 16 16 19 17 5 2 -22
-10 -19 -9 -20 10 -15 11 3 21 1 21 -4 0 -5 6 -9 14 -9 14 0 26 -21 26 -46 0
-26 -31 -14 -41 16 -7 19 -18 30 -30 30 -10 0 -19 5 -19 10 0 6 -18 10 -40 10
-22 0 -40 -4 -40 -9 0 -14 -31 -22 -44 -12 -7 6 -23 4 -43 -4 -40 -17 -43 -26
-5 -19 31 5 58 -8 48 -25 -9 -14 -39 -14 -54 1 -8 8 -15 8 -26 -2 -9 -7 -22
-10 -30 -7 -14 6 -64 -39 -54 -48 3 -3 10 1 17 8 15 19 63 10 59 -12 -3 -11
-13 -15 -35 -14 -18 2 -36 -4 -43 -12 -7 -8 -18 -15 -25 -15 -6 0 -17 -10 -23
-22 -7 -13 -11 -16 -9 -7 1 9 -23 52 -53 95 -30 44 -61 88 -67 99 -106 169
-163 386 -166 623 -2 122 -1 125 21 133 13 5 29 9 36 9 13 0 66 -74 66 -91 0
-6 4 -7 10 -4 5 3 10 2 10 -4 0 -5 14 -30 30 -54 17 -25 30 -48 30 -51 0 -22
63 -82 110 -105 54 -27 57 -27 125 -14 39 7 78 11 88 9 9 -2 17 0 17 5 0 5 5
9 11 9 11 0 5 -57 -16 -152 -8 -35 -11 -93 -8 -153 3 -65 1 -95 -5 -91 -6 3
-14 2 -17 -4 -4 -6 -1 -9 7 -8 7 2 13 -6 13 -17 0 -14 -7 -20 -25 -22 -36 -2
-80 -21 -80 -33 0 -13 6 -13 41 6 21 10 34 12 43 5 7 -6 17 -6 25 -1 11 6 15
41 16 147 1 119 18 256 41 334 4 14 -7 14 -100 -4 -162 -32 -198 -14 -297 150
-29 47 -65 101 -81 119 -28 32 -29 33 -9 44 12 6 30 28 41 50 26 50 28 174 4
201 -14 16 -14 20 0 48 9 17 16 55 16 86 0 58 14 87 87 185 57 75 191 205 273
264 221 160 475 239 760 239 459 -1 865 -232 1101 -625 l49 -81 0 -155 c0
-182 9 -218 54 -227 70 -14 66 -5 66 -133 0 -221 -57 -447 -151 -603 -49 -82
-64 -126 -44 -130 15 -3 98 142 135 234 63 160 82 255 87 440 5 146 7 167 22
167 42 -1 44 -10 38 -176 -4 -134 -10 -178 -35 -277 -32 -122 -112 -304 -172
-392 -17 -25 -28 -50 -25 -56 4 -5 1 -17 -6 -25 -6 -8 -9 -17 -6 -20 7 -8 104
141 145 221 85 169 133 374 135 573 l2 133 24 -6 c13 -3 35 -8 50 -11 l27 -6
2 71 3 70 -38 10 c-21 5 -50 13 -65 17 -16 3 -28 10 -28 14 0 5 -3 15 -6 24
-5 14 -1 14 42 1 27 -8 50 -15 52 -15 1 0 2 33 2 73 l0 73 -74 18 c-42 10 -77
24 -80 32 -7 19 4 18 105 -9 l86 -23 1 73 2 72 -37 10 c-21 5 -82 21 -136 35
-54 13 -100 26 -102 28 -1 1 -31 46 -66 98 -146 220 -381 406 -645 511 -163
64 -258 81 -484 85 -149 2 -227 -1 -285 -11z m470 -30 c199 -32 393 -109 564
-222 48 -32 133 -104 191 -163 115 -114 224 -260 194 -260 -13 0 -15 -7 -10
-37 7 -43 13 -50 -69 75 -114 173 -297 331 -500 432 -211 104 -403 146 -640
137 -77 -3 -174 -13 -215 -21 -168 -36 -338 -107 -483 -202 -90 -59 -289 -258
-345 -345 -40 -62 -44 -66 -66 -56 l-24 11 26 41 c112 179 301 353 499 461
134 74 331 137 488 157 78 10 308 6 390 -8z m-1367 -693 c15 -20 16 -113 1
-146 -7 -15 -30 -33 -58 -44 l-46 -20 51 5 c28 3 54 1 57 -4 25 -40 13 -167
-18 -193 -8 -6 -82 -29 -165 -50 l-150 -37 0 222 0 223 142 35 c145 35 163 36
186 9z m2487 -8 l145 -36 0 -44 0 -43 -62 18 c-35 10 -80 21 -100 25 l-38 7 0
-44 0 -45 78 -19 77 -19 3 -43 c3 -37 1 -42 -15 -37 -10 2 -38 10 -63 16 -25
6 -53 14 -63 16 -16 5 -18 0 -15 -47 l3 -53 98 -24 97 -24 0 -43 0 -42 -152
37 -153 38 -3 221 c-1 148 1 221 8 221 6 0 76 -16 155 -36z m-20 -104 c3 -5 1
-10 -4 -10 -6 0 -11 5 -11 10 0 6 2 10 4 10 3 0 8 -4 11 -10z m35 -180 c20 -6
21 -8 5 -8 -11 0 -29 3 -40 8 -25 11 1 11 35 0z m-21 -32 c10 -28 9 -30 -13
-22 -17 7 -23 44 -6 44 6 0 14 -10 19 -22z m-2554 -133 c-16 -7 -50 -15 -75
-19 -50 -6 -39 1 30 20 59 16 83 16 45 -1z m2510 -6 c34 -13 -6 -10 -60 6
l-50 15 45 -7 c25 -3 54 -9 65 -14z m-2655 -29 c-8 -5 -24 -9 -35 -9 -20 0
-20 0 0 9 11 5 27 9 35 9 13 1 13 0 0 -9z m2765 0 c8 -13 -5 -13 -25 0 -13 8
-13 10 2 10 9 0 20 -4 23 -10z m-2709 -138 c2 -301 90 -545 290 -800 27 -35
40 -61 37 -73 -3 -10 -9 -19 -13 -19 -5 0 -11 -8 -13 -17 -3 -13 -5 -12 -6 5
0 13 -21 47 -45 75 -190 226 -298 518 -300 815 -1 108 2 134 14 142 32 20 35
10 36 -128z m754 -410 c0 -2 -5 -12 -10 -23 -13 -23 -30 -25 -30 -3 0 8 -4 12
-10 9 -5 -3 -10 1 -10 9 0 11 9 15 30 13 16 -1 30 -3 30 -5z m-104 -87 c4 -8
10 -12 15 -9 14 8 11 -40 -3 -54 -25 -25 -38 -13 -38 33 0 44 15 60 26 30z
m1370 -120 c16 -13 17 -16 4 -25 -19 -12 -21 -12 -44 5 -19 14 -14 35 8 35 7
0 21 -7 32 -15z m203 -45 c11 0 23 5 26 10 11 18 25 10 25 -14 0 -26 52 -76
58 -57 9 27 21 7 19 -31 -2 -36 2 -44 21 -53 26 -11 27 -18 7 -35 -20 -16 -19
-44 1 -65 15 -14 14 -17 -10 -36 -26 -21 -34 -53 -16 -64 17 -10 0 -26 -20
-20 -27 8 -63 -30 -55 -57 6 -18 4 -19 -24 -13 -25 5 -35 2 -55 -20 -24 -26
-25 -26 -50 -10 -24 16 -28 16 -52 0 -25 -16 -27 -16 -47 3 -28 24 -55 34 -62
22 -11 -18 -25 -10 -25 14 0 22 -32 56 -52 56 -17 0 -7 -18 12 -23 21 -5 26
-32 11 -56 -13 -20 -31 -4 -31 29 0 16 -4 31 -9 34 -5 3 -7 24 -4 45 4 32 2
41 -15 50 -10 6 -22 7 -26 4 -3 -3 -6 -2 -6 4 0 6 7 16 15 23 19 16 19 49 0
70 -14 16 -13 19 10 34 25 17 33 50 15 61 -19 12 -10 25 18 25 33 0 67 32 59
54 -8 21 2 26 30 15 20 -7 30 -6 44 7 11 10 19 23 19 31 0 18 7 17 37 -7 24
-19 26 -19 49 -2 13 9 24 22 24 27 0 6 9 -5 20 -22 11 -19 28 -33 39 -33z
m-1583 33 c18 -24 17 -33 -4 -33 -21 0 -42 18 -42 37 0 19 31 16 46 -4z m-31
-43 c9 -15 36 -12 57 6 17 16 19 15 39 -10 20 -25 59 -36 59 -16 0 22 20 8 26
-17 10 -42 24 -55 52 -48 22 5 23 4 17 -25 -5 -23 -2 -37 10 -50 10 -11 22
-17 26 -14 14 8 10 -12 -8 -46 -18 -31 -18 -31 6 -51 24 -19 24 -20 4 -25 -30
-8 -50 -49 -34 -68 15 -18 6 -37 -14 -30 -25 10 -55 -15 -55 -45 0 -26 -3 -28
-37 -27 -30 1 -40 -4 -48 -21 -10 -23 -35 -32 -35 -13 0 19 -50 23 -69 6 -18
-16 -20 -16 -44 8 -27 27 -51 33 -62 16 -11 -18 -25 -10 -25 14 0 34 -27 59
-56 52 -28 -7 -28 -6 -12 28 9 22 8 29 -7 46 -10 11 -24 20 -32 20 -12 0 -11
4 1 22 21 29 20 58 -1 73 -15 11 -15 13 6 24 30 16 42 51 24 69 -17 18 -8 31
17 25 30 -8 63 25 55 55 -5 22 -4 23 24 17 37 -8 71 9 71 36 0 16 3 18 19 9
11 -5 23 -15 26 -20z m1725 1 c0 -35 -13 -47 -30 -26 -14 17 -4 55 16 55 9 0
14 -11 14 -29z m-508 -13 c-7 -7 -12 -8 -12 -2 0 14 12 26 19 19 2 -3 -1 -11
-7 -17z m-980 -33 c-5 -28 -14 -31 -31 -11 -9 11 -10 20 -1 36 15 28 39 10 32
-25z m1093 25 c0 -18 -43 -26 -57 -12 -16 16 2 33 30 30 16 -2 27 -9 27 -18z
m-1033 -115 c-13 -28 -32 -25 -32 4 0 24 21 44 34 31 6 -6 5 -19 -2 -35z m966
28 c-2 -10 -16 -24 -31 -31 -15 -7 -27 -20 -27 -28 0 -8 -6 -17 -12 -19 -7 -3
-14 -15 -14 -28 -1 -12 -4 -29 -5 -37 -3 -10 2 -14 14 -12 21 3 34 -25 19 -40
-7 -7 -7 -19 -1 -35 5 -14 7 -28 4 -33 -3 -5 0 -12 6 -16 8 -4 9 -3 5 4 -10
17 29 15 43 -2 6 -7 9 -20 6 -28 -7 -18 40 -64 50 -49 9 16 46 -6 39 -23 -3
-8 0 -16 8 -19 7 -2 3 -3 -8 -1 -12 2 -55 -12 -96 -31 -184 -84 -374 -119
-608 -111 -176 5 -249 18 -398 67 -51 17 -101 29 -111 26 -10 -2 -26 2 -36 9
-10 8 -14 14 -8 14 7 0 14 -4 18 -9 10 -16 65 9 65 29 0 22 12 31 47 35 25 2
62 39 63 60 0 6 -5 3 -10 -5 -8 -13 -10 -13 -10 1 0 18 24 42 33 33 13 -13 27
38 21 76 -5 33 -4 40 10 40 12 0 16 9 16 35 0 19 -4 35 -10 35 -5 0 -10 -9
-10 -20 0 -10 -9 -24 -19 -30 -27 -14 -31 -13 -31 10 0 21 53 55 70 45 17 -11
11 -77 -7 -91 -15 -10 -16 -15 -5 -26 11 -11 12 -10 7 3 -4 10 0 19 9 22 11 4
16 19 16 45 l0 39 204 -5 c128 -3 251 0 332 8 71 7 162 15 201 19 56 5 76 11
87 26 8 11 12 24 9 29 -7 11 25 36 45 36 7 0 12 -8 10 -17z m-1478 -31 c0 -14
-23 -32 -42 -32 -18 0 -25 20 -11 33 9 10 53 9 53 -1z m1460 -70 c0 -21 -18
-42 -37 -42 -18 0 -16 20 4 42 21 23 33 23 33 0z m570 -79 c0 -16 -16 -30 -37
-35 -17 -5 -23 -2 -23 11 0 10 3 21 7 24 9 9 53 9 53 0z m-549 -52 c-7 -11
-16 -21 -21 -21 -18 0 -22 22 -9 46 11 21 15 23 27 10 11 -11 11 -18 3 -35z
m-943 2 c-4 -22 -58 -31 -58 -10 0 20 10 27 37 27 18 0 24 -5 21 -17z m-544
-9 c6 -17 -9 -54 -23 -54 -16 0 -21 30 -8 50 14 24 23 25 31 4z m1971 -55 c0
-9 -10 -13 -29 -12 -36 3 -42 9 -27 27 15 18 56 6 56 -15z m-1501 -15 c19 -7
21 -30 4 -37 -7 -2 -24 0 -37 4 -19 8 -21 12 -11 24 14 17 21 18 44 9z m-409
-34 c0 -27 -22 -39 -31 -16 -8 22 3 49 19 43 6 -2 12 -14 12 -27z m1579 -6 c9
-8 16 -22 16 -30 0 -21 -28 -17 -40 5 -21 40 -6 55 24 25z m235 3 c12 -16 5
-27 -18 -27 -24 0 -44 16 -37 29 10 15 41 14 55 -2z m-1715 -43 c10 -27 7 -44
-9 -44 -13 0 -35 36 -35 56 0 12 39 2 44 -12z m226 6 c12 -7 12 -12 3 -21 -15
-15 -68 5 -58 21 8 13 35 13 55 0z"/>
<path d="M165 1908 l-41 -10 -2 -55 c-2 -49 -1 -54 16 -49 11 4 39 12 63 19
43 13 44 14 47 60 3 53 -1 55 -83 35z m60 -18 c-3 -5 -16 -10 -28 -10 -18 0
-19 2 -7 10 20 13 43 13 35 0z m-35 -29 c0 -23 -14 -41 -31 -41 -24 0 -26 37
-1 43 28 8 32 7 32 -2z m39 -13 c0 -16 -2 -18 -6 -8 -3 8 -11 18 -17 22 -7 5
-4 8 7 8 11 0 17 -7 16 -22z"/>
<path d="M176 1736 l-49 -12 -1 -57 c-1 -53 1 -58 19 -53 11 4 37 9 57 12 49
8 60 23 56 76 -3 49 -9 52 -82 34z m64 -16 c0 -5 -4 -10 -10 -10 -5 0 -10 5
-10 10 0 6 5 10 10 10 6 0 10 -4 10 -10z m-17 -44 c-3 -16 -15 -28 -35 -35
-28 -10 -30 -9 -24 12 3 12 6 25 6 29 0 6 22 14 46 17 7 1 9 -9 7 -23z"/>
<path d="M2170 740 c0 -6 7 -10 15 -10 8 0 15 2 15 4 0 2 -7 6 -15 10 -8 3
-15 1 -15 -4z"/>
<path d="M2225 646 c-121 -53 -137 -238 -27 -311 135 -89 311 21 288 179 -8
54 -53 112 -103 132 -41 18 -119 17 -158 0z m165 -25 c43 -22 80 -83 80 -131
0 -45 -37 -118 -73 -144 -40 -30 -144 -30 -183 0 -53 39 -69 71 -69 134 0 66
18 99 75 138 42 28 120 30 170 3z"/>
<path d="M2230 612 c-38 -20 -80 -89 -80 -132 0 -14 9 -44 20 -68 15 -34 29
-47 66 -64 77 -34 146 -14 198 55 26 36 28 122 3 161 -42 63 -136 85 -207 48z
m147 -12 c109 -66 78 -223 -48 -249 -111 -23 -200 85 -154 184 36 75 134 107
202 65z"/>
<path d="M2100 280 c0 -19 3 -21 12 -12 9 9 9 15 0 24 -9 9 -12 7 -12 -12z"/>
<path d="M800 725 c7 -9 15 -13 17 -11 7 7 -7 26 -19 26 -6 0 -6 -6 2 -15z"/>
<path d="M761 615 c-60 -19 -99 -59 -117 -122 -52 -178 163 -304 300 -175 57
54 72 141 36 212 -23 45 -60 73 -115 89 -48 13 -49 13 -104 -4z m110 -16 c74
-25 113 -85 107 -164 -6 -66 -37 -111 -96 -137 -84 -37 -178 -3 -214 78 -28
64 -18 122 29 175 49 54 107 70 174 48z"/>
<path d="M733 570 c-48 -29 -66 -72 -61 -142 4 -50 9 -64 36 -91 28 -28 39
-32 100 -35 63 -4 71 -2 101 24 59 49 76 124 45 190 -18 38 -70 74 -105 73
-19 0 -16 -3 16 -16 105 -43 124 -154 40 -233 -23 -21 -36 -25 -92 -25 -62 0
-66 1 -99 38 -31 34 -35 44 -33 85 4 81 39 125 112 142 l32 8 -30 1 c-16 0
-44 -8 -62 -19z"/>
<path d="M2497 695 c-4 -8 -2 -17 3 -20 6 -4 10 3 10 14 0 25 -6 27 -13 6z"/>
<path d="M1012 650 c0 -14 2 -19 5 -12 2 6 2 18 0 25 -3 6 -5 1 -5 -13z"/>
<path d="M2080 670 c0 -5 7 -10 15 -10 8 0 15 5 15 10 0 6 -7 10 -15 10 -8 0
-15 -4 -15 -10z"/>
<path d="M1076 574 c-4 -9 -4 -19 -1 -22 2 -3 7 3 11 12 4 9 4 19 1 22 -2 3
-7 -3 -11 -12z"/>
<path d="M2030 580 c-13 -8 -12 -10 3 -10 9 0 17 5 17 10 0 12 -1 12 -20 0z"/>
<path d="M1095 459 c-11 -17 1 -21 15 -4 8 9 8 15 2 15 -6 0 -14 -5 -17 -11z"/>
<path d="M2036 297 c3 -10 9 -15 12 -12 3 3 0 11 -7 18 -10 9 -11 8 -5 -6z"/>
<path d="M1963 214 c-239 -100 -540 -118 -793 -48 -178 49 -240 37 -77 -15
237 -76 521 -80 767 -11 104 30 222 80 217 94 -6 19 -29 15 -114 -20z"/>
<path d="M1288 153 c7 -3 16 -2 19 1 4 3 -2 6 -13 5 -11 0 -14 -3 -6 -6z"/>
<path d="M1673 153 c9 -2 23 -2 30 0 6 3 -1 5 -18 5 -16 0 -22 -2 -12 -5z"/>
<path d="M1423 143 c43 -2 110 -2 150 0 40 1 5 3 -78 3 -82 0 -115 -2 -72 -3z"/>
<path d="M535 540 c-3 -5 1 -10 9 -10 9 0 16 5 16 10 0 6 -4 10 -9 10 -6 0
-13 -4 -16 -10z"/>
<path d="M2007 473 c-12 -12 -7 -22 8 -17 8 4 15 10 15 15 0 11 -14 12 -23 2z"/>
<path d="M2565 390 c-3 -5 1 -10 9 -10 8 0 18 5 21 10 3 6 -1 10 -9 10 -8 0
-18 -4 -21 -10z"/>
<path d="M2036 364 c-4 -9 -4 -19 -1 -22 2 -3 7 3 11 12 4 9 4 19 1 22 -2 3
-7 -3 -11 -12z"/>
<path d="M1075 350 c-3 -5 1 -10 9 -10 8 0 18 5 21 10 3 6 -1 10 -9 10 -8 0
-18 -4 -21 -10z"/>
<path d="M546 325 c-3 -8 -1 -15 3 -15 5 0 11 7 15 15 3 8 1 15 -3 15 -5 0
-11 -7 -15 -15z"/>
<path d="M2500 296 c0 -9 30 -14 35 -6 4 6 -3 10 -14 10 -12 0 -21 -2 -21 -4z"/>
<path d="M1015 260 c-4 -6 3 -10 14 -10 25 0 27 6 6 13 -8 4 -17 2 -20 -3z"/>
<path d="M610 235 c0 -8 5 -15 10 -15 6 0 10 7 10 15 0 8 -4 15 -10 15 -5 0
-10 -7 -10 -15z"/>
<path d="M2200 215 c0 -8 4 -15 10 -15 5 0 7 7 4 15 -4 8 -8 15 -10 15 -2 0
-4 -7 -4 -15z"/>
<path d="M2415 230 c3 -5 14 -10 23 -10 15 0 15 2 2 10 -20 13 -33 13 -25 0z"/>
<path d="M710 188 c0 -9 5 -20 10 -23 13 -8 13 5 0 25 -8 13 -10 13 -10 -2z"/>
<path d="M930 190 c20 -13 33 -13 25 0 -3 6 -14 10 -23 10 -15 0 -15 -2 -2
-10z"/>
<path d="M1370 2318 c0 -39 2 -43 25 -43 14 0 25 3 25 8 0 4 -9 7 -20 7 -11 0
-20 5 -20 10 0 6 9 10 20 10 11 0 20 5 20 11 0 6 -9 9 -20 6 -14 -3 -20 0 -20
10 0 10 6 14 20 10 11 -3 20 -1 20 4 0 5 -11 9 -25 9 -23 0 -25 -4 -25 -42z"/>
<path d="M1591 2308 c1 -49 2 -51 12 -25 13 31 27 36 27 8 0 -11 4 -22 9 -25
5 -3 9 17 9 44 1 49 0 50 -29 50 -29 0 -29 -1 -28 -52z m47 24 c2 -7 -3 -12
-12 -12 -9 0 -16 7 -16 16 0 17 22 14 28 -4z"/>
<path d="M1140 2340 c0 -5 5 -10 10 -10 6 0 10 -18 10 -41 0 -24 4 -38 10 -34
6 3 10 22 10 41 0 19 5 34 10 34 6 0 10 5 10 10 0 6 -13 10 -30 10 -16 0 -30
-4 -30 -10z"/>
<path d="M1820 2300 c0 -50 0 -50 28 -44 37 9 40 14 14 21 -17 4 -22 13 -22
39 0 19 -4 34 -10 34 -5 0 -10 -23 -10 -50z"/>
<path d="M927 2275 c-9 -24 -12 -47 -7 -50 4 -2 10 4 13 15 6 24 37 27 37 3 0
-11 3 -13 9 -7 12 12 -10 84 -26 84 -6 0 -18 -20 -26 -45z m29 -2 c-10 -10
-19 5 -10 18 6 11 8 11 12 0 2 -7 1 -15 -2 -18z"/>
<path d="M2040 2273 c0 -25 3 -44 6 -40 3 3 17 2 30 -3 23 -9 24 -8 24 34 0
31 -5 46 -16 50 -36 14 -44 7 -44 -41z m50 2 c0 -18 -5 -25 -20 -25 -15 0 -20
7 -20 25 0 18 5 25 20 25 15 0 20 -7 20 -25z"/>
<path d="M744 2253 c-5 -26 -9 -32 -11 -18 -9 44 -13 51 -23 35 -6 -8 -10 -26
-11 -40 -1 -23 -2 -22 -11 8 -6 17 -15 32 -21 32 -5 0 -7 -6 -4 -14 3 -8 9
-31 13 -50 7 -42 19 -39 30 7 l7 32 12 -35 12 -35 12 43 c7 24 15 50 18 58 3
8 1 14 -5 14 -5 0 -13 -17 -18 -37z"/>
<path d="M2274 2266 c-3 -8 -4 -29 -2 -48 3 -28 6 -33 27 -30 17 3 21 0 16
-10 -6 -10 -5 -10 4 -2 7 6 11 28 9 49 -2 29 -9 40 -26 46 -16 6 -24 5 -28 -5z
m44 -39 c3 -23 0 -28 -15 -25 -11 2 -19 14 -21 31 -3 23 0 28 15 25 11 -2 19
-14 21 -31z"/>
<path d="M641 2244 c0 -11 3 -14 6 -6 3 7 2 16 -1 19 -3 4 -6 -2 -5 -13z"/>
<path d="M2351 2224 c0 -11 3 -14 6 -6 3 7 2 16 -1 19 -3 4 -6 -2 -5 -13z"/>
<path d="M1105 2150 l-70 -5 -3 -175 c-3 -179 -5 -190 -44 -190 -15 0 -18 9
-18 45 l0 45 -42 -5 c-118 -16 -108 -9 -109 -73 0 -31 -2 -52 -4 -47 -2 6 -29
90 -60 188 -47 149 -59 177 -73 173 -9 -2 -50 -10 -89 -16 -69 -11 -73 -13
-82 -43 -5 -18 -36 -128 -70 -245 -33 -118 -63 -218 -67 -223 -3 -5 -1 -9 5
-9 6 0 8 -6 5 -14 -4 -11 3 -12 43 -4 88 17 93 18 93 31 0 6 5 28 10 48 10 34
14 37 58 43 26 4 54 9 63 12 13 3 19 -7 28 -42 l12 -47 52 7 c29 3 60 6 71 6
12 0 16 5 13 14 -8 20 12 25 43 10 20 -10 48 -11 130 -3 58 6 113 15 123 21
10 5 27 30 38 55 17 41 19 66 17 247 l-3 201 -70 -5z m55 -209 c0 -195 -1
-201 -23 -227 -22 -25 -32 -28 -141 -37 -148 -12 -156 -7 -156 95 l0 68 33 0
c17 0 42 3 55 6 20 6 22 3 22 -34 0 -49 7 -54 59 -46 l41 7 0 178 0 178 53 4
c28 2 53 4 55 5 1 1 2 -88 2 -197z m-404 -66 c38 -118 65 -215 59 -216 -5 0
-31 -4 -58 -8 l-47 -8 -11 41 c-6 23 -13 44 -15 47 -3 6 -68 -3 -130 -16 -17
-4 -25 -17 -34 -54 -11 -48 -12 -49 -63 -59 -29 -6 -53 -9 -54 -8 -3 3 128
459 133 465 2 2 34 10 71 17 38 6 70 12 74 13 3 0 36 -96 75 -214z m-91 -170
c-28 -11 -115 -21 -115 -14 0 4 17 10 38 12 52 5 89 6 77 2z m457 -37 c-18
-18 -226 -34 -258 -19 -15 6 -24 14 -21 17 3 3 15 0 27 -6 22 -12 198 -4 235
11 28 11 31 11 17 -3z m-317 -37 c-12 -11 -105 -21 -105 -12 0 4 19 8 42 10
23 1 44 4 47 7 2 2 9 4 15 4 6 0 6 -3 1 -9z m-315 -50 c-18 -10 -95 -23 -87
-14 7 6 64 21 87 22 13 0 13 -1 0 -8z"/>
<path d="M580 1904 l-26 -105 51 6 c27 4 52 9 54 11 4 4 -40 177 -48 186 -3 4
-17 -41 -31 -98z m50 -76 c0 -5 -11 -8 -25 -8 -29 0 -28 -2 -13 57 l11 46 13
-44 c8 -24 14 -47 14 -51z"/>
<path d="M1253 1920 c-39 -131 -69 -247 -67 -257 4 -16 14 -18 73 -15 l68 4 9
46 9 47 66 3 67 3 12 -51 12 -50 70 0 c58 0 69 3 64 15 -3 9 0 15 8 15 14 0
15 0 -95 353 l-40 127 -92 0 -92 0 -72 -240z m304 26 c34 -110 64 -210 68
-223 5 -22 3 -23 -54 -23 l-59 0 -9 47 -8 48 -75 -4 c-41 -1 -78 -5 -82 -7 -3
-2 -9 -22 -13 -43 -5 -33 -11 -40 -37 -45 -17 -3 -43 -6 -58 -6 l-28 0 33 108
c19 59 50 160 69 224 l36 117 53 4 c109 8 94 26 164 -197z m-87 -176 c10 -7
-6 -9 -55 -9 -53 1 -63 3 -40 9 44 11 78 11 95 0z m-160 -100 c0 -6 -24 -10
-52 -9 -42 1 -48 3 -28 9 36 12 80 12 80 0z m288 3 c-15 -2 -42 -2 -60 0 -18
2 -6 4 27 4 33 0 48 -2 33 -4z"/>
<path d="M1391 1998 c-11 -46 -23 -92 -26 -103 -6 -18 -1 -20 49 -20 31 0 56
2 56 5 0 8 -52 195 -55 198 -1 1 -12 -35 -24 -80z m49 -105 c0 -2 -13 -3 -29
-3 -28 0 -29 2 -21 28 4 15 12 41 15 57 7 29 8 27 21 -25 7 -30 13 -56 14 -57z"/>
<path d="M1826 2127 c-24 -24 -26 -33 -26 -107 0 -45 5 -91 11 -103 18 -34 51
-67 68 -67 11 0 10 3 -5 15 -10 8 19 1 66 -16 46 -16 87 -33 90 -36 3 -3 -3
-3 -13 0 -11 4 -31 9 -45 12 -23 5 -24 4 -7 -5 11 -5 33 -14 49 -20 40 -15 21
-28 -32 -22 -42 4 -44 6 -40 33 5 32 8 31 -84 33 l-58 1 0 -53 c0 -63 20 -115
52 -135 13 -9 73 -19 143 -26 111 -10 122 -10 145 8 29 21 37 51 38 146 1 81
-11 111 -59 136 l-34 19 43 -6 42 -7 0 70 c0 117 -27 136 -217 149 -100 6
-102 6 -127 -19z m272 -18 c37 -14 51 -38 52 -86 0 -42 -1 -43 -32 -43 -56 0
-78 10 -78 35 0 20 -6 23 -52 28 -57 5 -64 1 -63 -39 0 -28 -3 -26 140 -79 82
-30 95 -50 95 -143 0 -115 -4 -118 -164 -104 -69 6 -134 15 -144 21 -23 12
-42 60 -42 104 0 28 2 29 31 23 17 -3 44 -6 59 -6 23 0 27 -3 23 -24 -6 -30 0
-34 67 -37 l55 -3 0 38 0 39 -95 34 c-128 46 -130 48 -130 146 0 117 5 121
143 113 60 -4 120 -12 135 -17z m-79 -95 c2 -2 -12 -4 -32 -4 -20 0 -37 4 -37
10 0 8 58 3 69 -6z m12 -35 c12 -20 4 -22 -38 -9 -58 19 -66 34 -14 27 24 -3
47 -11 52 -18z m85 -19 c19 0 34 -3 34 -7 0 -5 -22 -6 -50 -5 -27 2 -50 8 -50
14 0 6 7 7 16 4 9 -3 31 -6 50 -6z m-83 -302 c61 -2 102 -7 97 -12 -12 -12
-257 7 -271 21 -8 8 -1 9 28 3 22 -5 87 -11 146 -12z"/>
<path d="M2242 1873 c-40 -126 -67 -229 -62 -231 6 -2 10 -10 10 -18 0 -8 8
-14 18 -15 9 0 38 -4 65 -8 l47 -8 13 42 c6 24 14 44 17 45 15 6 122 -14 125
-24 1 -6 8 -30 14 -52 10 -39 13 -42 56 -47 25 -4 56 -9 69 -13 22 -5 23 -3
20 33 -4 43 -130 484 -142 494 -8 7 -126 29 -158 29 -17 0 -30 -32 -92 -227z
m222 188 c16 -6 32 -51 87 -237 36 -126 65 -231 63 -232 -1 -2 -27 1 -57 8
-53 11 -56 13 -62 48 -3 21 -9 43 -14 50 -8 14 -124 37 -145 29 -8 -3 -17 -24
-21 -46 l-7 -40 -46 5 c-26 3 -52 7 -58 9 -8 2 10 72 52 202 35 109 66 204 69
212 4 10 18 12 62 6 31 -4 65 -10 77 -14z m-14 -372 c17 -9 -51 0 -90 12 -15
5 -6 6 25 2 28 -3 57 -9 65 -14z m-160 -69 c17 -6 9 -7 -25 -3 -27 3 -52 7
-54 9 -8 7 54 2 79 -6z m310 -51 c16 -5 6 -6 -25 -2 -27 3 -54 9 -60 14 -10
10 39 2 85 -12z"/>
<path d="M2377 1915 c-14 -54 -25 -100 -24 -101 1 -1 26 -7 54 -12 51 -9 52
-8 47 12 -3 12 -15 61 -27 110 l-23 90 -27 -99z m48 -52 c7 -42 6 -43 -20 -43
-22 0 -26 3 -20 18 4 9 9 32 12 50 7 41 19 30 28 -25z"/>
<path d="M1489 1499 c-13 -4 36 -7 110 -8 74 -1 132 2 128 5 -8 8 -209 11
-238 3z"/>
<path d="M1800 1504 c0 -7 6 -14 13 -17 8 -3 40 -50 71 -105 45 -80 61 -99 74
-94 16 6 16 7 0 10 -9 2 -23 19 -29 37 -7 19 -16 32 -21 29 -4 -3 -8 1 -8 9 0
8 -7 20 -15 27 -8 7 -13 15 -10 19 2 4 -14 27 -35 52 -22 24 -39 39 -40 33z"/>
<path d="M2627 1428 c-68 -87 -100 -121 -120 -124 -7 -1 -41 -11 -77 -21 -54
-15 -100 -18 -272 -17 l-208 0 26 -45 c77 -134 72 -129 149 -141 38 -7 80 -16
93 -21 15 -6 21 -6 17 1 -3 5 0 10 9 10 8 0 16 3 18 8 2 4 23 20 48 36 49 31
170 127 206 164 13 12 29 22 35 22 7 0 10 3 6 6 -3 4 1 13 9 21 8 8 26 30 40
49 15 18 31 31 37 27 6 -4 7 -1 2 7 -5 8 -1 19 12 29 17 14 48 71 39 71 -3 0
-33 -37 -69 -82z m-162 -179 c-77 -71 -240 -187 -250 -177 -2 2 31 27 73 55
42 28 109 78 147 111 80 67 100 75 30 11z m-58 -4 c-9 -8 -17 -19 -19 -24 -1
-4 -46 -37 -98 -72 -77 -51 -102 -63 -133 -62 -50 1 -100 22 -93 39 3 8 -1 14
-9 14 -8 0 -15 7 -15 15 0 8 -4 15 -9 15 -8 0 -24 37 -22 53 1 4 -4 7 -10 7
-5 0 -7 5 -4 10 4 7 51 9 133 5 70 -3 156 -2 192 3 102 15 104 15 87 -3z"/>
<path d="M2640 1489 c0 -5 5 -7 10 -4 6 3 10 8 10 11 0 2 -4 4 -10 4 -5 0 -10
-5 -10 -11z"/>
<path d="M947 1478 c-7 -4 -31 -8 -54 -8 -23 0 -45 -5 -49 -11 -12 -19 -22
-79 -13 -73 5 3 9 15 9 27 0 12 4 28 8 35 8 11 130 20 527 35 44 2 -32 3 -168
3 -137 -1 -254 -4 -260 -8z"/>
<path d="M1548 1463 c6 -2 18 -2 25 0 6 3 1 5 -13 5 -14 0 -19 -2 -12 -5z"/>
<path d="M1608 1463 c6 -2 18 -2 25 0 6 3 1 5 -13 5 -14 0 -19 -2 -12 -5z"/>
<path d="M1006 1445 c16 -13 16 -14 2 -9 -11 4 -18 1 -18 -6 0 -18 33 -7 36
13 1 11 -4 17 -19 17 -20 0 -20 0 -1 -15z"/>
<path d="M1067 1453 c18 -2 50 -2 70 0 21 2 7 4 -32 4 -38 0 -55 -2 -38 -4z"/>
<path d="M2610 1445 c-7 -9 -11 -17 -9 -20 3 -2 10 5 17 15 14 24 10 26 -8 5z"/>
<path d="M870 1429 c0 -5 5 -7 10 -4 6 3 10 8 10 11 0 2 -4 4 -10 4 -5 0 -10
-5 -10 -11z"/>
<path d="M910 1425 c0 -9 9 -15 24 -15 13 0 26 7 30 15 4 11 -2 15 -24 15 -20
0 -30 -5 -30 -15z"/>
<path d="M1036 1425 c-3 -8 -1 -15 4 -15 6 0 10 7 10 15 0 8 -2 15 -4 15 -2 0
-6 -7 -10 -15z"/>
<path d="M1662 1422 c-7 -5 7 -7 35 -6 57 3 76 -6 93 -46 7 -17 14 -29 16 -27
9 8 -26 75 -41 81 -23 9 -88 7 -103 -2z"/>
<path d="M2753 1390 c0 -25 2 -35 4 -22 2 12 2 32 0 45 -2 12 -4 2 -4 -23z"/>
<path d="M1518 1413 c23 -2 61 -2 85 0 23 2 4 4 -43 4 -47 0 -66 -2 -42 -4z"/>
<path d="M1338 1403 c23 -2 59 -2 80 0 20 2 1 4 -43 4 -44 0 -61 -2 -37 -4z"/>
<path d="M2573 1398 c-15 -20 -25 -38 -20 -38 3 0 12 11 21 25 17 26 16 35 -1
13z"/>
<path d="M885 1389 c-10 -15 4 -81 15 -74 11 6 9 85 -2 85 -4 0 -10 -5 -13
-11z"/>
<path d="M1148 1393 c29 -2 74 -2 100 0 26 2 2 3 -53 3 -55 0 -76 -1 -47 -3z"/>
<path d="M1840 1390 c-9 -6 -10 -10 -3 -10 6 0 21 -15 32 -34 23 -36 27 -51
11 -41 -6 3 -7 -1 -3 -10 4 -12 8 -13 13 -5 6 9 9 9 15 0 4 -7 2 -16 -5 -20
-9 -6 -5 -26 16 -83 25 -66 33 -76 57 -79 15 -3 27 -3 27 -2 0 2 -20 37 -45
77 -46 75 -53 93 -35 82 15 -9 12 1 -10 43 -37 71 -55 92 -70 82z"/>
<path d="M847 1383 c-4 -3 -7 -22 -7 -41 0 -42 9 -37 20 12 7 34 2 45 -13 29z"/>
<path d="M923 1368 c4 -13 9 -42 13 -65 4 -24 10 -43 14 -43 4 0 3 20 -2 45
-13 61 -3 71 74 74 95 3 83 11 -16 11 -86 0 -88 0 -83 -22z"/>
<path d="M1820 1358 c1 -17 49 -106 50 -92 0 20 -32 104 -41 104 -5 0 -9 -6
-9 -12z"/>
<path d="M2520 1345 c-7 -8 -17 -12 -23 -8 -6 3 -7 1 -3 -5 8 -14 46 2 46 18
0 14 -6 12 -20 -5z"/>
<path d="M800 1333 c0 -5 5 -15 10 -23 8 -12 10 -11 10 8 0 12 -4 22 -10 22
-5 0 -10 -3 -10 -7z"/>
<path d="M1809 1316 c9 -11 9 -15 -1 -19 -8 -4 -7 -6 5 -6 19 -1 20 0 11 23
-3 9 -11 16 -16 16 -6 0 -6 -6 1 -14z"/>
<path d="M867 1313 c-11 -10 -8 -53 3 -53 6 0 10 14 10 30 0 31 -2 35 -13 23z"/>
<path d="M2353 1293 c9 -2 25 -2 35 0 9 3 1 5 -18 5 -19 0 -27 -2 -17 -5z"/>
<path d="M820 1260 c0 -5 5 -10 10 -10 6 0 10 5 10 10 0 6 -4 10 -10 10 -5 0
-10 -4 -10 -10z"/>
<path d="M1650 1251 c-47 -10 -115 -31 -150 -46 -45 -18 -93 -29 -157 -35 -98
-8 -157 -33 -233 -99 l-35 -31 80 38 c79 36 82 37 200 37 90 -1 142 -6 209
-23 l90 -23 56 61 c31 33 61 60 68 60 19 0 26 -29 13 -57 -9 -20 -9 -29 1 -41
7 -8 13 -25 13 -36 0 -31 72 -42 99 -16 19 19 19 21 -20 122 l-39 103 -55 2
c-30 1 -93 -6 -140 -16z m177 -17 c13 -15 22 -32 19 -40 -3 -7 0 -14 6 -16 13
-5 39 -79 31 -91 -3 -6 -1 -7 5 -3 7 4 12 1 12 -7 0 -16 -21 -27 -49 -27 -20
0 -54 69 -41 84 14 18 14 20 1 44 -19 37 -50 27 -108 -33 l-52 -56 -61 16
c-34 9 -82 18 -108 21 -26 2 -56 6 -67 9 -11 2 -24 4 -30 5 -5 1 10 8 34 16
24 7 48 11 54 7 6 -3 7 -1 3 5 -3 6 13 17 41 27 27 10 59 21 73 26 14 5 66 15
115 23 50 8 92 14 94 15 2 1 15 -11 28 -25z m-514 -91 c-7 -2 -19 -2 -25 0 -7
3 -2 5 12 5 14 0 19 -2 13 -5z"/>
<path d="M912 1245 c0 -11 4 -33 8 -50 l8 -30 0 30 c0 17 -3 39 -8 50 -9 20
-9 20 -8 0z"/>
<path d="M850 1243 c0 -14 -29 -175 -35 -193 -5 -15 1 -17 47 -12 29 2 55 6
56 8 2 1 -4 48 -14 103 -15 85 -20 101 -36 101 -10 0 -18 -3 -18 -7z m30 -68
c0 -8 -4 -15 -10 -15 -5 0 -10 7 -10 15 0 8 5 15 10 15 6 0 10 -7 10 -15z
m-10 -36 c0 -5 5 -7 10 -4 6 4 10 -8 10 -30 0 -36 -25 -60 -39 -37 -9 16 -1
82 10 82 5 0 9 -5 9 -11z"/>
<path d="M949 1218 c5 -13 14 -55 21 -95 l13 -71 41 -4 c33 -3 46 1 69 22 16
14 47 37 69 52 26 18 36 29 27 32 -8 3 -57 21 -109 40 -145 52 -142 51 -131
24z m115 -50 c-3 -4 2 -5 11 -2 8 4 21 1 29 -5 7 -6 16 -8 19 -4 4 3 7 1 7 -6
0 -7 4 -9 10 -6 6 3 7 -1 4 -9 -3 -8 -14 -18 -25 -21 -10 -4 -19 -10 -19 -15
0 -10 -57 -30 -84 -29 -12 0 -15 3 -8 6 6 2 12 9 12 14 0 6 -5 7 -10 4 -13 -8
-19 9 -23 66 l-4 45 43 -15 c23 -8 40 -19 38 -23z"/>
<path d="M1208 1173 c7 -3 16 -2 19 1 4 3 -2 6 -13 5 -11 0 -14 -3 -6 -6z"/>
<path d="M1693 1094 c-70 -78 -85 -104 -60 -104 19 0 157 145 157 165 0 32
-31 12 -97 -61z"/>
<path d="M1260 1100 c-14 -4 16 -5 65 -2 50 2 92 6 94 8 8 7 -134 2 -159 -6z"/>
<path d="M1495 1084 c91 -18 129 -34 116 -47 -17 -17 -13 -55 6 -65 11 -7 25
-6 41 1 17 8 29 8 43 -1 11 -7 30 -10 42 -7 16 4 29 0 42 -15 24 -27 15 -34
-65 -48 -54 -10 -74 -10 -115 2 -27 8 -86 25 -130 38 -66 19 -75 24 -55 30 14
4 4 4 -22 1 -32 -3 -48 -2 -48 6 0 6 -8 11 -18 11 -10 0 -22 3 -26 7 -3 4 -17
8 -29 10 -83 10 -167 43 -110 43 12 0 14 3 6 11 -8 8 -20 6 -44 -7 -19 -9 -29
-19 -24 -20 64 -21 553 -157 560 -156 35 2 182 37 190 45 7 7 7 8 0 4 -16 -8
-87 56 -77 70 5 8 22 -2 55 -34 31 -29 53 -43 63 -39 12 5 1 19 -45 57 -53 44
-63 49 -75 36 -8 -8 -13 -17 -10 -20 3 -2 -7 -8 -22 -11 -17 -5 -32 -2 -43 8
-14 13 -19 12 -39 -4 -42 -35 -69 1 -37 47 15 21 14 22 -22 32 -77 20 -129 30
-153 30 -14 -1 7 -7 45 -15z"/>
<path d="M1938 1093 c-1 -4 -2 -30 -4 -58 -1 -27 -18 -123 -37 -212 -19 -90
-33 -163 -31 -163 2 0 33 59 69 130 36 72 69 130 74 130 10 0 14 -17 32 -132
11 -74 20 -91 34 -68 3 6 17 10 31 10 17 0 24 6 24 19 0 22 69 55 85 40 14
-14 35 -11 35 6 0 11 12 15 45 15 25 0 45 -4 45 -9 0 -13 39 -20 43 -8 2 8 14
8 42 0 l38 -12 -7 95 c-5 70 -3 94 5 89 8 -6 8 -2 0 13 -6 12 -17 24 -24 28
-9 5 -9 4 1 -7 19 -21 14 -34 -7 -15 -11 10 -96 34 -212 60 -232 52 -278 60
-281 49z m86 -28 c17 -1 100 -19 185 -39 85 -20 163 -36 173 -36 28 0 48 -41
54 -111 l6 -65 -45 1 c-25 0 -49 3 -53 8 -13 13 -69 8 -92 -9 -13 -9 -29 -13
-37 -10 -23 8 -84 -14 -95 -34 -13 -25 -47 -26 -54 -2 -3 9 -10 45 -17 79 -6
35 -17 71 -25 80 -11 16 -14 16 -28 3 -9 -9 -32 -45 -51 -80 -32 -58 -35 -61
-30 -30 3 19 13 67 24 107 10 40 16 74 13 77 -3 4 0 6 7 6 8 0 9 5 1 19 -18
34 -13 53 11 46 12 -4 36 -8 53 -10z"/>
<path d="M1190 1080 c-18 -12 -2 -12 25 0 13 6 15 9 5 9 -8 0 -22 -4 -30 -9z"/>
<path d="M1891 1009 c-17 -16 -19 -24 -11 -35 10 -11 14 -11 26 1 8 7 14 17
14 21 0 5 -5 3 -12 -4 -24 -24 -31 -12 -8 13 28 30 23 33 -9 4z"/>
<path d="M790 1010 c0 -13 18 -22 24 -11 3 5 -1 11 -9 15 -8 3 -15 1 -15 -4z"/>
<path d="M946 1011 c-8 -12 102 -106 123 -106 19 0 34 -20 107 -143 31 -52 58
-92 60 -89 2 2 -29 73 -71 158 -41 85 -75 159 -75 165 0 7 -10 14 -22 18 -35
9 -116 7 -122 -3z m114 -17 c0 -2 -19 -4 -42 -4 -26 0 -38 4 -30 8 12 8 72 4
72 -4z m32 -47 c16 -34 16 -34 -7 -29 -13 2 -38 17 -57 33 l-33 28 41 1 c36 0
42 -3 56 -33z"/>
<path d="M1840 1005 c12 -15 30 -12 30 6 0 5 -10 9 -21 9 -18 0 -19 -2 -9 -15z"/>
<path d="M1114 968 c8 -18 41 -90 75 -160 37 -77 58 -134 55 -145 -5 -14 -4
-15 4 -4 7 10 13 5 23 -24 l14 -37 260 7 c143 4 269 11 280 15 16 6 24 31 46
141 15 74 26 135 25 136 -1 2 -56 -9 -122 -23 l-119 -27 -225 62 c-124 34
-245 69 -269 77 -61 19 -63 18 -47 -18z m117 -22 c96 -25 158 -42 264 -71 33
-10 79 -22 103 -28 23 -6 42 -14 42 -18 0 -4 21 -1 48 6 185 49 198 47 181
-20 -5 -16 -16 -65 -24 -107 -14 -68 -19 -78 -38 -79 -54 -3 -283 -10 -390
-12 l-118 -2 -70 145 c-79 160 -101 210 -95 210 2 0 46 -11 97 -24z"/>
<path d="M1790 987 c0 -2 15 -16 33 -33 l32 -29 -29 33 c-28 30 -36 37 -36 29z"/>
<path d="M1004 872 c2 -39 9 -59 27 -78 23 -25 59 -29 66 -8 2 7 -5 10 -21 7
-30 -6 -56 30 -68 91 -7 38 -7 38 -4 -12z"/>
<path d="M1926 750 l-79 -148 -256 -6 c-141 -4 -266 -9 -278 -11 -29 -7 -62
33 -153 183 -41 67 -80 122 -87 122 -11 0 -10 -5 2 -24 8 -13 14 -29 12 -37
-2 -8 -2 -10 1 -5 2 4 17 -14 32 -40 94 -168 126 -217 142 -222 10 -2 16 -7
14 -11 -6 -9 461 8 521 20 71 14 94 35 157 147 59 105 73 142 59 165 -6 11
-30 -26 -87 -133z"/>
<path d="M2471 784 c0 -11 3 -14 6 -6 3 7 2 16 -1 19 -3 4 -6 -2 -5 -13z"/>
<path d="M2011 773 c12 -14 12 -16 -1 -11 -10 3 -28 -18 -57 -67 -23 -40 -56
-84 -73 -99 -17 -14 -26 -26 -20 -26 6 0 9 -4 5 -9 -3 -5 0 -13 6 -16 13 -8
75 48 94 86 10 19 11 29 3 37 -8 8 -1 23 25 56 40 48 46 66 21 66 -14 0 -15
-2 -3 -17z m-83 -158 c-23 -25 -46 -45 -51 -45 -5 0 1 10 15 23 14 13 33 35
43 50 9 15 21 25 25 22 5 -3 -10 -25 -32 -50z"/>
<path d="M390 773 c1 -16 188 -96 201 -87 8 5 21 7 31 6 21 -4 29 10 17 28 -6
10 -11 12 -16 4 -18 -25 -46 -22 -126 16 -84 40 -107 47 -107 33z"/>
<path d="M2280 772 c0 -12 19 -26 26 -19 2 2 -2 10 -11 17 -9 8 -15 8 -15 2z"/>
<path d="M2571 756 c-13 -14 -22 -29 -20 -35 2 -6 14 5 27 24 26 41 24 44 -7
11z"/>
<path d="M2390 765 c0 -15 18 -40 24 -34 3 3 -1 14 -9 25 -8 10 -14 15 -15 9z"/>
<path d="M2490 750 c-9 -6 -10 -10 -3 -10 6 0 15 5 18 10 8 12 4 12 -15 0z"/>
<path d="M1110 736 c-9 -12 1 -30 56 -98 37 -46 53 -69 35 -53 -18 17 -51 54
-73 83 -27 35 -44 50 -51 43 -6 -6 12 -35 53 -83 71 -84 105 -112 121 -102 8
4 7 9 -2 15 -8 4 -14 12 -14 16 0 15 -78 138 -99 156 -12 10 -15 16 -9 12 9
-4 11 -1 7 9 -7 20 -9 20 -24 2z"/>
<path d="M910 718 c0 -9 5 -20 10 -23 13 -8 13 5 0 25 -8 13 -10 13 -10 -2z"/>
<path d="M685 700 c3 -5 14 -10 23 -10 15 0 15 2 2 10 -20 13 -33 13 -25 0z"/>
<path d="M543 665 c0 -8 4 -12 9 -9 5 3 6 10 3 15 -9 13 -12 11 -12 -6z"/>
<path d="M1072 638 c3 -7 13 -15 24 -17 16 -3 17 -1 5 13 -16 19 -34 21 -29 4z"/>
<path d="M590 636 c0 -9 30 -14 35 -6 4 6 -3 10 -14 10 -12 0 -21 -2 -21 -4z"/>
<path d="M2567 613 c-4 -3 -7 -11 -7 -17 0 -6 5 -5 12 2 6 6 9 14 7 17 -3 3
-9 2 -12 -2z"/>
<path d="M508 603 c6 -2 18 -2 25 0 6 3 1 5 -13 5 -14 0 -19 -2 -12 -5z"/>
<path d="M1820 540 c0 -5 7 -10 16 -10 8 0 12 5 9 10 -3 6 -10 10 -16 10 -5 0
-9 -4 -9 -10z"/>
<path d="M1725 530 c3 -5 15 -10 26 -10 10 0 19 5 19 10 0 6 -12 10 -26 10
-14 0 -23 -4 -19 -10z"/>
<path d="M1275 520 c3 -5 14 -10 23 -10 15 0 15 2 2 10 -20 13 -33 13 -25 0z"/>
<path d="M1455 521 c3 -6 32 -9 64 -8 77 2 68 17 -10 17 -35 0 -58 -4 -54 -9z"/>
<path d="M2585 499 c-11 -17 1 -21 15 -4 8 9 8 15 2 15 -6 0 -14 -5 -17 -11z"/>
<path d="M517 433 c-12 -12 -7 -22 8 -17 8 4 15 10 15 15 0 11 -14 12 -23 2z"/>
<path d="M2310 201 c0 -5 5 -13 10 -16 6 -3 10 -2 10 4 0 5 -4 13 -10 16 -5 3
-10 2 -10 -4z"/>
<path d="M820 165 c7 -8 17 -15 22 -15 6 0 5 7 -2 15 -7 8 -17 15 -22 15 -6 0
-5 -7 2 -15z"/>
</g>
</svg>
